<svg width="30" height="30" viewBox="0 0 30 30" fill="none" xmlns="http://www.w3.org/2000/svg">
<g clip-path="url(#clip0_2623_8936)">
<path d="M5.88193 0.0078125C2.65042 0.0078125 0.00561523 2.65255 0.00561523 5.88412V24.1194C0.00561523 27.3509 2.65036 29.9947 5.88193 29.9947H24.1172C27.3487 29.9947 29.9925 27.3509 29.9925 24.1194V5.88412C29.9925 2.65261 27.3487 0.0078125 24.1172 0.0078125H5.88193ZM7.35991 4.95625C8.90935 4.95625 9.86373 5.97343 9.89319 7.3105C9.89319 8.61805 8.90928 9.66382 7.32993 9.66382H7.30087C5.78092 9.66382 4.79851 8.61811 4.79851 7.3105C4.79851 5.97346 5.81065 4.95625 7.35988 4.95625H7.35991ZM20.7123 11.2056C23.6922 11.2056 25.926 13.1532 25.926 17.3386V25.1521H21.3974V17.8625C21.3974 16.0307 20.742 14.781 19.1031 14.781C17.852 14.781 17.1063 15.6233 16.7789 16.437C16.6592 16.7281 16.6298 17.1347 16.6298 17.542V25.1521H12.1013C12.1013 25.1521 12.1607 12.8037 12.1013 11.5251H16.6308V13.4548C17.2326 12.5263 18.309 11.2055 20.7123 11.2055V11.2056ZM5.06563 11.5261H9.59421V25.1522H5.06563V11.5261Z" fill="black"/>
</g>
<defs>
<clipPath id="clip0_2623_8936">
<rect width="30" height="30" fill="white"/>
</clipPath>
</defs>
</svg>
