<svg width="209" height="165" viewBox="0 0 209 165" fill="none" xmlns="http://www.w3.org/2000/svg">
<g filter="url(#filter0_d_4354_10279)">
<path d="M34.9222 22.4753L171.888 23.2521C180.34 23.3027 194.665 25.0252 197.714 34.4986C201.234 46.9609 202.4 103.075 196.732 111.704C192.557 118.661 188.669 120.992 184.556 122.951C172.339 127.628 115.346 126.835 115.346 126.835L70.3864 156.521L77.7126 126.463H30.5429C22.2754 126.463 14.7036 122.326 12.0228 113.275C7.35703 96.8439 6.45661 50.7604 11.0406 39.9529C15.3994 30.0574 22.7051 22.4078 34.9222 22.4753Z" fill="white"/>
</g>
<path d="M33.3268 48.1724V51.8799C33.1889 52.0622 32.9733 52.2622 32.6799 52.4801C32.391 52.6934 32.0064 52.8779 31.5263 53.0335C31.0462 53.1891 30.4483 53.2669 29.7326 53.2669C29.1235 53.2669 28.5656 53.1647 28.0588 52.9602C27.5521 52.7512 27.1142 52.4467 26.7452 52.0466C26.3807 51.6465 26.0984 51.1597 25.8983 50.5863C25.6983 50.0084 25.5983 49.3504 25.5983 48.6125V47.939C25.5983 47.2055 25.6894 46.552 25.8717 45.9785C26.0584 45.4006 26.3251 44.9116 26.6719 44.5115C27.0186 44.1114 27.4365 43.8091 27.9255 43.6046C28.4189 43.3957 28.9768 43.2912 29.5992 43.2912C30.395 43.2912 31.0529 43.4246 31.573 43.6913C32.0976 43.9536 32.5021 44.3181 32.7866 44.7849C33.0711 45.2517 33.2512 45.7851 33.3268 46.3853H31.6864C31.633 46.0474 31.5286 45.7451 31.373 45.4784C31.2218 45.2117 31.004 45.0027 30.7195 44.8516C30.4394 44.696 30.0749 44.6182 29.6259 44.6182C29.2391 44.6182 28.899 44.6916 28.6056 44.8383C28.3122 44.985 28.0677 45.2006 27.8721 45.4851C27.681 45.7696 27.5365 46.1163 27.4387 46.5253C27.3409 46.9343 27.292 47.4011 27.292 47.9257V48.6125C27.292 49.1459 27.3476 49.6194 27.4587 50.0328C27.5743 50.4462 27.7388 50.7952 27.9522 51.0797C28.17 51.3642 28.4345 51.5798 28.7457 51.7265C29.0569 51.8688 29.4081 51.9399 29.7993 51.9399C30.1816 51.9399 30.495 51.9088 30.7395 51.8466C30.984 51.7799 31.1774 51.7021 31.3196 51.6132C31.4663 51.5198 31.5797 51.4309 31.6597 51.3465V49.4193H29.6392V48.1724H33.3268ZM38.2012 53.2669C37.6678 53.2669 37.1854 53.1802 36.7542 53.0068C36.3275 52.829 35.9629 52.5823 35.6606 52.2667C35.3628 51.951 35.1338 51.5798 34.9738 51.1531C34.8138 50.7263 34.7338 50.2662 34.7338 49.7728V49.506C34.7338 48.9414 34.816 48.4302 34.9805 47.9723C35.145 47.5144 35.3739 47.1232 35.6673 46.7987C35.9607 46.4698 36.3075 46.2186 36.7076 46.0452C37.1076 45.8718 37.5411 45.7851 38.0079 45.7851C38.5235 45.7851 38.9748 45.8718 39.3615 46.0452C39.7483 46.2186 40.0683 46.4631 40.3217 46.7787C40.5796 47.0899 40.7707 47.4611 40.8952 47.8923C41.0241 48.3235 41.0886 48.7992 41.0886 49.3193V50.0061H35.5139V48.8525H39.5015V48.7258C39.4927 48.4369 39.4349 48.1657 39.3282 47.9123C39.2259 47.6589 39.0681 47.4544 38.8547 47.2988C38.6413 47.1432 38.3568 47.0654 38.0012 47.0654C37.7345 47.0654 37.4966 47.1232 37.2877 47.2388C37.0832 47.35 36.912 47.5122 36.7742 47.7256C36.6364 47.939 36.5297 48.1968 36.4542 48.4991C36.383 48.797 36.3475 49.1326 36.3475 49.506V49.7728C36.3475 50.0884 36.3897 50.3818 36.4742 50.653C36.5631 50.9197 36.692 51.1531 36.8609 51.3531C37.0299 51.5532 37.2343 51.711 37.4744 51.8266C37.7145 51.9377 37.9879 51.9933 38.2946 51.9933C38.6814 51.9933 39.0259 51.9155 39.3282 51.7599C39.6305 51.6043 39.8927 51.3842 40.115 51.0997L40.9619 51.9199C40.8063 52.1466 40.604 52.3645 40.3551 52.5734C40.1061 52.7779 39.8016 52.9446 39.4415 53.0735C39.0859 53.2025 38.6725 53.2669 38.2012 53.2669ZM43.9359 47.4589V53.1335H42.3289V45.9185H43.8426L43.9359 47.4589ZM43.6492 49.2593L43.1291 49.2526C43.1335 48.7414 43.2046 48.2724 43.3424 47.8456C43.4847 47.4189 43.6803 47.0521 43.9293 46.7454C44.1826 46.4386 44.4849 46.203 44.8361 46.0385C45.1873 45.8696 45.5785 45.7851 46.0097 45.7851C46.3565 45.7851 46.6699 45.834 46.95 45.9318C47.2345 46.0252 47.4768 46.1786 47.6768 46.392C47.8813 46.6053 48.0369 46.8832 48.1436 47.2255C48.2503 47.5633 48.3036 47.979 48.3036 48.4724V53.1335H46.6899V48.4658C46.6899 48.119 46.6388 47.8456 46.5365 47.6456C46.4387 47.4411 46.2943 47.2966 46.1031 47.2121C45.9164 47.1232 45.683 47.0788 45.4029 47.0788C45.1273 47.0788 44.8806 47.1366 44.6628 47.2522C44.4449 47.3677 44.2604 47.5256 44.1093 47.7256C43.9626 47.9257 43.8492 48.1568 43.7692 48.4191C43.6892 48.6814 43.6492 48.9615 43.6492 49.2593ZM53.1248 53.2669C52.5913 53.2669 52.109 53.1802 51.6777 53.0068C51.251 52.829 50.8864 52.5823 50.5842 52.2667C50.2863 51.951 50.0574 51.5798 49.8973 51.1531C49.7373 50.7263 49.6573 50.2662 49.6573 49.7728V49.506C49.6573 48.9414 49.7395 48.4302 49.904 47.9723C50.0685 47.5144 50.2974 47.1232 50.5908 46.7987C50.8842 46.4698 51.231 46.2186 51.6311 46.0452C52.0312 45.8718 52.4646 45.7851 52.9314 45.7851C53.4471 45.7851 53.8983 45.8718 54.285 46.0452C54.6718 46.2186 54.9919 46.4631 55.2453 46.7787C55.5031 47.0899 55.6942 47.4611 55.8187 47.8923C55.9476 48.3235 56.0121 48.7992 56.0121 49.3193V50.0061H50.4375V48.8525H54.4251V48.7258C54.4162 48.4369 54.3584 48.1657 54.2517 47.9123C54.1494 47.6589 53.9916 47.4544 53.7782 47.2988C53.5649 47.1432 53.2803 47.0654 52.9247 47.0654C52.658 47.0654 52.4201 47.1232 52.2112 47.2388C52.0067 47.35 51.8356 47.5122 51.6978 47.7256C51.5599 47.939 51.4532 48.1968 51.3777 48.4991C51.3065 48.797 51.271 49.1326 51.271 49.506V49.7728C51.271 50.0884 51.3132 50.3818 51.3977 50.653C51.4866 50.9197 51.6155 51.1531 51.7844 51.3531C51.9534 51.5532 52.1579 51.711 52.3979 51.8266C52.638 51.9377 52.9114 51.9933 53.2181 51.9933C53.6049 51.9933 53.9494 51.9155 54.2517 51.7599C54.554 51.6043 54.8163 51.3842 55.0385 51.0997L55.8854 51.9199C55.7298 52.1466 55.5275 52.3645 55.2786 52.5734C55.0296 52.7779 54.7251 52.9446 54.365 53.0735C54.0094 53.2025 53.596 53.2669 53.1248 53.2669ZM58.8794 47.2922V53.1335H57.2724V45.9185H58.8061L58.8794 47.2922ZM61.0866 45.8718L61.0733 47.3655C60.9755 47.3477 60.8688 47.3344 60.7532 47.3255C60.6421 47.3166 60.5309 47.3122 60.4198 47.3122C60.1442 47.3122 59.9019 47.3522 59.693 47.4322C59.484 47.5078 59.3084 47.6189 59.1662 47.7656C59.0284 47.9079 58.9217 48.0812 58.8461 48.2857C58.7705 48.4902 58.7261 48.7192 58.7127 48.9726L58.346 48.9992C58.346 48.5458 58.3904 48.1257 58.4794 47.7389C58.5683 47.3522 58.7016 47.0121 58.8794 46.7187C59.0617 46.4253 59.2884 46.1964 59.5596 46.0319C59.8352 45.8674 60.1531 45.7851 60.5132 45.7851C60.611 45.7851 60.7154 45.794 60.8266 45.8118C60.9422 45.8296 61.0288 45.8496 61.0866 45.8718ZM65.9211 51.6865V48.2457C65.9211 47.9879 65.8744 47.7656 65.7811 47.5789C65.6877 47.3922 65.5455 47.2477 65.3543 47.1455C65.1676 47.0432 64.932 46.9921 64.6475 46.9921C64.3852 46.9921 64.1585 47.0366 63.9673 47.1255C63.7762 47.2144 63.6272 47.3344 63.5205 47.4855C63.4138 47.6367 63.3605 47.8078 63.3605 47.999H61.7601C61.7601 47.7145 61.829 47.4389 61.9668 47.1721C62.1047 46.9054 62.3047 46.6676 62.567 46.4586C62.8293 46.2497 63.1427 46.0852 63.5072 45.9652C63.8717 45.8452 64.2807 45.7851 64.7342 45.7851C65.2765 45.7851 65.7566 45.8763 66.1745 46.0585C66.5968 46.2408 66.928 46.5164 67.1681 46.8854C67.4126 47.2499 67.5348 47.7078 67.5348 48.2591V51.4665C67.5348 51.7955 67.557 52.0911 67.6015 52.3534C67.6504 52.6112 67.7193 52.8357 67.8082 53.0269V53.1335H66.1612C66.0856 52.9602 66.0256 52.7401 65.9811 52.4734C65.9411 52.2022 65.9211 51.9399 65.9211 51.6865ZM66.1545 48.7458L66.1678 49.7394H65.0142C64.7164 49.7394 64.4541 49.7683 64.2274 49.8261C64.0007 49.8794 63.8117 49.9595 63.6606 50.0662C63.5094 50.1728 63.3961 50.3018 63.3205 50.4529C63.2449 50.6041 63.2071 50.7752 63.2071 50.9664C63.2071 51.1575 63.2516 51.3331 63.3405 51.4932C63.4294 51.6488 63.5583 51.771 63.7273 51.8599C63.9006 51.9488 64.1096 51.9933 64.3541 51.9933C64.683 51.9933 64.9698 51.9266 65.2143 51.7932C65.4632 51.6554 65.6588 51.4887 65.8011 51.2931C65.9433 51.0931 66.0189 50.9041 66.0278 50.7263L66.5479 51.4398C66.4946 51.6221 66.4034 51.8177 66.2745 52.0266C66.1456 52.2356 65.9767 52.4356 65.7677 52.6268C65.5632 52.8135 65.3165 52.9668 65.0276 53.0869C64.7431 53.2069 64.4141 53.2669 64.0407 53.2669C63.5694 53.2669 63.1493 53.1736 62.7804 52.9868C62.4114 52.7957 62.1224 52.5401 61.9135 52.22C61.7046 51.8955 61.6001 51.5287 61.6001 51.1197C61.6001 50.7374 61.6712 50.3996 61.8135 50.1062C61.9602 49.8083 62.1736 49.5594 62.4536 49.3593C62.7381 49.1593 63.0849 49.0081 63.4939 48.9059C63.9029 48.7992 64.3696 48.7458 64.8942 48.7458H66.1545ZM72.5227 45.9185V47.0921H68.455V45.9185H72.5227ZM69.6286 44.1514H71.2357V51.1397C71.2357 51.362 71.2668 51.5332 71.329 51.6532C71.3957 51.7688 71.4869 51.8466 71.6024 51.8866C71.718 51.9266 71.8536 51.9466 72.0092 51.9466C72.1203 51.9466 72.227 51.9399 72.3293 51.9266C72.4315 51.9133 72.5138 51.8999 72.576 51.8866L72.5827 53.1135C72.4493 53.1535 72.2937 53.1891 72.1159 53.2202C71.9425 53.2514 71.7425 53.2669 71.5158 53.2669C71.1468 53.2669 70.82 53.2025 70.5355 53.0735C70.251 52.9402 70.0287 52.7246 69.8687 52.4267C69.7087 52.1289 69.6286 51.7332 69.6286 51.2398V44.1514ZM75.4834 45.9185V53.1335H73.8696V45.9185H75.4834ZM73.763 44.0247C73.763 43.7802 73.843 43.578 74.003 43.4179C74.1675 43.2534 74.3942 43.1712 74.6832 43.1712C74.9677 43.1712 75.1922 43.2534 75.3567 43.4179C75.5211 43.578 75.6034 43.7802 75.6034 44.0247C75.6034 44.2648 75.5211 44.4648 75.3567 44.6249C75.1922 44.7849 74.9677 44.8649 74.6832 44.8649C74.3942 44.8649 74.1675 44.7849 74.003 44.6249C73.843 44.4648 73.763 44.2648 73.763 44.0247ZM78.8375 47.4589V53.1335H77.2304V45.9185H78.7441L78.8375 47.4589ZM78.5507 49.2593L78.0306 49.2526C78.0351 48.7414 78.1062 48.2724 78.244 47.8456C78.3863 47.4189 78.5819 47.0521 78.8308 46.7454C79.0842 46.4386 79.3865 46.203 79.7377 46.0385C80.0889 45.8696 80.4801 45.7851 80.9113 45.7851C81.2581 45.7851 81.5715 45.834 81.8515 45.9318C82.136 46.0252 82.3783 46.1786 82.5784 46.392C82.7829 46.6053 82.9384 46.8832 83.0451 47.2255C83.1518 47.5633 83.2052 47.979 83.2052 48.4724V53.1335H81.5915V48.4658C81.5915 48.119 81.5403 47.8456 81.4381 47.6456C81.3403 47.4411 81.1958 47.2966 81.0047 47.2121C80.8179 47.1232 80.5846 47.0788 80.3045 47.0788C80.0289 47.0788 79.7821 47.1366 79.5643 47.2522C79.3465 47.3677 79.162 47.5256 79.0109 47.7256C78.8642 47.9257 78.7508 48.1568 78.6708 48.4191C78.5908 48.6814 78.5507 48.9615 78.5507 49.2593ZM89.4667 45.9185H90.927V52.9335C90.927 53.5825 90.7892 54.1338 90.5136 54.5872C90.2379 55.0407 89.8534 55.3852 89.36 55.6208C88.8665 55.8609 88.2953 55.9809 87.6462 55.9809C87.3706 55.9809 87.0639 55.9409 86.726 55.8609C86.3926 55.7808 86.0681 55.6519 85.7524 55.4741C85.4413 55.3007 85.1812 55.0718 84.9723 54.7873L85.7258 53.8404C85.9836 54.1471 86.2681 54.3716 86.5793 54.5139C86.8905 54.6561 87.2172 54.7273 87.5595 54.7273C87.9285 54.7273 88.2419 54.6583 88.4998 54.5205C88.762 54.3872 88.9643 54.1893 89.1066 53.9271C89.2488 53.6648 89.32 53.3447 89.32 52.9668V47.5522L89.4667 45.9185ZM84.5655 49.606V49.466C84.5655 48.9192 84.6322 48.4213 84.7655 47.9723C84.8989 47.5189 85.0901 47.1299 85.339 46.8054C85.588 46.4764 85.8903 46.2252 86.2459 46.0519C86.6015 45.8741 87.0039 45.7851 87.4528 45.7851C87.9196 45.7851 88.3175 45.8696 88.6465 46.0385C88.9799 46.2075 89.2577 46.4497 89.48 46.7654C89.7023 47.0766 89.8756 47.45 90.0001 47.8856C90.129 48.3169 90.2246 48.797 90.2868 49.326V49.7728C90.2291 50.2884 90.1313 50.7597 89.9934 51.1864C89.8556 51.6132 89.6734 51.9822 89.4466 52.2933C89.2199 52.6045 88.9399 52.8446 88.6065 53.0135C88.2775 53.1824 87.8885 53.2669 87.4395 53.2669C86.9994 53.2669 86.6015 53.1758 86.2459 52.9935C85.8947 52.8112 85.5924 52.5556 85.339 52.2267C85.0901 51.8977 84.8989 51.5109 84.7655 51.0664C84.6322 50.6174 84.5655 50.1306 84.5655 49.606ZM86.1725 49.466V49.606C86.1725 49.935 86.2037 50.2418 86.2659 50.5263C86.3326 50.8108 86.4326 51.0619 86.566 51.2798C86.7038 51.4932 86.8772 51.6621 87.0861 51.7866C87.2995 51.9066 87.5506 51.9666 87.8396 51.9666C88.2175 51.9666 88.5264 51.8866 88.7665 51.7265C89.011 51.5665 89.1977 51.3509 89.3266 51.0797C89.46 50.8041 89.5533 50.4974 89.6067 50.1595V48.9526C89.58 48.6903 89.5244 48.4458 89.44 48.2191C89.36 47.9923 89.251 47.7945 89.1132 47.6256C88.9754 47.4522 88.8021 47.3188 88.5931 47.2255C88.3842 47.1277 88.1375 47.0788 87.8529 47.0788C87.564 47.0788 87.3128 47.141 87.0994 47.2655C86.886 47.39 86.7104 47.5611 86.5726 47.7789C86.4393 47.9968 86.3393 48.2502 86.2726 48.5391C86.2059 48.8281 86.1725 49.137 86.1725 49.466ZM99.3023 45.9185V47.0921H95.2347V45.9185H99.3023ZM96.4083 44.1514H98.0153V51.1397C98.0153 51.362 98.0465 51.5332 98.1087 51.6532C98.1754 51.7688 98.2665 51.8466 98.3821 51.8866C98.4977 51.9266 98.6333 51.9466 98.7889 51.9466C98.9 51.9466 99.0067 51.9399 99.1089 51.9266C99.2112 51.9133 99.2934 51.8999 99.3557 51.8866L99.3623 53.1135C99.229 53.1535 99.0734 53.1891 98.8955 53.2202C98.7222 53.2514 98.5221 53.2669 98.2954 53.2669C97.9264 53.2669 97.5997 53.2025 97.3152 53.0735C97.0307 52.9402 96.8084 52.7246 96.6483 52.4267C96.4883 52.1289 96.4083 51.7332 96.4083 51.2398V44.1514ZM102.13 42.8911V53.1335H100.529V42.8911H102.13ZM101.85 49.2593L101.329 49.2526C101.334 48.7547 101.403 48.2946 101.536 47.8723C101.674 47.45 101.865 47.0832 102.11 46.772C102.359 46.4564 102.656 46.2141 103.003 46.0452C103.35 45.8718 103.734 45.7851 104.157 45.7851C104.512 45.7851 104.832 45.834 105.117 45.9318C105.406 46.0296 105.655 46.1875 105.864 46.4053C106.073 46.6187 106.231 46.8987 106.337 47.2455C106.448 47.5878 106.504 48.0057 106.504 48.4991V53.1335H104.89V48.4858C104.89 48.139 104.839 47.8634 104.737 47.6589C104.639 47.4544 104.495 47.3077 104.303 47.2188C104.112 47.1255 103.879 47.0788 103.603 47.0788C103.314 47.0788 103.059 47.1366 102.836 47.2522C102.619 47.3677 102.436 47.5256 102.29 47.7256C102.143 47.9257 102.032 48.1568 101.956 48.4191C101.885 48.6814 101.85 48.9615 101.85 49.2593ZM109.851 45.9185V53.1335H108.238V45.9185H109.851ZM108.131 44.0247C108.131 43.7802 108.211 43.578 108.371 43.4179C108.536 43.2534 108.762 43.1712 109.051 43.1712C109.336 43.1712 109.56 43.2534 109.725 43.4179C109.889 43.578 109.971 43.7802 109.971 44.0247C109.971 44.2648 109.889 44.4648 109.725 44.6249C109.56 44.7849 109.336 44.8649 109.051 44.8649C108.762 44.8649 108.536 44.7849 108.371 44.6249C108.211 44.4648 108.131 44.2648 108.131 44.0247ZM115.659 51.1798C115.659 51.0197 115.619 50.8752 115.539 50.7463C115.459 50.613 115.306 50.4929 115.079 50.3862C114.857 50.2795 114.528 50.1817 114.092 50.0928C113.71 50.0084 113.359 49.9083 113.039 49.7928C112.723 49.6727 112.452 49.5283 112.225 49.3593C111.999 49.1904 111.823 48.9903 111.699 48.7592C111.574 48.528 111.512 48.2613 111.512 47.959C111.512 47.6656 111.576 47.3877 111.705 47.1255C111.834 46.8632 112.019 46.632 112.259 46.432C112.499 46.2319 112.79 46.0741 113.132 45.9585C113.479 45.8429 113.866 45.7851 114.293 45.7851C114.897 45.7851 115.415 45.8874 115.846 46.0919C116.282 46.2919 116.615 46.5653 116.846 46.9121C117.078 47.2544 117.193 47.6411 117.193 48.0724H115.586C115.586 47.8812 115.537 47.7034 115.439 47.5389C115.346 47.37 115.204 47.2344 115.013 47.1321C114.822 47.0254 114.581 46.9721 114.293 46.9721C114.017 46.9721 113.788 47.0165 113.606 47.1055C113.428 47.1899 113.294 47.3011 113.206 47.4389C113.121 47.5767 113.079 47.7278 113.079 47.8923C113.079 48.0123 113.101 48.1213 113.146 48.2191C113.194 48.3124 113.274 48.3991 113.386 48.4791C113.497 48.5547 113.648 48.6258 113.839 48.6925C114.035 48.7592 114.279 48.8236 114.573 48.8859C115.124 49.0015 115.597 49.1504 115.993 49.3326C116.393 49.5105 116.7 49.7416 116.913 50.0261C117.127 50.3062 117.233 50.6619 117.233 51.0931C117.233 51.4131 117.164 51.7065 117.026 51.9733C116.893 52.2356 116.698 52.4645 116.44 52.6601C116.182 52.8513 115.873 53.0002 115.513 53.1069C115.157 53.2136 114.757 53.2669 114.313 53.2669C113.659 53.2669 113.106 53.1513 112.652 52.9202C112.199 52.6846 111.854 52.3845 111.619 52.0199C111.387 51.651 111.272 51.2687 111.272 50.873H112.825C112.843 51.1709 112.926 51.4087 113.072 51.5865C113.223 51.7599 113.41 51.8866 113.632 51.9666C113.859 52.0422 114.092 52.08 114.333 52.08C114.621 52.08 114.864 52.0422 115.059 51.9666C115.255 51.8866 115.404 51.7799 115.506 51.6465C115.608 51.5087 115.659 51.3531 115.659 51.1798ZM126.109 51.6865V48.2457C126.109 47.9879 126.062 47.7656 125.969 47.5789C125.875 47.3922 125.733 47.2477 125.542 47.1455C125.355 47.0432 125.12 46.9921 124.835 46.9921C124.573 46.9921 124.346 47.0366 124.155 47.1255C123.964 47.2144 123.815 47.3344 123.708 47.4855C123.601 47.6367 123.548 47.8078 123.548 47.999H121.948C121.948 47.7145 122.017 47.4389 122.154 47.1721C122.292 46.9054 122.492 46.6676 122.755 46.4586C123.017 46.2497 123.33 46.0852 123.695 45.9652C124.059 45.8452 124.468 45.7851 124.922 45.7851C125.464 45.7851 125.944 45.8763 126.362 46.0585C126.784 46.2408 127.116 46.5164 127.356 46.8854C127.6 47.2499 127.722 47.7078 127.722 48.2591V51.4665C127.722 51.7955 127.745 52.0911 127.789 52.3534C127.838 52.6112 127.907 52.8357 127.996 53.0269V53.1335H126.349C126.273 52.9602 126.213 52.7401 126.169 52.4734C126.129 52.2022 126.109 51.9399 126.109 51.6865ZM126.342 48.7458L126.355 49.7394H125.202C124.904 49.7394 124.642 49.7683 124.415 49.8261C124.188 49.8794 123.999 49.9595 123.848 50.0662C123.697 50.1728 123.584 50.3018 123.508 50.4529C123.432 50.6041 123.395 50.7752 123.395 50.9664C123.395 51.1575 123.439 51.3331 123.528 51.4932C123.617 51.6488 123.746 51.771 123.915 51.8599C124.088 51.9488 124.297 51.9933 124.542 51.9933C124.871 51.9933 125.157 51.9266 125.402 51.7932C125.651 51.6554 125.846 51.4887 125.989 51.2931C126.131 51.0931 126.206 50.9041 126.215 50.7263L126.735 51.4398C126.682 51.6221 126.591 51.8177 126.462 52.0266C126.333 52.2356 126.164 52.4356 125.955 52.6268C125.751 52.8135 125.504 52.9668 125.215 53.0869C124.931 53.2069 124.602 53.2669 124.228 53.2669C123.757 53.2669 123.337 53.1736 122.968 52.9868C122.599 52.7957 122.31 52.5401 122.101 52.22C121.892 51.8955 121.788 51.5287 121.788 51.1197C121.788 50.7374 121.859 50.3996 122.001 50.1062C122.148 49.8083 122.361 49.5594 122.641 49.3593C122.926 49.1593 123.272 49.0081 123.681 48.9059C124.09 48.7992 124.557 48.7458 125.082 48.7458H126.342ZM133.804 51.6399V42.8911H135.417V53.1335H133.957L133.804 51.6399ZM129.109 49.606V49.466C129.109 48.9192 129.174 48.4213 129.303 47.9723C129.432 47.5189 129.618 47.1299 129.863 46.8054C130.107 46.4764 130.405 46.2252 130.756 46.0519C131.108 45.8741 131.503 45.7851 131.943 45.7851C132.379 45.7851 132.761 45.8696 133.09 46.0385C133.419 46.2075 133.699 46.4497 133.93 46.7654C134.162 47.0766 134.346 47.45 134.484 47.8856C134.622 48.3169 134.72 48.797 134.777 49.326V49.7728C134.72 50.2884 134.622 50.7597 134.484 51.1864C134.346 51.6132 134.162 51.9822 133.93 52.2933C133.699 52.6045 133.417 52.8446 133.084 53.0135C132.755 53.1824 132.37 53.2669 131.93 53.2669C131.494 53.2669 131.101 53.1758 130.75 52.9935C130.403 52.8112 130.107 52.5556 129.863 52.2267C129.618 51.8977 129.432 51.5109 129.303 51.0664C129.174 50.6174 129.109 50.1306 129.109 49.606ZM130.716 49.466V49.606C130.716 49.935 130.745 50.2418 130.803 50.5263C130.865 50.8108 130.961 51.0619 131.09 51.2798C131.219 51.4932 131.385 51.6621 131.59 51.7866C131.799 51.9066 132.048 51.9666 132.337 51.9666C132.701 51.9666 133.001 51.8866 133.237 51.7265C133.473 51.5665 133.657 51.3509 133.79 51.0797C133.928 50.8041 134.022 50.4974 134.071 50.1595V48.9526C134.044 48.6903 133.988 48.4458 133.904 48.2191C133.824 47.9923 133.715 47.7945 133.577 47.6256C133.439 47.4522 133.268 47.3188 133.064 47.2255C132.864 47.1277 132.626 47.0788 132.35 47.0788C132.057 47.0788 131.808 47.141 131.603 47.2655C131.399 47.39 131.23 47.5611 131.096 47.7789C130.968 47.9968 130.872 48.2502 130.81 48.5391C130.747 48.8281 130.716 49.137 130.716 49.466ZM140.192 49.606V49.4527C140.192 48.9326 140.268 48.4502 140.419 48.0057C140.57 47.5567 140.788 47.1677 141.072 46.8387C141.361 46.5053 141.712 46.2475 142.126 46.0652C142.544 45.8785 143.015 45.7851 143.539 45.7851C144.068 45.7851 144.54 45.8785 144.953 46.0652C145.371 46.2475 145.724 46.5053 146.013 46.8387C146.302 47.1677 146.522 47.5567 146.673 48.0057C146.825 48.4502 146.9 48.9326 146.9 49.4527V49.606C146.9 50.1262 146.825 50.6085 146.673 51.0531C146.522 51.4976 146.302 51.8866 146.013 52.22C145.724 52.549 145.373 52.8068 144.96 52.9935C144.546 53.1758 144.077 53.2669 143.553 53.2669C143.024 53.2669 142.55 53.1758 142.132 52.9935C141.719 52.8068 141.368 52.549 141.079 52.22C140.79 51.8866 140.57 51.4976 140.419 51.0531C140.268 50.6085 140.192 50.1262 140.192 49.606ZM141.799 49.4527V49.606C141.799 49.9306 141.832 50.2373 141.899 50.5263C141.966 50.8152 142.07 51.0686 142.212 51.2864C142.355 51.5043 142.537 51.6754 142.759 51.7999C142.981 51.9244 143.246 51.9866 143.553 51.9866C143.851 51.9866 144.108 51.9244 144.326 51.7999C144.549 51.6754 144.731 51.5043 144.873 51.2864C145.015 51.0686 145.12 50.8152 145.186 50.5263C145.258 50.2373 145.293 49.9306 145.293 49.606V49.4527C145.293 49.1326 145.258 48.8303 145.186 48.5458C145.12 48.2568 145.013 48.0012 144.866 47.7789C144.724 47.5567 144.542 47.3833 144.32 47.2588C144.102 47.1299 143.842 47.0654 143.539 47.0654C143.237 47.0654 142.975 47.1299 142.753 47.2588C142.535 47.3833 142.355 47.5567 142.212 47.7789C142.07 48.0012 141.966 48.2568 141.899 48.5458C141.832 48.8303 141.799 49.1326 141.799 49.4527ZM149.841 47.4589V53.1335H148.234V45.9185H149.748L149.841 47.4589ZM149.554 49.2593L149.034 49.2526C149.038 48.7414 149.11 48.2724 149.247 47.8456C149.39 47.4189 149.585 47.0521 149.834 46.7454C150.088 46.4386 150.39 46.203 150.741 46.0385C151.092 45.8696 151.483 45.7851 151.915 45.7851C152.261 45.7851 152.575 45.834 152.855 45.9318C153.139 46.0252 153.382 46.1786 153.582 46.392C153.786 46.6053 153.942 46.8832 154.049 47.2255C154.155 47.5633 154.209 47.979 154.209 48.4724V53.1335H152.595V48.4658C152.595 48.119 152.544 47.8456 152.442 47.6456C152.344 47.4411 152.199 47.2966 152.008 47.2121C151.821 47.1232 151.588 47.0788 151.308 47.0788C151.032 47.0788 150.786 47.1366 150.568 47.2522C150.35 47.3677 150.165 47.5256 150.014 47.7256C149.868 47.9257 149.754 48.1568 149.674 48.4191C149.594 48.6814 149.554 48.9615 149.554 49.2593ZM158.943 49.606V49.4527C158.943 48.9326 159.019 48.4502 159.17 48.0057C159.321 47.5567 159.539 47.1677 159.823 46.8387C160.112 46.5053 160.463 46.2475 160.877 46.0652C161.295 45.8785 161.766 45.7851 162.29 45.7851C162.82 45.7851 163.291 45.8785 163.704 46.0652C164.122 46.2475 164.475 46.5053 164.764 46.8387C165.053 47.1677 165.273 47.5567 165.425 48.0057C165.576 48.4502 165.651 48.9326 165.651 49.4527V49.606C165.651 50.1262 165.576 50.6085 165.425 51.0531C165.273 51.4976 165.053 51.8866 164.764 52.22C164.475 52.549 164.124 52.8068 163.711 52.9935C163.297 53.1758 162.828 53.2669 162.304 53.2669C161.775 53.2669 161.301 53.1758 160.883 52.9935C160.47 52.8068 160.119 52.549 159.83 52.22C159.541 51.8866 159.321 51.4976 159.17 51.0531C159.019 50.6085 158.943 50.1262 158.943 49.606ZM160.55 49.4527V49.606C160.55 49.9306 160.583 50.2373 160.65 50.5263C160.717 50.8152 160.821 51.0686 160.964 51.2864C161.106 51.5043 161.288 51.6754 161.51 51.7999C161.733 51.9244 161.997 51.9866 162.304 51.9866C162.602 51.9866 162.86 51.9244 163.077 51.7999C163.3 51.6754 163.482 51.5043 163.624 51.2864C163.766 51.0686 163.871 50.8152 163.938 50.5263C164.009 50.2373 164.044 49.9306 164.044 49.606V49.4527C164.044 49.1326 164.009 48.8303 163.938 48.5458C163.871 48.2568 163.764 48.0012 163.617 47.7789C163.475 47.5567 163.293 47.3833 163.071 47.2588C162.853 47.1299 162.593 47.0654 162.29 47.0654C161.988 47.0654 161.726 47.1299 161.504 47.2588C161.286 47.3833 161.106 47.5567 160.964 47.7789C160.821 48.0012 160.717 48.2568 160.65 48.5458C160.583 48.8303 160.55 49.1326 160.55 49.4527ZM171.339 51.4331V45.9185H172.953V53.1335H171.433L171.339 51.4331ZM171.566 49.9328L172.106 49.9195C172.106 50.404 172.053 50.8508 171.946 51.2598C171.839 51.6643 171.675 52.0177 171.453 52.32C171.23 52.6179 170.946 52.8513 170.599 53.0202C170.252 53.1847 169.837 53.2669 169.352 53.2669C169.001 53.2669 168.679 53.2158 168.385 53.1135C168.092 53.0113 167.838 52.8535 167.625 52.6401C167.416 52.4267 167.254 52.1489 167.138 51.8066C167.023 51.4643 166.965 51.0553 166.965 50.5796V45.9185H168.572V50.5929C168.572 50.8552 168.603 51.0753 168.665 51.2531C168.728 51.4265 168.812 51.5665 168.919 51.6732C169.025 51.7799 169.15 51.8555 169.292 51.8999C169.434 51.9444 169.586 51.9666 169.746 51.9666C170.203 51.9666 170.564 51.8777 170.826 51.6999C171.093 51.5176 171.281 51.2731 171.393 50.9664C171.508 50.6596 171.566 50.3151 171.566 49.9328ZM176.214 47.2922V53.1335H174.607V45.9185H176.14L176.214 47.2922ZM178.421 45.8718L178.408 47.3655C178.31 47.3477 178.203 47.3344 178.088 47.3255C177.976 47.3166 177.865 47.3122 177.754 47.3122C177.479 47.3122 177.236 47.3522 177.027 47.4322C176.818 47.5078 176.643 47.6189 176.501 47.7656C176.363 47.9079 176.256 48.0812 176.18 48.2857C176.105 48.4902 176.06 48.7192 176.047 48.9726L175.68 48.9992C175.68 48.5458 175.725 48.1257 175.814 47.7389C175.903 47.3522 176.036 47.0121 176.214 46.7187C176.396 46.4253 176.623 46.1964 176.894 46.0319C177.17 45.8674 177.487 45.7851 177.847 45.7851C177.945 45.7851 178.05 45.794 178.161 45.8118C178.276 45.8296 178.363 45.8496 178.421 45.8718ZM27.3253 63.3055V71.9075H25.7183V61.9185H27.1986L27.3253 63.3055ZM32.0264 65.4593V65.5994C32.0264 66.1239 31.9642 66.6107 31.8397 67.0597C31.7197 67.5043 31.5397 67.8933 31.2996 68.2267C31.064 68.5556 30.7728 68.8112 30.4261 68.9935C30.0793 69.1758 29.6792 69.2669 29.2258 69.2669C28.7768 69.2669 28.3834 69.1847 28.0455 69.0202C27.7121 68.8513 27.4298 68.6134 27.1986 68.3067C26.9675 67.9999 26.7808 67.6399 26.6385 67.2264C26.5007 66.8086 26.4029 66.3507 26.3451 65.8528V65.3126C26.4029 64.7836 26.5007 64.3035 26.6385 63.8723C26.7808 63.4411 26.9675 63.0699 27.1986 62.7587C27.4298 62.4475 27.7121 62.2075 28.0455 62.0385C28.3789 61.8696 28.7679 61.7851 29.2125 61.7851C29.6659 61.7851 30.0682 61.8741 30.4194 62.0519C30.7706 62.2252 31.0662 62.4742 31.3063 62.7987C31.5463 63.1188 31.7264 63.5056 31.8464 63.959C31.9664 64.408 32.0264 64.9081 32.0264 65.4593ZM30.4194 65.5994V65.4593C30.4194 65.1259 30.3883 64.817 30.326 64.5325C30.2638 64.2435 30.166 63.9901 30.0326 63.7723C29.8993 63.5545 29.7281 63.3855 29.5192 63.2655C29.3147 63.141 29.068 63.0788 28.779 63.0788C28.4945 63.0788 28.25 63.1277 28.0455 63.2255C27.841 63.3188 27.6699 63.45 27.5321 63.6189C27.3942 63.7878 27.2876 63.9857 27.212 64.2124C27.1364 64.4347 27.0831 64.6769 27.0519 64.9392V66.2329C27.1053 66.5529 27.1964 66.8463 27.3253 67.1131C27.4543 67.3798 27.6365 67.5932 27.8721 67.7532C28.1122 67.9088 28.4189 67.9866 28.7924 67.9866C29.0813 67.9866 29.328 67.9244 29.5325 67.7999C29.737 67.6754 29.9037 67.5043 30.0326 67.2864C30.166 67.0642 30.2638 66.8086 30.326 66.5196C30.3883 66.2306 30.4194 65.9239 30.4194 65.5994ZM35.1138 58.8911V69.1335H33.5001V58.8911H35.1138ZM40.9419 67.6865V64.2457C40.9419 63.9879 40.8952 63.7656 40.8019 63.5789C40.7085 63.3922 40.5662 63.2477 40.3751 63.1455C40.1884 63.0432 39.9528 62.9921 39.6683 62.9921C39.406 62.9921 39.1792 63.0366 38.9881 63.1255C38.7969 63.2144 38.648 63.3344 38.5413 63.4855C38.4346 63.6367 38.3813 63.8078 38.3813 63.999H36.7809C36.7809 63.7145 36.8498 63.4389 36.9876 63.1721C37.1254 62.9054 37.3255 62.6676 37.5878 62.4586C37.85 62.2497 38.1635 62.0852 38.528 61.9652C38.8925 61.8452 39.3015 61.7851 39.7549 61.7851C40.2973 61.7851 40.7774 61.8763 41.1953 62.0585C41.6176 62.2408 41.9488 62.5164 42.1888 62.8854C42.4333 63.2499 42.5556 63.7078 42.5556 64.2591V67.4665C42.5556 67.7955 42.5778 68.0911 42.6223 68.3534C42.6712 68.6112 42.7401 68.8357 42.829 69.0269V69.1335H41.1819C41.1064 68.9602 41.0464 68.7401 41.0019 68.4734C40.9619 68.2022 40.9419 67.9399 40.9419 67.6865ZM41.1753 64.7458L41.1886 65.7394H40.035C39.7372 65.7394 39.4749 65.7683 39.2482 65.8261C39.0214 65.8794 38.8325 65.9595 38.6814 66.0662C38.5302 66.1728 38.4168 66.3018 38.3413 66.4529C38.2657 66.6041 38.2279 66.7752 38.2279 66.9664C38.2279 67.1575 38.2724 67.3331 38.3613 67.4932C38.4502 67.6488 38.5791 67.771 38.748 67.8599C38.9214 67.9488 39.1303 67.9933 39.3748 67.9933C39.7038 67.9933 39.9905 67.9266 40.2351 67.7932C40.484 67.6554 40.6796 67.4887 40.8219 67.2931C40.9641 67.0931 41.0397 66.9041 41.0486 66.7263L41.5687 67.4398C41.5154 67.6221 41.4242 67.8177 41.2953 68.0266C41.1664 68.2356 40.9975 68.4356 40.7885 68.6268C40.584 68.8135 40.3373 68.9668 40.0483 69.0869C39.7638 69.2069 39.4349 69.2669 39.0614 69.2669C38.5902 69.2669 38.1701 69.1736 37.8011 68.9868C37.4322 68.7957 37.1432 68.5401 36.9343 68.22C36.7253 67.8955 36.6209 67.5287 36.6209 67.1197C36.6209 66.7374 36.692 66.3996 36.8342 66.1062C36.981 65.8083 37.1943 65.5594 37.4744 65.3593C37.7589 65.1593 38.1057 65.0081 38.5146 64.9059C38.9236 64.7992 39.3904 64.7458 39.915 64.7458H41.1753ZM47.5434 61.9185V63.0921H43.4758V61.9185H47.5434ZM44.6494 60.1514H46.2565V67.1397C46.2565 67.362 46.2876 67.5332 46.3498 67.6532C46.4165 67.7688 46.5076 67.8466 46.6232 67.8866C46.7388 67.9266 46.8744 67.9466 47.03 67.9466C47.1411 67.9466 47.2478 67.9399 47.3501 67.9266C47.4523 67.9133 47.5345 67.8999 47.5968 67.8866L47.6035 69.1135C47.4701 69.1535 47.3145 69.1891 47.1367 69.2202C46.9633 69.2514 46.7633 69.2669 46.5365 69.2669C46.1676 69.2669 45.8408 69.2025 45.5563 69.0735C45.2718 68.9402 45.0495 68.7246 44.8895 68.4267C44.7294 68.1289 44.6494 67.7332 44.6494 67.2398V60.1514ZM50.9576 69.1335H49.3505V61.225C49.3505 60.6871 49.4506 60.2359 49.6506 59.8714C49.8551 59.5024 50.1463 59.2245 50.5241 59.0378C50.902 58.8467 51.3488 58.7511 51.8645 58.7511C52.0245 58.7511 52.1823 58.7622 52.3379 58.7844C52.4935 58.8022 52.6446 58.8311 52.7913 58.8711L52.7513 60.1114C52.6624 60.0892 52.5646 60.0736 52.4579 60.0647C52.3557 60.0558 52.2445 60.0514 52.1245 60.0514C51.88 60.0514 51.6689 60.0981 51.491 60.1914C51.3177 60.2803 51.1843 60.4115 51.0909 60.5849C51.002 60.7582 50.9576 60.9716 50.9576 61.225V69.1335ZM52.4446 61.9185V63.0921H48.2436V61.9185H52.4446ZM53.3048 65.606V65.4527C53.3048 64.9326 53.3804 64.4502 53.5315 64.0057C53.6827 63.5567 53.9005 63.1677 54.185 62.8387C54.474 62.5053 54.8252 62.2475 55.2386 62.0652C55.6565 61.8785 56.1277 61.7851 56.6523 61.7851C57.1813 61.7851 57.6525 61.8785 58.0659 62.0652C58.4838 62.2475 58.8372 62.5053 59.1262 62.8387C59.4151 63.1677 59.6352 63.5567 59.7863 64.0057C59.9375 64.4502 60.013 64.9326 60.013 65.4527V65.606C60.013 66.1262 59.9375 66.6085 59.7863 67.0531C59.6352 67.4976 59.4151 67.8866 59.1262 68.22C58.8372 68.549 58.486 68.8068 58.0726 68.9935C57.6592 69.1758 57.1902 69.2669 56.6656 69.2669C56.1366 69.2669 55.6631 69.1758 55.2453 68.9935C54.8318 68.8068 54.4806 68.549 54.1917 68.22C53.9027 67.8866 53.6827 67.4976 53.5315 67.0531C53.3804 66.6085 53.3048 66.1262 53.3048 65.606ZM54.9118 65.4527V65.606C54.9118 65.9306 54.9452 66.2373 55.0119 66.5263C55.0785 66.8152 55.183 67.0686 55.3253 67.2864C55.4675 67.5043 55.6498 67.6754 55.8721 67.7999C56.0943 67.9244 56.3589 67.9866 56.6656 67.9866C56.9634 67.9866 57.2213 67.9244 57.4391 67.7999C57.6614 67.6754 57.8436 67.5043 57.9859 67.2864C58.1282 67.0686 58.2326 66.8152 58.2993 66.5263C58.3704 66.2373 58.406 65.9306 58.406 65.606V65.4527C58.406 65.1326 58.3704 64.8303 58.2993 64.5458C58.2326 64.2568 58.1259 64.0012 57.9792 63.7789C57.837 63.5567 57.6547 63.3833 57.4324 63.2588C57.2146 63.1299 56.9545 63.0654 56.6523 63.0654C56.35 63.0654 56.0877 63.1299 55.8654 63.2588C55.6476 63.3833 55.4675 63.5567 55.3253 63.7789C55.183 64.0012 55.0785 64.2568 55.0119 64.5458C54.9452 64.8303 54.9118 65.1326 54.9118 65.4527ZM62.9737 63.2922V69.1335H61.3667V61.9185H62.9004L62.9737 63.2922ZM65.1809 61.8718L65.1676 63.3655C65.0698 63.3477 64.9631 63.3344 64.8475 63.3255C64.7364 63.3166 64.6252 63.3122 64.5141 63.3122C64.2385 63.3122 63.9962 63.3522 63.7873 63.4322C63.5783 63.5078 63.4027 63.6189 63.2605 63.7656C63.1227 63.9079 63.016 64.0812 62.9404 64.2857C62.8648 64.4902 62.8204 64.7192 62.807 64.9726L62.4403 64.9992C62.4403 64.5458 62.4847 64.1257 62.5736 63.7389C62.6626 63.3522 62.7959 63.0121 62.9737 62.7187C63.156 62.4253 63.3827 62.1964 63.6539 62.0319C63.9295 61.8674 64.2474 61.7851 64.6075 61.7851C64.7053 61.7851 64.8097 61.794 64.9209 61.8118C65.0365 61.8296 65.1231 61.8496 65.1809 61.8718ZM67.7949 63.3855V69.1335H66.1878V61.9185H67.7015L67.7949 63.3855ZM67.5348 65.2593L66.988 65.2526C66.988 64.7547 67.0503 64.2946 67.1747 63.8723C67.2992 63.45 67.4815 63.0832 67.7215 62.772C67.9616 62.4564 68.2594 62.2141 68.6151 62.0452C68.9752 61.8718 69.3908 61.7851 69.862 61.7851C70.191 61.7851 70.4911 61.834 70.7622 61.9318C71.0379 62.0252 71.2757 62.1741 71.4757 62.3786C71.6802 62.5831 71.8358 62.8454 71.9425 63.1655C72.0537 63.4855 72.1092 63.8723 72.1092 64.3257V69.1335H70.5022V64.4658C70.5022 64.1146 70.4488 63.839 70.3421 63.6389C70.2399 63.4389 70.091 63.2966 69.8954 63.2121C69.7042 63.1232 69.4753 63.0788 69.2085 63.0788C68.9063 63.0788 68.6484 63.1366 68.435 63.2522C68.2261 63.3677 68.0549 63.5256 67.9216 63.7256C67.7882 63.9257 67.6904 64.1568 67.6282 64.4191C67.5659 64.6814 67.5348 64.9615 67.5348 65.2593ZM72.0092 64.8325L71.2557 64.9992C71.2557 64.5636 71.3157 64.1524 71.4357 63.7656C71.5602 63.3744 71.7403 63.0321 71.9759 62.7387C72.2159 62.4409 72.5115 62.2075 72.8627 62.0385C73.2139 61.8696 73.6163 61.7851 74.0697 61.7851C74.4387 61.7851 74.7676 61.8363 75.0566 61.9385C75.35 62.0363 75.5989 62.1919 75.8034 62.4053C76.0079 62.6187 76.1635 62.8965 76.2702 63.2388C76.3769 63.5767 76.4302 63.9857 76.4302 64.4658V69.1335H74.8165V64.4591C74.8165 64.0946 74.7632 63.8123 74.6565 63.6122C74.5543 63.4122 74.4076 63.2744 74.2164 63.1988C74.0252 63.1188 73.7963 63.0788 73.5296 63.0788C73.2806 63.0788 73.0606 63.1255 72.8694 63.2188C72.6827 63.3077 72.5249 63.4344 72.396 63.5989C72.267 63.7589 72.1692 63.9434 72.1026 64.1524C72.0403 64.3613 72.0092 64.588 72.0092 64.8325ZM84.4321 67.9866C84.6944 67.9866 84.93 67.9355 85.139 67.8332C85.3524 67.7265 85.5235 67.5798 85.6524 67.3931C85.7858 67.2064 85.8591 66.9908 85.8725 66.7463H87.3862C87.3773 67.2131 87.2395 67.6376 86.9727 68.0199C86.706 68.4023 86.3526 68.7068 85.9125 68.9335C85.4724 69.1558 84.9856 69.2669 84.4521 69.2669C83.9009 69.2669 83.4208 69.1736 83.0118 68.9868C82.6028 68.7957 82.2627 68.5334 81.9916 68.2C81.7204 67.8666 81.5159 67.482 81.3781 67.0464C81.2447 66.6107 81.178 66.144 81.178 65.6461V65.4127C81.178 64.9148 81.2447 64.448 81.3781 64.0123C81.5159 63.5722 81.7204 63.1855 81.9916 62.8521C82.2627 62.5187 82.6028 62.2586 83.0118 62.0719C83.4208 61.8807 83.8987 61.7851 84.4455 61.7851C85.0234 61.7851 85.5302 61.9007 85.9658 62.1319C86.4015 62.3586 86.7438 62.6765 86.9927 63.0855C87.2461 63.49 87.3773 63.9612 87.3862 64.4991H85.8725C85.8591 64.2324 85.7925 63.9923 85.6724 63.7789C85.5568 63.5611 85.3924 63.3877 85.179 63.2588C84.97 63.1299 84.7189 63.0654 84.4255 63.0654C84.1009 63.0654 83.832 63.1321 83.6186 63.2655C83.4052 63.3944 83.2385 63.5722 83.1185 63.799C82.9985 64.0212 82.9118 64.2724 82.8584 64.5525C82.8095 64.8281 82.7851 65.1148 82.7851 65.4127V65.6461C82.7851 65.9439 82.8095 66.2329 82.8584 66.5129C82.9073 66.793 82.9918 67.0442 83.1118 67.2664C83.2363 67.4843 83.4052 67.6599 83.6186 67.7932C83.832 67.9221 84.1032 67.9866 84.4321 67.9866ZM88.313 65.606V65.4527C88.313 64.9326 88.3886 64.4502 88.5398 64.0057C88.6909 63.5567 88.9087 63.1677 89.1933 62.8387C89.4822 62.5053 89.8334 62.2475 90.2468 62.0652C90.6647 61.8785 91.1359 61.7851 91.6605 61.7851C92.1895 61.7851 92.6607 61.8785 93.0742 62.0652C93.492 62.2475 93.8455 62.5053 94.1344 62.8387C94.4234 63.1677 94.6434 63.5567 94.7946 64.0057C94.9457 64.4502 95.0213 64.9326 95.0213 65.4527V65.606C95.0213 66.1262 94.9457 66.6085 94.7946 67.0531C94.6434 67.4976 94.4234 67.8866 94.1344 68.22C93.8455 68.549 93.4943 68.8068 93.0808 68.9935C92.6674 69.1758 92.1984 69.2669 91.6738 69.2669C91.1448 69.2669 90.6714 69.1758 90.2535 68.9935C89.8401 68.8068 89.4889 68.549 89.1999 68.22C88.911 67.8866 88.6909 67.4976 88.5398 67.0531C88.3886 66.6085 88.313 66.1262 88.313 65.606ZM89.9201 65.4527V65.606C89.9201 65.9306 89.9534 66.2373 90.0201 66.5263C90.0868 66.8152 90.1913 67.0686 90.3335 67.2864C90.4758 67.5043 90.658 67.6754 90.8803 67.7999C91.1026 67.9244 91.3671 67.9866 91.6738 67.9866C91.9717 67.9866 92.2295 67.9244 92.4474 67.7999C92.6696 67.6754 92.8519 67.5043 92.9942 67.2864C93.1364 67.0686 93.2409 66.8152 93.3076 66.5263C93.3787 66.2373 93.4143 65.9306 93.4143 65.606V65.4527C93.4143 65.1326 93.3787 64.8303 93.3076 64.5458C93.2409 64.2568 93.1342 64.0012 92.9875 63.7789C92.8452 63.5567 92.663 63.3833 92.4407 63.2588C92.2229 63.1299 91.9628 63.0654 91.6605 63.0654C91.3582 63.0654 91.0959 63.1299 90.8737 63.2588C90.6558 63.3833 90.4758 63.5567 90.3335 63.7789C90.1913 64.0012 90.0868 64.2568 90.0201 64.5458C89.9534 64.8303 89.9201 65.1326 89.9201 65.4527ZM100.416 67.1798C100.416 67.0197 100.376 66.8752 100.296 66.7463C100.216 66.613 100.062 66.4929 99.8358 66.3862C99.6135 66.2795 99.2845 66.1817 98.8489 66.0928C98.4666 66.0084 98.1154 65.9083 97.7953 65.7928C97.4797 65.6727 97.2085 65.5283 96.9818 65.3593C96.755 65.1904 96.5794 64.9903 96.455 64.7592C96.3305 64.528 96.2683 64.2613 96.2683 63.959C96.2683 63.6656 96.3327 63.3877 96.4616 63.1255C96.5906 62.8632 96.775 62.632 97.0151 62.432C97.2552 62.2319 97.5463 62.0741 97.8886 61.9585C98.2354 61.8429 98.6221 61.7851 99.0489 61.7851C99.6535 61.7851 100.171 61.8874 100.603 62.0919C101.038 62.2919 101.372 62.5653 101.603 62.9121C101.834 63.2544 101.95 63.6411 101.95 64.0724H100.343C100.343 63.8812 100.294 63.7034 100.196 63.5389C100.102 63.37 99.9602 63.2344 99.7691 63.1321C99.5779 63.0254 99.3379 62.9721 99.0489 62.9721C98.7733 62.9721 98.5444 63.0165 98.3621 63.1055C98.1843 63.1899 98.0509 63.3011 97.962 63.4389C97.8775 63.5767 97.8353 63.7278 97.8353 63.8923C97.8353 64.0123 97.8575 64.1213 97.902 64.2191C97.9509 64.3124 98.0309 64.3991 98.142 64.4791C98.2532 64.5547 98.4043 64.6258 98.5955 64.6925C98.7911 64.7592 99.0356 64.8236 99.329 64.8859C99.8802 65.0015 100.354 65.1504 100.749 65.3326C101.149 65.5105 101.456 65.7416 101.67 66.0261C101.883 66.3062 101.99 66.6619 101.99 67.0931C101.99 67.4131 101.921 67.7065 101.783 67.9733C101.65 68.2356 101.454 68.4645 101.196 68.6601C100.938 68.8513 100.629 69.0002 100.269 69.1069C99.9136 69.2136 99.5135 69.2669 99.0689 69.2669C98.4154 69.2669 97.862 69.1513 97.4085 68.9202C96.9551 68.6846 96.6106 68.3845 96.3749 68.0199C96.1438 67.651 96.0282 67.2687 96.0282 66.873H97.5819C97.5997 67.1709 97.6819 67.4087 97.8286 67.5865C97.9798 67.7599 98.1665 67.8866 98.3888 67.9666C98.6155 68.0422 98.8489 68.08 99.0889 68.08C99.3779 68.08 99.6202 68.0422 99.8158 67.9666C100.011 67.8866 100.16 67.7799 100.263 67.6465C100.365 67.5087 100.416 67.3531 100.416 67.1798ZM106.704 61.9185V63.0921H102.636V61.9185H106.704ZM103.81 60.1514H105.417V67.1397C105.417 67.362 105.448 67.5332 105.51 67.6532C105.577 67.7688 105.668 67.8466 105.784 67.8866C105.899 67.9266 106.035 67.9466 106.191 67.9466C106.302 67.9466 106.408 67.9399 106.511 67.9266C106.613 67.9133 106.695 67.8999 106.757 67.8866L106.764 69.1135C106.631 69.1535 106.475 69.1891 106.297 69.2202C106.124 69.2514 105.924 69.2669 105.697 69.2669C105.328 69.2669 105.001 69.2025 104.717 69.0735C104.432 68.9402 104.21 68.7246 104.05 68.4267C103.89 68.1289 103.81 67.7332 103.81 67.2398V60.1514ZM111.992 67.1798C111.992 67.0197 111.952 66.8752 111.872 66.7463C111.792 66.613 111.639 66.4929 111.412 66.3862C111.19 66.2795 110.861 66.1817 110.425 66.0928C110.043 66.0084 109.691 65.9083 109.371 65.7928C109.056 65.6727 108.785 65.5283 108.558 65.3593C108.331 65.1904 108.156 64.9903 108.031 64.7592C107.907 64.528 107.844 64.2613 107.844 63.959C107.844 63.6656 107.909 63.3877 108.038 63.1255C108.167 62.8632 108.351 62.632 108.591 62.432C108.831 62.2319 109.122 62.0741 109.465 61.9585C109.811 61.8429 110.198 61.7851 110.625 61.7851C111.23 61.7851 111.747 61.8874 112.179 62.0919C112.614 62.2919 112.948 62.5653 113.179 62.9121C113.41 63.2544 113.526 63.6411 113.526 64.0724H111.919C111.919 63.8812 111.87 63.7034 111.772 63.5389C111.679 63.37 111.536 63.2344 111.345 63.1321C111.154 63.0254 110.914 62.9721 110.625 62.9721C110.349 62.9721 110.12 63.0165 109.938 63.1055C109.76 63.1899 109.627 63.3011 109.538 63.4389C109.454 63.5767 109.411 63.7278 109.411 63.8923C109.411 64.0123 109.434 64.1213 109.478 64.2191C109.527 64.3124 109.607 64.3991 109.718 64.4791C109.829 64.5547 109.98 64.6258 110.172 64.6925C110.367 64.7592 110.612 64.8236 110.905 64.8859C111.456 65.0015 111.93 65.1504 112.325 65.3326C112.725 65.5105 113.032 65.7416 113.246 66.0261C113.459 66.3062 113.566 66.6619 113.566 67.0931C113.566 67.4131 113.497 67.7065 113.359 67.9733C113.226 68.2356 113.03 68.4645 112.772 68.6601C112.514 68.8513 112.205 69.0002 111.845 69.1069C111.49 69.2136 111.09 69.2669 110.645 69.2669C109.991 69.2669 109.438 69.1513 108.985 68.9202C108.531 68.6846 108.187 68.3845 107.951 68.0199C107.72 67.651 107.604 67.2687 107.604 66.873H109.158C109.176 67.1709 109.258 67.4087 109.405 67.5865C109.556 67.7599 109.743 67.8866 109.965 67.9666C110.192 68.0422 110.425 68.08 110.665 68.08C110.954 68.08 111.196 68.0422 111.392 67.9666C111.587 67.8866 111.736 67.7799 111.839 67.6465C111.941 67.5087 111.992 67.3531 111.992 67.1798ZM118.453 61.9185H120.067V69.7604C120.067 70.2538 119.983 70.6695 119.814 71.0073C119.645 71.3496 119.396 71.6075 119.067 71.7808C118.738 71.9587 118.336 72.0476 117.86 72.0476C117.718 72.0476 117.571 72.0365 117.42 72.0142C117.264 71.9964 117.118 71.9698 116.98 71.9342L116.986 70.6806C117.08 70.6984 117.18 70.7117 117.287 70.7206C117.389 70.7339 117.487 70.7406 117.58 70.7406C117.771 70.7406 117.931 70.7072 118.06 70.6406C118.189 70.5739 118.287 70.4694 118.353 70.3272C118.42 70.1849 118.453 69.996 118.453 69.7604V61.9185ZM118.313 60.0247C118.313 59.7802 118.396 59.578 118.56 59.4179C118.725 59.2534 118.949 59.1712 119.234 59.1712C119.523 59.1712 119.747 59.2534 119.907 59.4179C120.072 59.578 120.154 59.7802 120.154 60.0247C120.154 60.2648 120.072 60.4648 119.907 60.6249C119.747 60.7849 119.523 60.8649 119.234 60.8649C118.949 60.8649 118.725 60.7849 118.56 60.6249C118.396 60.4648 118.313 60.2648 118.313 60.0247ZM126.142 67.4331V61.9185H127.756V69.1335H126.235L126.142 67.4331ZM126.369 65.9328L126.909 65.9195C126.909 66.404 126.855 66.8508 126.749 67.2598C126.642 67.6643 126.478 68.0177 126.255 68.32C126.033 68.6179 125.749 68.8513 125.402 69.0202C125.055 69.1847 124.639 69.2669 124.155 69.2669C123.804 69.2669 123.481 69.2158 123.188 69.1135C122.895 69.0113 122.641 68.8535 122.428 68.6401C122.219 68.4267 122.057 68.1489 121.941 67.8066C121.825 67.4643 121.768 67.0553 121.768 66.5796V61.9185H123.375V66.5929C123.375 66.8552 123.406 67.0753 123.468 67.2531C123.53 67.4265 123.615 67.5665 123.721 67.6732C123.828 67.7799 123.953 67.8555 124.095 67.8999C124.237 67.9444 124.388 67.9666 124.548 67.9666C125.006 67.9666 125.366 67.8777 125.629 67.6999C125.895 67.5176 126.084 67.2731 126.195 66.9664C126.311 66.6596 126.369 66.3151 126.369 65.9328ZM133.45 67.1798C133.45 67.0197 133.41 66.8752 133.33 66.7463C133.25 66.613 133.097 66.4929 132.87 66.3862C132.648 66.2795 132.319 66.1817 131.883 66.0928C131.501 66.0084 131.15 65.9083 130.83 65.7928C130.514 65.6727 130.243 65.5283 130.016 65.3593C129.789 65.1904 129.614 64.9903 129.489 64.7592C129.365 64.528 129.303 64.2613 129.303 63.959C129.303 63.6656 129.367 63.3877 129.496 63.1255C129.625 62.8632 129.809 62.632 130.05 62.432C130.29 62.2319 130.581 62.0741 130.923 61.9585C131.27 61.8429 131.657 61.7851 132.083 61.7851C132.688 61.7851 133.206 61.8874 133.637 62.0919C134.073 62.2919 134.406 62.5653 134.637 62.9121C134.868 63.2544 134.984 63.6411 134.984 64.0724H133.377C133.377 63.8812 133.328 63.7034 133.23 63.5389C133.137 63.37 132.995 63.2344 132.804 63.1321C132.612 63.0254 132.372 62.9721 132.083 62.9721C131.808 62.9721 131.579 63.0165 131.397 63.1055C131.219 63.1899 131.085 63.3011 130.996 63.4389C130.912 63.5767 130.87 63.7278 130.87 63.8923C130.87 64.0123 130.892 64.1213 130.936 64.2191C130.985 64.3124 131.065 64.3991 131.176 64.4791C131.288 64.5547 131.439 64.6258 131.63 64.6925C131.826 64.7592 132.07 64.8236 132.363 64.8859C132.915 65.0015 133.388 65.1504 133.784 65.3326C134.184 65.5105 134.491 65.7416 134.704 66.0261C134.917 66.3062 135.024 66.6619 135.024 67.0931C135.024 67.4131 134.955 67.7065 134.817 67.9733C134.684 68.2356 134.488 68.4645 134.231 68.6601C133.973 68.8513 133.664 69.0002 133.304 69.1069C132.948 69.2136 132.548 69.2669 132.103 69.2669C131.45 69.2669 130.896 69.1513 130.443 68.9202C129.99 68.6846 129.645 68.3845 129.409 68.0199C129.178 67.651 129.063 67.2687 129.063 66.873H130.616C130.634 67.1709 130.716 67.4087 130.863 67.5865C131.014 67.7599 131.201 67.8866 131.423 67.9666C131.65 68.0422 131.883 68.08 132.123 68.08C132.412 68.08 132.655 68.0422 132.85 67.9666C133.046 67.8866 133.195 67.7799 133.297 67.6465C133.399 67.5087 133.45 67.3531 133.45 67.1798ZM139.739 61.9185V63.0921H135.671V61.9185H139.739ZM136.844 60.1514H138.452V67.1397C138.452 67.362 138.483 67.5332 138.545 67.6532C138.612 67.7688 138.703 67.8466 138.818 67.8866C138.934 67.9266 139.069 67.9466 139.225 67.9466C139.336 67.9466 139.443 67.9399 139.545 67.9266C139.647 67.9133 139.73 67.8999 139.792 67.8866L139.799 69.1135C139.665 69.1535 139.51 69.1891 139.332 69.2202C139.158 69.2514 138.958 69.2669 138.732 69.2669C138.363 69.2669 138.036 69.2025 137.751 69.0735C137.467 68.9402 137.245 68.7246 137.085 68.4267C136.925 68.1289 136.844 67.7332 136.844 67.2398V60.1514ZM148.147 57.8709V59.8647H147.12V57.8709H148.147ZM148.02 68.7601V70.5472H147V68.7601H148.02ZM149.027 66.6063C149.027 66.3484 148.974 66.1239 148.867 65.9328C148.765 65.7372 148.596 65.5616 148.361 65.406C148.125 65.246 147.809 65.097 147.414 64.9592C146.845 64.7592 146.347 64.5347 145.92 64.2857C145.498 64.0323 145.169 63.7212 144.933 63.3522C144.702 62.9788 144.586 62.5142 144.586 61.9585C144.586 61.4117 144.711 60.9383 144.96 60.5382C145.213 60.1381 145.564 59.8291 146.013 59.6113C146.462 59.3935 146.987 59.2846 147.587 59.2846C148.049 59.2846 148.465 59.3535 148.834 59.4913C149.207 59.6291 149.525 59.8314 149.788 60.0981C150.05 60.3648 150.25 60.6938 150.388 61.085C150.53 61.4717 150.601 61.9163 150.601 62.4186H149.001C149.001 62.1341 148.967 61.8807 148.901 61.6584C148.838 61.4317 148.745 61.2406 148.621 61.085C148.496 60.9249 148.345 60.8027 148.167 60.7182C147.994 60.6338 147.796 60.5915 147.574 60.5915C147.258 60.5915 146.998 60.6515 146.793 60.7716C146.589 60.8872 146.438 61.0472 146.34 61.2517C146.247 61.4562 146.2 61.6896 146.2 61.9519C146.2 62.2052 146.249 62.4275 146.347 62.6187C146.445 62.8098 146.611 62.9832 146.847 63.1388C147.087 63.2899 147.416 63.4433 147.834 63.5989C148.407 63.8034 148.903 64.0323 149.321 64.2857C149.743 64.5347 150.068 64.8436 150.294 65.2126C150.525 65.5772 150.641 66.0373 150.641 66.5929C150.641 67.1664 150.508 67.6532 150.241 68.0533C149.979 68.4534 149.61 68.7579 149.134 68.9668C148.663 69.1713 148.114 69.2736 147.487 69.2736C147.091 69.2736 146.698 69.2225 146.307 69.1202C145.92 69.0135 145.569 68.8401 145.253 68.6001C144.938 68.36 144.686 68.0422 144.5 67.6465C144.313 67.2464 144.22 66.7574 144.22 66.1795H145.833C145.833 66.5263 145.88 66.8152 145.973 67.0464C146.067 67.2776 146.193 67.4598 146.353 67.5932C146.513 67.7265 146.691 67.8221 146.887 67.8799C147.087 67.9377 147.287 67.9666 147.487 67.9666C147.82 67.9666 148.1 67.911 148.327 67.7999C148.558 67.6843 148.732 67.5243 148.847 67.3198C148.967 67.1108 149.027 66.873 149.027 66.6063ZM158.376 63.4655V65.0526C158.376 65.8128 158.301 66.4618 158.15 66.9997C158.003 67.5332 157.789 67.9666 157.509 68.3C157.229 68.6334 156.894 68.8779 156.502 69.0335C156.116 69.1891 155.682 69.2669 155.202 69.2669C154.82 69.2669 154.464 69.218 154.135 69.1202C153.811 69.0224 153.517 68.869 153.255 68.6601C152.993 68.4512 152.768 68.1822 152.582 67.8532C152.399 67.5198 152.257 67.122 152.155 66.6596C152.057 66.1973 152.008 65.6616 152.008 65.0526V63.4655C152.008 62.7009 152.084 62.0563 152.235 61.5318C152.386 61.0027 152.602 60.5737 152.882 60.2448C153.162 59.9114 153.495 59.6691 153.882 59.5179C154.273 59.3668 154.709 59.2912 155.189 59.2912C155.576 59.2912 155.931 59.3401 156.256 59.4379C156.585 59.5313 156.878 59.6802 157.136 59.8847C157.398 60.0892 157.62 60.3559 157.803 60.6849C157.989 61.0094 158.132 61.4028 158.23 61.8652C158.327 62.3231 158.376 62.8565 158.376 63.4655ZM156.769 65.2793V63.2255C156.769 62.8387 156.747 62.4986 156.703 62.2052C156.658 61.9074 156.591 61.6562 156.502 61.4517C156.418 61.2428 156.311 61.0739 156.182 60.9449C156.053 60.8116 155.907 60.716 155.742 60.6582C155.578 60.596 155.393 60.5649 155.189 60.5649C154.94 60.5649 154.718 60.6138 154.522 60.7116C154.326 60.8049 154.162 60.9561 154.029 61.165C153.895 61.3739 153.793 61.6496 153.722 61.9919C153.655 62.3297 153.622 62.7409 153.622 63.2255V65.2793C153.622 65.6705 153.644 66.015 153.688 66.3129C153.733 66.6107 153.8 66.8663 153.889 67.0797C153.977 67.2887 154.084 67.462 154.209 67.5999C154.338 67.7332 154.484 67.831 154.649 67.8933C154.818 67.9555 155.002 67.9866 155.202 67.9866C155.456 67.9866 155.68 67.9377 155.876 67.8399C156.071 67.7421 156.236 67.5865 156.369 67.3731C156.502 67.1553 156.602 66.873 156.669 66.5263C156.736 66.1795 156.769 65.7639 156.769 65.2793ZM159.97 68.3334C159.97 68.0844 160.054 67.8755 160.223 67.7065C160.392 67.5332 160.621 67.4465 160.91 67.4465C161.204 67.4465 161.433 67.5332 161.597 67.7065C161.766 67.8755 161.85 68.0844 161.85 68.3334C161.85 68.5823 161.766 68.7912 161.597 68.9602C161.433 69.1291 161.204 69.2136 160.91 69.2136C160.621 69.2136 160.392 69.1291 160.223 68.9602C160.054 68.7912 159.97 68.5823 159.97 68.3334ZM165.298 64.6191L164.018 64.3057L164.544 59.4246H169.779V60.7849H165.878L165.611 63.1655C165.762 63.0766 165.971 62.9899 166.238 62.9054C166.505 62.8165 166.809 62.772 167.152 62.772C167.61 62.772 168.019 62.8476 168.379 62.9988C168.743 63.1455 169.052 63.3611 169.305 63.6456C169.559 63.9257 169.752 64.268 169.886 64.6725C170.019 65.0726 170.086 65.5238 170.086 66.0261C170.086 66.4751 170.019 66.8952 169.886 67.2864C169.757 67.6776 169.561 68.0222 169.299 68.32C169.037 68.6179 168.705 68.8513 168.305 69.0202C167.91 69.1847 167.441 69.2669 166.898 69.2669C166.494 69.2669 166.105 69.2091 165.731 69.0935C165.362 68.9735 165.031 68.7979 164.738 68.5667C164.444 68.3311 164.209 68.0422 164.031 67.6999C163.853 67.3531 163.751 66.9553 163.724 66.5063H165.298C165.338 66.8219 165.425 67.0908 165.558 67.3131C165.696 67.5309 165.878 67.6977 166.105 67.8132C166.331 67.9288 166.594 67.9866 166.892 67.9866C167.163 67.9866 167.396 67.9399 167.592 67.8466C167.787 67.7488 167.95 67.611 168.079 67.4331C168.212 67.2509 168.31 67.0375 168.372 66.793C168.439 66.5485 168.472 66.2773 168.472 65.9795C168.472 65.695 168.434 65.4349 168.359 65.1993C168.287 64.9637 168.179 64.7592 168.032 64.5858C167.89 64.4124 167.71 64.2791 167.492 64.1857C167.274 64.0879 167.023 64.039 166.738 64.039C166.356 64.039 166.062 64.0946 165.858 64.2057C165.658 64.3169 165.471 64.4547 165.298 64.6191ZM177.701 63.4655V65.0526C177.701 65.8128 177.625 66.4618 177.474 66.9997C177.327 67.5332 177.114 67.9666 176.834 68.3C176.554 68.6334 176.218 68.8779 175.827 69.0335C175.44 69.1891 175.007 69.2669 174.527 69.2669C174.144 69.2669 173.789 69.218 173.46 69.1202C173.135 69.0224 172.842 68.869 172.58 68.6601C172.317 68.4512 172.093 68.1822 171.906 67.8532C171.724 67.5198 171.582 67.122 171.479 66.6596C171.382 66.1973 171.333 65.6616 171.333 65.0526V63.4655C171.333 62.7009 171.408 62.0563 171.559 61.5318C171.71 61.0027 171.926 60.5737 172.206 60.2448C172.486 59.9114 172.82 59.6691 173.206 59.5179C173.598 59.3668 174.033 59.2912 174.513 59.2912C174.9 59.2912 175.256 59.3401 175.58 59.4379C175.909 59.5313 176.203 59.6802 176.46 59.8847C176.723 60.0892 176.945 60.3559 177.127 60.6849C177.314 61.0094 177.456 61.4028 177.554 61.8652C177.652 62.3231 177.701 62.8565 177.701 63.4655ZM176.094 65.2793V63.2255C176.094 62.8387 176.072 62.4986 176.027 62.2052C175.983 61.9074 175.916 61.6562 175.827 61.4517C175.743 61.2428 175.636 61.0739 175.507 60.9449C175.378 60.8116 175.231 60.716 175.067 60.6582C174.902 60.596 174.718 60.5649 174.513 60.5649C174.264 60.5649 174.042 60.6138 173.847 60.7116C173.651 60.8049 173.486 60.9561 173.353 61.165C173.22 61.3739 173.117 61.6496 173.046 61.9919C172.98 62.3297 172.946 62.7409 172.946 63.2255V65.2793C172.946 65.6705 172.969 66.015 173.013 66.3129C173.057 66.6107 173.124 66.8663 173.213 67.0797C173.302 67.2887 173.409 67.462 173.533 67.5999C173.662 67.7332 173.809 67.831 173.973 67.8933C174.142 67.9555 174.327 67.9866 174.527 67.9866C174.78 67.9866 175.005 67.9377 175.2 67.8399C175.396 67.7421 175.56 67.5865 175.694 67.3731C175.827 67.1553 175.927 66.873 175.994 66.5263C176.06 66.1795 176.094 65.7639 176.094 65.2793ZM179.294 68.3334C179.294 68.0844 179.379 67.8755 179.548 67.7065C179.717 67.5332 179.946 67.4465 180.235 67.4465C180.528 67.4465 180.757 67.5332 180.922 67.7065C181.09 67.8755 181.175 68.0844 181.175 68.3334C181.175 68.5823 181.09 68.7912 180.922 68.9602C180.757 69.1291 180.528 69.2136 180.235 69.2136C179.946 69.2136 179.717 69.1291 179.548 68.9602C179.379 68.7912 179.294 68.5823 179.294 68.3334ZM32.2865 79.4789V80.8059H27.132V79.4789H32.2865ZM27.5454 75.4246V85.1335H25.8717V75.4246H27.5454ZM33.5735 75.4246V85.1335H31.9064V75.4246H33.5735ZM35.1005 81.606V81.4527C35.1005 80.9326 35.1761 80.4502 35.3272 80.0057C35.4784 79.5567 35.6962 79.1677 35.9807 78.8387C36.2697 78.5053 36.6209 78.2475 37.0343 78.0652C37.4522 77.8785 37.9234 77.7851 38.448 77.7851C38.977 77.7851 39.4482 77.8785 39.8616 78.0652C40.2795 78.2475 40.6329 78.5053 40.9219 78.8387C41.2108 79.1677 41.4309 79.5567 41.582 80.0057C41.7332 80.4502 41.8088 80.9326 41.8088 81.4527V81.606C41.8088 82.1262 41.7332 82.6085 41.582 83.0531C41.4309 83.4976 41.2108 83.8866 40.9219 84.22C40.6329 84.549 40.2817 84.8068 39.8683 84.9935C39.4549 85.1758 38.9859 85.2669 38.4613 85.2669C37.9323 85.2669 37.4588 85.1758 37.041 84.9935C36.6275 84.8068 36.2763 84.549 35.9874 84.22C35.6984 83.8866 35.4784 83.4976 35.3272 83.0531C35.1761 82.6085 35.1005 82.1262 35.1005 81.606ZM36.7076 81.4527V81.606C36.7076 81.9306 36.7409 82.2373 36.8076 82.5263C36.8743 82.8152 36.9787 83.0686 37.121 83.2864C37.2632 83.5043 37.4455 83.6754 37.6678 83.7999C37.8901 83.9244 38.1546 83.9866 38.4613 83.9866C38.7591 83.9866 39.017 83.9244 39.2348 83.7999C39.4571 83.6754 39.6394 83.5043 39.7816 83.2864C39.9239 83.0686 40.0283 82.8152 40.095 82.5263C40.1661 82.2373 40.2017 81.9306 40.2017 81.606V81.4527C40.2017 81.1326 40.1661 80.8303 40.095 80.5458C40.0283 80.2568 39.9216 80.0012 39.7749 79.7789C39.6327 79.5567 39.4504 79.3833 39.2281 79.2588C39.0103 79.1299 38.7503 79.0654 38.448 79.0654C38.1457 79.0654 37.8834 79.1299 37.6611 79.2588C37.4433 79.3833 37.2632 79.5567 37.121 79.7789C36.9787 80.0012 36.8743 80.2568 36.8076 80.5458C36.7409 80.8303 36.7076 81.1326 36.7076 81.4527ZM45.1162 83.5332L46.7833 77.9185H47.8102L47.5301 79.5989L45.8497 85.1335H44.9295L45.1162 83.5332ZM44.136 77.9185L45.4363 83.5598L45.543 85.1335H44.5161L42.5623 77.9185H44.136ZM49.3705 83.4932L50.6308 77.9185H52.1979L50.2507 85.1335H49.2238L49.3705 83.4932ZM47.9835 77.9185L49.6306 83.4665L49.8373 85.1335H48.9171L47.2167 79.5922L46.9366 77.9185H47.9835ZM58.2993 79.3855V85.1335H56.6923V77.9185H58.206L58.2993 79.3855ZM58.0392 81.2593L57.4925 81.2526C57.4925 80.7547 57.5547 80.2946 57.6792 79.8723C57.8036 79.45 57.9859 79.0832 58.226 78.772C58.466 78.4564 58.7639 78.2141 59.1195 78.0452C59.4796 77.8718 59.8952 77.7851 60.3665 77.7851C60.6954 77.7851 60.9955 77.834 61.2667 77.9318C61.5423 78.0252 61.7801 78.1741 61.9802 78.3786C62.1847 78.5831 62.3403 78.8454 62.447 79.1655C62.5581 79.4855 62.6137 79.8723 62.6137 80.3257V85.1335H61.0066V80.4658C61.0066 80.1146 60.9533 79.839 60.8466 79.6389C60.7443 79.4389 60.5954 79.2966 60.3998 79.2121C60.2086 79.1232 59.9797 79.0788 59.713 79.0788C59.4107 79.0788 59.1528 79.1366 58.9395 79.2522C58.7305 79.3677 58.5594 79.5256 58.426 79.7256C58.2926 79.9257 58.1948 80.1568 58.1326 80.4191C58.0704 80.6814 58.0392 80.9615 58.0392 81.2593ZM62.5136 80.8325L61.7601 80.9992C61.7601 80.5636 61.8201 80.1524 61.9402 79.7656C62.0646 79.3744 62.2447 79.0321 62.4803 78.7387C62.7204 78.4409 63.016 78.2075 63.3672 78.0385C63.7184 77.8696 64.1207 77.7851 64.5741 77.7851C64.9431 77.7851 65.2721 77.8363 65.561 77.9385C65.8544 78.0363 66.1034 78.1919 66.3079 78.4053C66.5124 78.6187 66.6679 78.8965 66.7746 79.2388C66.8813 79.5767 66.9347 79.9857 66.9347 80.4658V85.1335H65.321V80.4591C65.321 80.0946 65.2676 79.8123 65.1609 79.6122C65.0587 79.4122 64.912 79.2744 64.7208 79.1988C64.5297 79.1188 64.3007 79.0788 64.034 79.0788C63.785 79.0788 63.565 79.1255 63.3738 79.2188C63.1871 79.3077 63.0293 79.4344 62.9004 79.5989C62.7715 79.7589 62.6737 79.9434 62.607 80.1524C62.5448 80.3613 62.5136 80.588 62.5136 80.8325ZM72.9294 83.4331V77.9185H74.5431V85.1335H73.0228L72.9294 83.4331ZM73.1561 81.9328L73.6963 81.9195C73.6963 82.404 73.6429 82.8508 73.5362 83.2598C73.4295 83.6643 73.2651 84.0177 73.0428 84.32C72.8205 84.6179 72.536 84.8513 72.1892 85.0202C71.8425 85.1847 71.4268 85.2669 70.9423 85.2669C70.5911 85.2669 70.2688 85.2158 69.9754 85.1135C69.682 85.0113 69.4286 84.8535 69.2152 84.6401C69.0063 84.4267 68.844 84.1489 68.7284 83.8066C68.6129 83.4643 68.5551 83.0553 68.5551 82.5796V77.9185H70.1621V82.5929C70.1621 82.8552 70.1932 83.0753 70.2555 83.2531C70.3177 83.4265 70.4022 83.5665 70.5089 83.6732C70.6155 83.7799 70.74 83.8555 70.8823 83.8999C71.0245 83.9444 71.1757 83.9666 71.3357 83.9666C71.7936 83.9666 72.1537 83.8777 72.416 83.6999C72.6827 83.5176 72.8716 83.2731 72.9828 82.9664C73.0984 82.6596 73.1561 82.3151 73.1561 81.9328ZM79.1376 83.9866C79.3998 83.9866 79.6354 83.9355 79.8444 83.8332C80.0578 83.7265 80.2289 83.5798 80.3578 83.3931C80.4912 83.2064 80.5646 82.9908 80.5779 82.7463H82.0916C82.0827 83.2131 81.9449 83.6376 81.6782 84.0199C81.4114 84.4023 81.058 84.7068 80.6179 84.9335C80.1778 85.1558 79.691 85.2669 79.1576 85.2669C78.6063 85.2669 78.1262 85.1736 77.7172 84.9868C77.3082 84.7957 76.9682 84.5334 76.697 84.2C76.4258 83.8666 76.2213 83.482 76.0835 83.0464C75.9501 82.6107 75.8835 82.144 75.8835 81.6461V81.4127C75.8835 80.9148 75.9501 80.448 76.0835 80.0123C76.2213 79.5722 76.4258 79.1855 76.697 78.8521C76.9682 78.5187 77.3082 78.2586 77.7172 78.0719C78.1262 77.8807 78.6041 77.7851 79.1509 77.7851C79.7288 77.7851 80.2356 77.9007 80.6712 78.1319C81.1069 78.3586 81.4492 78.6765 81.6982 79.0855C81.9516 79.49 82.0827 79.9612 82.0916 80.4991H80.5779C80.5646 80.2324 80.4979 79.9923 80.3778 79.7789C80.2623 79.5611 80.0978 79.3877 79.8844 79.2588C79.6755 79.1299 79.4243 79.0654 79.1309 79.0654C78.8064 79.0654 78.5374 79.1321 78.324 79.2655C78.1106 79.3944 77.9439 79.5722 77.8239 79.799C77.7039 80.0212 77.6172 80.2724 77.5638 80.5525C77.5149 80.8281 77.4905 81.1148 77.4905 81.4127V81.6461C77.4905 81.9439 77.5149 82.2329 77.5638 82.5129C77.6127 82.793 77.6972 83.0442 77.8172 83.2664C77.9417 83.4843 78.1106 83.6599 78.324 83.7932C78.5374 83.9221 78.8086 83.9866 79.1376 83.9866ZM84.9122 74.8911V85.1335H83.3119V74.8911H84.9122ZM84.6322 81.2593L84.1121 81.2526C84.1165 80.7547 84.1854 80.2946 84.3188 79.8723C84.4566 79.45 84.6477 79.0832 84.8922 78.772C85.1412 78.4564 85.439 78.2141 85.7858 78.0452C86.1325 77.8718 86.5171 77.7851 86.9394 77.7851C87.295 77.7851 87.6151 77.834 87.8996 77.9318C88.1886 78.0296 88.4375 78.1875 88.6465 78.4053C88.8554 78.6187 89.0132 78.8987 89.1199 79.2455C89.231 79.5878 89.2866 80.0057 89.2866 80.4991V85.1335H87.6729V80.4858C87.6729 80.139 87.6218 79.8634 87.5195 79.6589C87.4217 79.4544 87.2772 79.3077 87.0861 79.2188C86.8949 79.1255 86.6615 79.0788 86.3859 79.0788C86.097 79.0788 85.8414 79.1366 85.6191 79.2522C85.4013 79.3677 85.219 79.5256 85.0723 79.7256C84.9256 79.9257 84.8144 80.1568 84.7389 80.4191C84.6677 80.6814 84.6322 80.9615 84.6322 81.2593ZM98.7155 83.6399V74.8911H100.329V85.1335H98.8689L98.7155 83.6399ZM94.0211 81.606V81.466C94.0211 80.9192 94.0855 80.4213 94.2144 79.9723C94.3434 79.5189 94.5301 79.1299 94.7746 78.8054C95.0191 78.4764 95.3169 78.2252 95.6681 78.0519C96.0193 77.8741 96.415 77.7851 96.8551 77.7851C97.2907 77.7851 97.673 77.8696 98.002 78.0385C98.331 78.2075 98.611 78.4497 98.8422 78.7654C99.0734 79.0766 99.2579 79.45 99.3957 79.8856C99.5335 80.3169 99.6313 80.797 99.6891 81.326V81.7728C99.6313 82.2884 99.5335 82.7597 99.3957 83.1864C99.2579 83.6132 99.0734 83.9822 98.8422 84.2933C98.611 84.6045 98.3287 84.8446 97.9953 85.0135C97.6664 85.1824 97.2818 85.2669 96.8417 85.2669C96.4061 85.2669 96.0126 85.1758 95.6614 84.9935C95.3147 84.8112 95.0191 84.5556 94.7746 84.2267C94.5301 83.8977 94.3434 83.5109 94.2144 83.0664C94.0855 82.6174 94.0211 82.1306 94.0211 81.606ZM95.6281 81.466V81.606C95.6281 81.935 95.657 82.2418 95.7148 82.5263C95.777 82.8108 95.8726 83.0619 96.0015 83.2798C96.1304 83.4932 96.2972 83.6621 96.5016 83.7866C96.7106 83.9066 96.9595 83.9666 97.2485 83.9666C97.613 83.9666 97.9131 83.8866 98.1487 83.7265C98.3843 83.5665 98.5688 83.3509 98.7022 83.0797C98.84 82.8041 98.9333 82.4974 98.9822 82.1595V80.9526C98.9556 80.6903 98.9 80.4458 98.8155 80.2191C98.7355 79.9923 98.6266 79.7945 98.4888 79.6256C98.351 79.4522 98.1798 79.3188 97.9753 79.2255C97.7753 79.1277 97.5374 79.0788 97.2618 79.0788C96.9684 79.0788 96.7195 79.141 96.515 79.2655C96.3105 79.39 96.1416 79.5611 96.0082 79.7789C95.8793 79.9968 95.7837 80.2502 95.7215 80.5391C95.6592 80.8281 95.6281 81.137 95.6281 81.466ZM101.703 81.606V81.4527C101.703 80.9326 101.778 80.4502 101.93 80.0057C102.081 79.5567 102.299 79.1677 102.583 78.8387C102.872 78.5053 103.223 78.2475 103.637 78.0652C104.055 77.8785 104.526 77.7851 105.05 77.7851C105.579 77.7851 106.051 77.8785 106.464 78.0652C106.882 78.2475 107.235 78.5053 107.524 78.8387C107.813 79.1677 108.033 79.5567 108.184 80.0057C108.336 80.4502 108.411 80.9326 108.411 81.4527V81.606C108.411 82.1262 108.336 82.6085 108.184 83.0531C108.033 83.4976 107.813 83.8866 107.524 84.22C107.235 84.549 106.884 84.8068 106.471 84.9935C106.057 85.1758 105.588 85.2669 105.064 85.2669C104.535 85.2669 104.061 85.1758 103.643 84.9935C103.23 84.8068 102.879 84.549 102.59 84.22C102.301 83.8866 102.081 83.4976 101.93 83.0531C101.778 82.6085 101.703 82.1262 101.703 81.606ZM103.31 81.4527V81.606C103.31 81.9306 103.343 82.2373 103.41 82.5263C103.477 82.8152 103.581 83.0686 103.723 83.2864C103.866 83.5043 104.048 83.6754 104.27 83.7999C104.492 83.9244 104.757 83.9866 105.064 83.9866C105.362 83.9866 105.619 83.9244 105.837 83.7999C106.059 83.6754 106.242 83.5043 106.384 83.2864C106.526 83.0686 106.631 82.8152 106.697 82.5263C106.769 82.2373 106.804 81.9306 106.804 81.606V81.4527C106.804 81.1326 106.769 80.8303 106.697 80.5458C106.631 80.2568 106.524 80.0012 106.377 79.7789C106.235 79.5567 106.053 79.3833 105.831 79.2588C105.613 79.1299 105.353 79.0654 105.05 79.0654C104.748 79.0654 104.486 79.1299 104.263 79.2588C104.046 79.3833 103.866 79.5567 103.723 79.7789C103.581 80.0012 103.477 80.2568 103.41 80.5458C103.343 80.8303 103.31 81.1326 103.31 81.4527ZM112.939 85.2669C112.405 85.2669 111.923 85.1802 111.492 85.0068C111.065 84.829 110.701 84.5823 110.398 84.2667C110.1 83.951 109.871 83.5798 109.711 83.1531C109.551 82.7263 109.471 82.2662 109.471 81.7728V81.506C109.471 80.9414 109.554 80.4302 109.718 79.9723C109.883 79.5144 110.112 79.1232 110.405 78.7987C110.698 78.4698 111.045 78.2186 111.445 78.0452C111.845 77.8718 112.279 77.7851 112.745 77.7851C113.261 77.7851 113.712 77.8718 114.099 78.0452C114.486 78.2186 114.806 78.4631 115.059 78.7787C115.317 79.0899 115.508 79.4611 115.633 79.8923C115.762 80.3235 115.826 80.7992 115.826 81.3193V82.0061H110.252V80.8525H114.239V80.7258C114.23 80.4369 114.172 80.1657 114.066 79.9123C113.964 79.6589 113.806 79.4544 113.592 79.2988C113.379 79.1432 113.094 79.0654 112.739 79.0654C112.472 79.0654 112.234 79.1232 112.025 79.2388C111.821 79.35 111.65 79.5122 111.512 79.7256C111.374 79.939 111.267 80.1968 111.192 80.4991C111.121 80.797 111.085 81.1326 111.085 81.506V81.7728C111.085 82.0884 111.127 82.3818 111.212 82.653C111.301 82.9197 111.43 83.1531 111.599 83.3531C111.767 83.5532 111.972 83.711 112.212 83.8266C112.452 83.9377 112.725 83.9933 113.032 83.9933C113.419 83.9933 113.763 83.9155 114.066 83.7599C114.368 83.6043 114.63 83.3842 114.853 83.0997L115.7 83.9199C115.544 84.1466 115.342 84.3645 115.093 84.5734C114.844 84.7779 114.539 84.9446 114.179 85.0735C113.824 85.2025 113.41 85.2669 112.939 85.2669ZM121.127 83.1798C121.127 83.0197 121.087 82.8752 121.007 82.7463C120.927 82.613 120.774 82.4929 120.547 82.3862C120.325 82.2795 119.996 82.1817 119.56 82.0928C119.178 82.0084 118.827 81.9083 118.507 81.7928C118.191 81.6727 117.92 81.5283 117.693 81.3593C117.467 81.1904 117.291 80.9903 117.167 80.7592C117.042 80.528 116.98 80.2613 116.98 79.959C116.98 79.6656 117.044 79.3877 117.173 79.1255C117.302 78.8632 117.487 78.632 117.727 78.432C117.967 78.2319 118.258 78.0741 118.6 77.9585C118.947 77.8429 119.334 77.7851 119.76 77.7851C120.365 77.7851 120.883 77.8874 121.314 78.0919C121.75 78.2919 122.083 78.5653 122.314 78.9121C122.546 79.2544 122.661 79.6411 122.661 80.0724H121.054C121.054 79.8812 121.005 79.7034 120.907 79.5389C120.814 79.37 120.672 79.2344 120.481 79.1321C120.289 79.0254 120.049 78.9721 119.76 78.9721C119.485 78.9721 119.256 79.0165 119.074 79.1055C118.896 79.1899 118.762 79.3011 118.674 79.4389C118.589 79.5767 118.547 79.7278 118.547 79.8923C118.547 80.0123 118.569 80.1213 118.614 80.2191C118.662 80.3124 118.742 80.3991 118.854 80.4791C118.965 80.5547 119.116 80.6258 119.307 80.6925C119.503 80.7592 119.747 80.8236 120.041 80.8859C120.592 81.0015 121.065 81.1504 121.461 81.3326C121.861 81.5105 122.168 81.7416 122.381 82.0261C122.594 82.3062 122.701 82.6619 122.701 83.0931C122.701 83.4131 122.632 83.7065 122.494 83.9733C122.361 84.2356 122.165 84.4645 121.908 84.6601C121.65 84.8513 121.341 85.0002 120.981 85.1069C120.625 85.2136 120.225 85.2669 119.78 85.2669C119.127 85.2669 118.574 85.1513 118.12 84.9202C117.667 84.6846 117.322 84.3845 117.086 84.0199C116.855 83.651 116.74 83.2687 116.74 82.873H118.293C118.311 83.1709 118.393 83.4087 118.54 83.5865C118.691 83.7599 118.878 83.8866 119.1 83.9666C119.327 84.0422 119.56 84.08 119.8 84.08C120.089 84.08 120.332 84.0422 120.527 83.9666C120.723 83.8866 120.872 83.7799 120.974 83.6465C121.076 83.5087 121.127 83.3531 121.127 83.1798ZM129.603 84.3467L131.563 77.9185H133.284L130.39 86.2338C130.323 86.4116 130.236 86.605 130.13 86.8139C130.023 87.0229 129.883 87.2207 129.709 87.4074C129.541 87.5986 129.329 87.7519 129.076 87.8675C128.823 87.9876 128.516 88.0476 128.156 88.0476C128.014 88.0476 127.876 88.0342 127.742 88.0076C127.613 87.9853 127.491 87.9609 127.376 87.9342L127.369 86.7072C127.413 86.7117 127.467 86.7161 127.529 86.7206C127.596 86.725 127.649 86.7273 127.689 86.7273C127.956 86.7273 128.178 86.6939 128.356 86.6272C128.534 86.565 128.678 86.4627 128.789 86.3205C128.905 86.1782 129.003 85.9871 129.083 85.747L129.603 84.3467ZM128.496 77.9185L130.21 83.3198L130.496 85.0135L129.383 85.3003L126.762 77.9185H128.496ZM133.79 81.606V81.4527C133.79 80.9326 133.866 80.4502 134.017 80.0057C134.168 79.5567 134.386 79.1677 134.671 78.8387C134.96 78.5053 135.311 78.2475 135.724 78.0652C136.142 77.8785 136.613 77.7851 137.138 77.7851C137.667 77.7851 138.138 77.8785 138.552 78.0652C138.969 78.2475 139.323 78.5053 139.612 78.8387C139.901 79.1677 140.121 79.5567 140.272 80.0057C140.423 80.4502 140.499 80.9326 140.499 81.4527V81.606C140.499 82.1262 140.423 82.6085 140.272 83.0531C140.121 83.4976 139.901 83.8866 139.612 84.22C139.323 84.549 138.972 84.8068 138.558 84.9935C138.145 85.1758 137.676 85.2669 137.151 85.2669C136.622 85.2669 136.149 85.1758 135.731 84.9935C135.317 84.8068 134.966 84.549 134.677 84.22C134.388 83.8866 134.168 83.4976 134.017 83.0531C133.866 82.6085 133.79 82.1262 133.79 81.606ZM135.397 81.4527V81.606C135.397 81.9306 135.431 82.2373 135.498 82.5263C135.564 82.8152 135.669 83.0686 135.811 83.2864C135.953 83.5043 136.135 83.6754 136.358 83.7999C136.58 83.9244 136.844 83.9866 137.151 83.9866C137.449 83.9866 137.707 83.9244 137.925 83.7999C138.147 83.6754 138.329 83.5043 138.472 83.2864C138.614 83.0686 138.718 82.8152 138.785 82.5263C138.856 82.2373 138.892 81.9306 138.892 81.606V81.4527C138.892 81.1326 138.856 80.8303 138.785 80.5458C138.718 80.2568 138.612 80.0012 138.465 79.7789C138.323 79.5567 138.14 79.3833 137.918 79.2588C137.7 79.1299 137.44 79.0654 137.138 79.0654C136.836 79.0654 136.573 79.1299 136.351 79.2588C136.133 79.3833 135.953 79.5567 135.811 79.7789C135.669 80.0012 135.564 80.2568 135.498 80.5458C135.431 80.8303 135.397 81.1326 135.397 81.4527ZM146.187 83.4331V77.9185H147.8V85.1335H146.28L146.187 83.4331ZM146.413 81.9328L146.954 81.9195C146.954 82.404 146.9 82.8508 146.794 83.2598C146.687 83.6643 146.522 84.0177 146.3 84.32C146.078 84.6179 145.793 84.8513 145.447 85.0202C145.1 85.1847 144.684 85.2669 144.2 85.2669C143.848 85.2669 143.526 85.2158 143.233 85.1135C142.939 85.0113 142.686 84.8535 142.472 84.6401C142.264 84.4267 142.101 84.1489 141.986 83.8066C141.87 83.4643 141.812 83.0553 141.812 82.5796V77.9185H143.419V82.5929C143.419 82.8552 143.45 83.0753 143.513 83.2531C143.575 83.4265 143.659 83.5665 143.766 83.6732C143.873 83.7799 143.997 83.8555 144.14 83.8999C144.282 83.9444 144.433 83.9666 144.593 83.9666C145.051 83.9666 145.411 83.8777 145.673 83.6999C145.94 83.5176 146.129 83.2731 146.24 82.9664C146.356 82.6596 146.413 82.3151 146.413 81.9328ZM151.061 79.2922V85.1335H149.454V77.9185H150.988L151.061 79.2922ZM153.268 77.8718L153.255 79.3655C153.157 79.3477 153.051 79.3344 152.935 79.3255C152.824 79.3166 152.713 79.3122 152.602 79.3122C152.326 79.3122 152.084 79.3522 151.875 79.4322C151.666 79.5078 151.49 79.6189 151.348 79.7656C151.21 79.9079 151.103 80.0812 151.028 80.2857C150.952 80.4902 150.908 80.7192 150.894 80.9726L150.528 80.9992C150.528 80.5458 150.572 80.1257 150.661 79.7389C150.75 79.3522 150.883 79.0121 151.061 78.7187C151.243 78.4253 151.47 78.1964 151.741 78.0319C152.017 77.8674 152.335 77.7851 152.695 77.7851C152.793 77.7851 152.897 77.794 153.008 77.8118C153.124 77.8296 153.211 77.8496 153.268 77.8718ZM29.7793 99.6865V96.2457C29.7793 95.9879 29.7326 95.7656 29.6392 95.5789C29.5459 95.3922 29.4036 95.2477 29.2125 95.1455C29.0257 95.0432 28.7901 94.9921 28.5056 94.9921C28.2433 94.9921 28.0166 95.0366 27.8255 95.1255C27.6343 95.2144 27.4854 95.3344 27.3787 95.4855C27.272 95.6367 27.2186 95.8078 27.2186 95.999H25.6183C25.6183 95.7145 25.6872 95.4389 25.825 95.1721C25.9628 94.9054 26.1628 94.6676 26.4251 94.4586C26.6874 94.2497 27.0008 94.0852 27.3654 93.9652C27.7299 93.8452 28.1389 93.7851 28.5923 93.7851C29.1347 93.7851 29.6148 93.8763 30.0326 94.0585C30.455 94.2408 30.7862 94.5164 31.0262 94.8854C31.2707 95.2499 31.393 95.7078 31.393 96.2591V99.4665C31.393 99.7955 31.4152 100.091 31.4596 100.353C31.5085 100.611 31.5775 100.836 31.6664 101.027V101.134H30.0193C29.9437 100.96 29.8837 100.74 29.8393 100.473C29.7993 100.202 29.7793 99.9399 29.7793 99.6865ZM30.0126 96.7458L30.026 97.7394H28.8724C28.5745 97.7394 28.3122 97.7683 28.0855 97.8261C27.8588 97.8794 27.6699 97.9595 27.5187 98.0662C27.3676 98.1728 27.2542 98.3018 27.1786 98.4529C27.1031 98.6041 27.0653 98.7752 27.0653 98.9664C27.0653 99.1575 27.1097 99.3331 27.1986 99.4932C27.2876 99.6488 27.4165 99.771 27.5854 99.8599C27.7588 99.9488 27.9677 99.9933 28.2122 99.9933C28.5412 99.9933 28.8279 99.9266 29.0724 99.7932C29.3214 99.6554 29.517 99.4887 29.6592 99.2931C29.8015 99.0931 29.8771 98.9041 29.8859 98.7263L30.4061 99.4398C30.3527 99.6221 30.2616 99.8177 30.1327 100.027C30.0037 100.236 29.8348 100.436 29.6259 100.627C29.4214 100.813 29.1747 100.967 28.8857 101.087C28.6012 101.207 28.2722 101.267 27.8988 101.267C27.4276 101.267 27.0075 101.174 26.6385 100.987C26.2695 100.796 25.9806 100.54 25.7716 100.22C25.5627 99.8955 25.4582 99.5287 25.4582 99.1197C25.4582 98.7374 25.5294 98.3996 25.6716 98.1062C25.8183 97.8083 26.0317 97.5594 26.3118 97.3593C26.5963 97.1593 26.943 97.0081 27.352 96.9059C27.761 96.7992 28.2278 96.7458 28.7523 96.7458H30.0126ZM37.6945 93.9185H39.1548V100.933C39.1548 101.583 39.017 102.134 38.7414 102.587C38.4657 103.041 38.0812 103.385 37.5878 103.621C37.0943 103.861 36.5231 103.981 35.874 103.981C35.5984 103.981 35.2917 103.941 34.9538 103.861C34.6204 103.781 34.2959 103.652 33.9802 103.474C33.6691 103.301 33.409 103.072 33.2001 102.787L33.9536 101.84C34.2114 102.147 34.4959 102.372 34.8071 102.514C35.1183 102.656 35.445 102.727 35.7873 102.727C36.1563 102.727 36.4697 102.658 36.7276 102.521C36.9898 102.387 37.1921 102.189 37.3344 101.927C37.4766 101.665 37.5478 101.345 37.5478 100.967V95.5522L37.6945 93.9185ZM32.7933 97.606V97.466C32.7933 96.9192 32.86 96.4213 32.9933 95.9723C33.1267 95.5189 33.3179 95.1299 33.5668 94.8054C33.8158 94.4764 34.1181 94.2252 34.4737 94.0519C34.8293 93.8741 35.2316 93.7851 35.6806 93.7851C36.1474 93.7851 36.5453 93.8696 36.8743 94.0385C37.2077 94.2075 37.4855 94.4497 37.7078 94.7654C37.9301 95.0766 38.1034 95.45 38.2279 95.8856C38.3568 96.3169 38.4524 96.797 38.5146 97.326V97.7728C38.4569 98.2884 38.3591 98.7597 38.2212 99.1864C38.0834 99.6132 37.9012 99.9822 37.6744 100.293C37.4477 100.605 37.1677 100.845 36.8342 101.014C36.5053 101.182 36.1163 101.267 35.6673 101.267C35.2272 101.267 34.8293 101.176 34.4737 100.994C34.1225 100.811 33.8202 100.556 33.5668 100.227C33.3179 99.8977 33.1267 99.5109 32.9933 99.0664C32.86 98.6174 32.7933 98.1306 32.7933 97.606ZM34.4003 97.466V97.606C34.4003 97.935 34.4315 98.2418 34.4937 98.5263C34.5604 98.8108 34.6604 99.0619 34.7938 99.2798C34.9316 99.4932 35.105 99.6621 35.3139 99.7866C35.5273 99.9066 35.7784 99.9666 36.0674 99.9666C36.4453 99.9666 36.7542 99.8866 36.9943 99.7265C37.2388 99.5665 37.4255 99.3509 37.5544 99.0797C37.6878 98.8041 37.7811 98.4974 37.8345 98.1595V96.9526C37.8078 96.6903 37.7522 96.4458 37.6678 96.2191C37.5878 95.9923 37.4788 95.7945 37.341 95.6256C37.2032 95.4522 37.0299 95.3188 36.8209 95.2255C36.612 95.1277 36.3652 95.0788 36.0807 95.0788C35.7918 95.0788 35.5406 95.141 35.3272 95.2655C35.1138 95.39 34.9382 95.5611 34.8004 95.7789C34.6671 95.9968 34.567 96.2502 34.5004 96.5391C34.4337 96.8281 34.4003 97.137 34.4003 97.466ZM44.0026 101.267C43.4691 101.267 42.9868 101.18 42.5556 101.007C42.1288 100.829 41.7643 100.582 41.462 100.267C41.1642 99.951 40.9352 99.5798 40.7752 99.1531C40.6151 98.7263 40.5351 98.2662 40.5351 97.7728V97.506C40.5351 96.9414 40.6174 96.4302 40.7818 95.9723C40.9463 95.5144 41.1753 95.1232 41.4687 94.7987C41.7621 94.4698 42.1088 94.2186 42.5089 94.0452C42.909 93.8718 43.3424 93.7851 43.8092 93.7851C44.3249 93.7851 44.7761 93.8718 45.1629 94.0452C45.5496 94.2186 45.8697 94.4631 46.1231 94.7787C46.3809 95.0899 46.5721 95.4611 46.6966 95.8923C46.8255 96.3235 46.89 96.7992 46.89 97.3193V98.0061H41.3153V96.8525H45.3029V96.7258C45.294 96.4369 45.2362 96.1657 45.1295 95.9123C45.0273 95.6589 44.8695 95.4544 44.6561 95.2988C44.4427 95.1432 44.1582 95.0654 43.8026 95.0654C43.5358 95.0654 43.298 95.1232 43.0891 95.2388C42.8846 95.35 42.7134 95.5122 42.5756 95.7256C42.4378 95.939 42.3311 96.1968 42.2555 96.4991C42.1844 96.797 42.1488 97.1326 42.1488 97.506V97.7728C42.1488 98.0884 42.1911 98.3818 42.2755 98.653C42.3644 98.9197 42.4934 99.1531 42.6623 99.3531C42.8312 99.5532 43.0357 99.711 43.2758 99.8266C43.5158 99.9377 43.7892 99.9933 44.096 99.9933C44.4827 99.9933 44.8272 99.9155 45.1295 99.7599C45.4318 99.6043 45.6941 99.3842 45.9164 99.0997L46.7633 99.9199C46.6077 100.147 46.4054 100.364 46.1564 100.573C45.9075 100.778 45.603 100.945 45.2429 101.074C44.8873 101.202 44.4738 101.267 44.0026 101.267ZM49.7373 95.4589V101.134H48.1302V93.9185H49.6439L49.7373 95.4589ZM49.4506 97.2593L48.9304 97.2526C48.9349 96.7414 49.006 96.2724 49.1438 95.8456C49.2861 95.4189 49.4817 95.0521 49.7306 94.7454C49.984 94.4386 50.2863 94.203 50.6375 94.0385C50.9887 93.8696 51.3799 93.7851 51.8111 93.7851C52.1579 93.7851 52.4713 93.834 52.7513 93.9318C53.0358 94.0252 53.2781 94.1786 53.4782 94.392C53.6827 94.6053 53.8383 94.8832 53.9449 95.2255C54.0516 95.5633 54.105 95.979 54.105 96.4724V101.134H52.4913V96.4658C52.4913 96.119 52.4401 95.8456 52.3379 95.6456C52.2401 95.4411 52.0956 95.2966 51.9045 95.2121C51.7178 95.1232 51.4844 95.0788 51.2043 95.0788C50.9287 95.0788 50.682 95.1366 50.4641 95.2522C50.2463 95.3677 50.0618 95.5256 49.9107 95.7256C49.764 95.9257 49.6506 96.1568 49.5706 96.4191C49.4906 96.6814 49.4506 96.9615 49.4506 97.2593ZM58.6927 99.9866C58.955 99.9866 59.1906 99.9355 59.3996 99.8332C59.613 99.7265 59.7841 99.5798 59.913 99.3931C60.0464 99.2064 60.1197 98.9908 60.1331 98.7463H61.6468C61.6379 99.2131 61.5001 99.6376 61.2333 100.02C60.9666 100.402 60.6132 100.707 60.1731 100.933C59.733 101.156 59.2462 101.267 58.7127 101.267C58.1615 101.267 57.6814 101.174 57.2724 100.987C56.8634 100.796 56.5233 100.533 56.2522 100.2C55.981 99.8666 55.7765 99.482 55.6387 99.0464C55.5053 98.6107 55.4386 98.144 55.4386 97.6461V97.4127C55.4386 96.9148 55.5053 96.448 55.6387 96.0123C55.7765 95.5722 55.981 95.1855 56.2522 94.8521C56.5233 94.5187 56.8634 94.2586 57.2724 94.0719C57.6814 93.8807 58.1593 93.7851 58.7061 93.7851C59.284 93.7851 59.7908 93.9007 60.2264 94.1319C60.6621 94.3586 61.0044 94.6765 61.2533 95.0855C61.5067 95.49 61.6379 95.9612 61.6468 96.4991H60.1331C60.1197 96.2324 60.0531 95.9923 59.933 95.7789C59.8174 95.5611 59.653 95.3877 59.4396 95.2588C59.2306 95.1299 58.9795 95.0654 58.6861 95.0654C58.3615 95.0654 58.0926 95.1321 57.8792 95.2655C57.6658 95.3944 57.4991 95.5722 57.3791 95.799C57.2591 96.0212 57.1724 96.2724 57.119 96.5525C57.0701 96.8281 57.0457 97.1148 57.0457 97.4127V97.6461C57.0457 97.9439 57.0701 98.2329 57.119 98.5129C57.1679 98.793 57.2524 99.0442 57.3724 99.2664C57.4969 99.4843 57.6658 99.6599 57.8792 99.7932C58.0926 99.9221 58.3638 99.9866 58.6927 99.9866ZM64.9742 100.347L66.9347 93.9185H68.6551L65.7611 102.234C65.6944 102.412 65.6077 102.605 65.501 102.814C65.3943 103.023 65.2543 103.221 65.0809 103.407C64.912 103.599 64.7008 103.752 64.4474 103.868C64.194 103.988 63.8873 104.048 63.5272 104.048C63.385 104.048 63.2471 104.034 63.1138 104.008C62.9849 103.985 62.8626 103.961 62.747 103.934L62.7404 102.707C62.7848 102.712 62.8382 102.716 62.9004 102.721C62.9671 102.725 63.0204 102.727 63.0604 102.727C63.3272 102.727 63.5494 102.694 63.7273 102.627C63.9051 102.565 64.0496 102.463 64.1607 102.32C64.2763 102.178 64.3741 101.987 64.4541 101.747L64.9742 100.347ZM63.8673 93.9185L65.581 99.3198L65.8678 101.014L64.7542 101.3L62.1335 93.9185H63.8673ZM75.9235 99.9866C76.1857 99.9866 76.4214 99.9355 76.6303 99.8332C76.8437 99.7265 77.0148 99.5798 77.1437 99.3931C77.2771 99.2064 77.3505 98.9908 77.3638 98.7463H78.8775C78.8686 99.2131 78.7308 99.6376 78.4641 100.02C78.1973 100.402 77.8439 100.707 77.4038 100.933C76.9637 101.156 76.4769 101.267 75.9435 101.267C75.3922 101.267 74.9121 101.174 74.5031 100.987C74.0941 100.796 73.7541 100.533 73.4829 100.2C73.2117 99.8666 73.0072 99.482 72.8694 99.0464C72.736 98.6107 72.6694 98.144 72.6694 97.6461V97.4127C72.6694 96.9148 72.736 96.448 72.8694 96.0123C73.0072 95.5722 73.2117 95.1855 73.4829 94.8521C73.7541 94.5187 74.0941 94.2586 74.5031 94.0719C74.9121 93.8807 75.39 93.7851 75.9368 93.7851C76.5147 93.7851 77.0215 93.9007 77.4572 94.1319C77.8928 94.3586 78.2351 94.6765 78.4841 95.0855C78.7375 95.49 78.8686 95.9612 78.8775 96.4991H77.3638C77.3505 96.2324 77.2838 95.9923 77.1638 95.7789C77.0482 95.5611 76.8837 95.3877 76.6703 95.2588C76.4614 95.1299 76.2102 95.0654 75.9168 95.0654C75.5923 95.0654 75.3233 95.1321 75.1099 95.2655C74.8966 95.3944 74.7298 95.5722 74.6098 95.799C74.4898 96.0212 74.4031 96.2724 74.3498 96.5525C74.3009 96.8281 74.2764 97.1148 74.2764 97.4127V97.6461C74.2764 97.9439 74.3009 98.2329 74.3498 98.5129C74.3987 98.793 74.4831 99.0442 74.6032 99.2664C74.7276 99.4843 74.8966 99.6599 75.1099 99.7932C75.3233 99.9221 75.5945 99.9866 75.9235 99.9866ZM81.6982 90.8911V101.134H80.0978V90.8911H81.6982ZM81.4181 97.2593L80.898 97.2526C80.9024 96.7547 80.9713 96.2946 81.1047 95.8723C81.2425 95.45 81.4337 95.0832 81.6782 94.772C81.9271 94.4564 82.2249 94.2141 82.5717 94.0452C82.9184 93.8718 83.303 93.7851 83.7253 93.7851C84.0809 93.7851 84.401 93.834 84.6855 93.9318C84.9745 94.0296 85.2234 94.1875 85.4324 94.4053C85.6413 94.6187 85.7991 94.8987 85.9058 95.2455C86.017 95.5878 86.0725 96.0057 86.0725 96.4991V101.134H84.4588V96.4858C84.4588 96.139 84.4077 95.8634 84.3054 95.6589C84.2076 95.4544 84.0632 95.3077 83.872 95.2188C83.6808 95.1255 83.4475 95.0788 83.1718 95.0788C82.8829 95.0788 82.6273 95.1366 82.405 95.2522C82.1872 95.3677 82.0049 95.5256 81.8582 95.7256C81.7115 95.9257 81.6004 96.1568 81.5248 96.4191C81.4537 96.6814 81.4181 96.9615 81.4181 97.2593ZM91.7672 99.6865V96.2457C91.7672 95.9879 91.7205 95.7656 91.6272 95.5789C91.5338 95.3922 91.3916 95.2477 91.2004 95.1455C91.0137 95.0432 90.7781 94.9921 90.4936 94.9921C90.2313 94.9921 90.0046 95.0366 89.8134 95.1255C89.6222 95.2144 89.4733 95.3344 89.3666 95.4855C89.2599 95.6367 89.2066 95.8078 89.2066 95.999H87.6062C87.6062 95.7145 87.6751 95.4389 87.8129 95.1721C87.9507 94.9054 88.1508 94.6676 88.4131 94.4586C88.6754 94.2497 88.9888 94.0852 89.3533 93.9652C89.7178 93.8452 90.1268 93.7851 90.5803 93.7851C91.1226 93.7851 91.6027 93.8763 92.0206 94.0585C92.4429 94.2408 92.7741 94.5164 93.0142 94.8854C93.2587 95.2499 93.3809 95.7078 93.3809 96.2591V99.4665C93.3809 99.7955 93.4031 100.091 93.4476 100.353C93.4965 100.611 93.5654 100.836 93.6543 101.027V101.134H92.0073C91.9317 100.96 91.8717 100.74 91.8272 100.473C91.7872 100.202 91.7672 99.9399 91.7672 99.6865ZM92.0006 96.7458L92.0139 97.7394H90.8603C90.5625 97.7394 90.3002 97.7683 90.0735 97.8261C89.8467 97.8794 89.6578 97.9595 89.5067 98.0662C89.3555 98.1728 89.2422 98.3018 89.1666 98.4529C89.091 98.6041 89.0532 98.7752 89.0532 98.9664C89.0532 99.1575 89.0977 99.3331 89.1866 99.4932C89.2755 99.6488 89.4044 99.771 89.5733 99.8599C89.7467 99.9488 89.9557 99.9933 90.2002 99.9933C90.5291 99.9933 90.8159 99.9266 91.0604 99.7932C91.3093 99.6554 91.5049 99.4887 91.6472 99.2931C91.7894 99.0931 91.865 98.9041 91.8739 98.7263L92.394 99.4398C92.3407 99.6221 92.2495 99.8177 92.1206 100.027C91.9917 100.236 91.8228 100.436 91.6138 100.627C91.4093 100.813 91.1626 100.967 90.8737 101.087C90.5891 101.207 90.2602 101.267 89.8868 101.267C89.4155 101.267 88.9954 101.174 88.6265 100.987C88.2575 100.796 87.9685 100.54 87.7596 100.22C87.5506 99.8955 87.4462 99.5287 87.4462 99.1197C87.4462 98.7374 87.5173 98.3996 87.6596 98.1062C87.8063 97.8083 88.0196 97.5594 88.2997 97.3593C88.5842 97.1593 88.931 97.0081 89.34 96.9059C89.7489 96.7992 90.2157 96.7458 90.7403 96.7458H92.0006ZM96.675 95.2922V101.134H95.068V93.9185H96.6017L96.675 95.2922ZM98.8822 93.8718L98.8689 95.3655C98.7711 95.3477 98.6644 95.3344 98.5488 95.3255C98.4377 95.3166 98.3265 95.3122 98.2154 95.3122C97.9398 95.3122 97.6975 95.3522 97.4885 95.4322C97.2796 95.5078 97.104 95.6189 96.9618 95.7656C96.8239 95.9079 96.7173 96.0812 96.6417 96.2857C96.5661 96.4902 96.5216 96.7192 96.5083 96.9726L96.1416 96.9992C96.1416 96.5458 96.186 96.1257 96.2749 95.7389C96.3638 95.3522 96.4972 95.0121 96.675 94.7187C96.8573 94.4253 97.084 94.1964 97.3552 94.0319C97.6308 93.8674 97.9487 93.7851 98.3087 93.7851C98.4065 93.7851 98.511 93.794 98.6221 93.8118C98.7377 93.8296 98.8244 93.8496 98.8822 93.8718ZM104.377 93.9185H105.837V100.933C105.837 101.583 105.699 102.134 105.424 102.587C105.148 103.041 104.764 103.385 104.27 103.621C103.777 103.861 103.205 103.981 102.556 103.981C102.281 103.981 101.974 103.941 101.636 103.861C101.303 103.781 100.978 103.652 100.663 103.474C100.351 103.301 100.091 103.072 99.8824 102.787L100.636 101.84C100.894 102.147 101.178 102.372 101.489 102.514C101.801 102.656 102.127 102.727 102.47 102.727C102.839 102.727 103.152 102.658 103.41 102.521C103.672 102.387 103.874 102.189 104.017 101.927C104.159 101.665 104.23 101.345 104.23 100.967V95.5522L104.377 93.9185ZM99.4757 97.606V97.466C99.4757 96.9192 99.5424 96.4213 99.6757 95.9723C99.8091 95.5189 100 95.1299 100.249 94.8054C100.498 94.4764 100.8 94.2252 101.156 94.0519C101.512 93.8741 101.914 93.7851 102.363 93.7851C102.83 93.7851 103.228 93.8696 103.557 94.0385C103.89 94.2075 104.168 94.4497 104.39 94.7654C104.612 95.0766 104.786 95.45 104.91 95.8856C105.039 96.3169 105.135 96.797 105.197 97.326V97.7728C105.139 98.2884 105.041 98.7597 104.904 99.1864C104.766 99.6132 104.584 99.9822 104.357 100.293C104.13 100.605 103.85 100.845 103.517 101.014C103.188 101.182 102.799 101.267 102.35 101.267C101.91 101.267 101.512 101.176 101.156 100.994C100.805 100.811 100.503 100.556 100.249 100.227C100 99.8977 99.8091 99.5109 99.6757 99.0664C99.5424 98.6174 99.4757 98.1306 99.4757 97.606ZM101.083 97.466V97.606C101.083 97.935 101.114 98.2418 101.176 98.5263C101.243 98.8108 101.343 99.0619 101.476 99.2798C101.614 99.4932 101.787 99.6621 101.996 99.7866C102.21 99.9066 102.461 99.9666 102.75 99.9666C103.128 99.9666 103.437 99.8866 103.677 99.7265C103.921 99.5665 104.108 99.3509 104.237 99.0797C104.37 98.8041 104.464 98.4974 104.517 98.1595V96.9526C104.49 96.6903 104.435 96.4458 104.35 96.2191C104.27 95.9923 104.161 95.7945 104.023 95.6256C103.886 95.4522 103.712 95.3188 103.503 95.2255C103.294 95.1277 103.048 95.0788 102.763 95.0788C102.474 95.0788 102.223 95.141 102.01 95.2655C101.796 95.39 101.621 95.5611 101.483 95.7789C101.349 95.9968 101.249 96.2502 101.183 96.5391C101.116 96.8281 101.083 97.137 101.083 97.466ZM110.685 101.267C110.152 101.267 109.669 101.18 109.238 101.007C108.811 100.829 108.447 100.582 108.144 100.267C107.847 99.951 107.618 99.5798 107.458 99.1531C107.298 98.7263 107.218 98.2662 107.218 97.7728V97.506C107.218 96.9414 107.3 96.4302 107.464 95.9723C107.629 95.5144 107.858 95.1232 108.151 94.7987C108.444 94.4698 108.791 94.2186 109.191 94.0452C109.591 93.8718 110.025 93.7851 110.492 93.7851C111.007 93.7851 111.459 93.8718 111.845 94.0452C112.232 94.2186 112.552 94.4631 112.805 94.7787C113.063 95.0899 113.254 95.4611 113.379 95.8923C113.508 96.3235 113.572 96.7992 113.572 97.3193V98.0061H107.998V96.8525H111.985V96.7258C111.976 96.4369 111.919 96.1657 111.812 95.9123C111.71 95.6589 111.552 95.4544 111.338 95.2988C111.125 95.1432 110.841 95.0654 110.485 95.0654C110.218 95.0654 109.98 95.1232 109.771 95.2388C109.567 95.35 109.396 95.5122 109.258 95.7256C109.12 95.939 109.013 96.1968 108.938 96.4991C108.867 96.797 108.831 97.1326 108.831 97.506V97.7728C108.831 98.0884 108.873 98.3818 108.958 98.653C109.047 98.9197 109.176 99.1531 109.345 99.3531C109.514 99.5532 109.718 99.711 109.958 99.8266C110.198 99.9377 110.472 99.9933 110.778 99.9933C111.165 99.9933 111.51 99.9155 111.812 99.7599C112.114 99.6043 112.376 99.3842 112.599 99.0997L113.446 99.9199C113.29 100.147 113.088 100.364 112.839 100.573C112.59 100.778 112.285 100.945 111.925 101.074C111.57 101.202 111.156 101.267 110.685 101.267ZM117.833 98.2729H116.346C116.351 97.8594 116.386 97.5127 116.453 97.2326C116.52 96.9481 116.631 96.6903 116.786 96.4591C116.946 96.2279 117.158 95.9834 117.42 95.7256C117.624 95.53 117.809 95.3455 117.973 95.1721C118.138 94.9943 118.269 94.8076 118.367 94.612C118.465 94.412 118.514 94.183 118.514 93.9252C118.514 93.6451 118.467 93.4073 118.373 93.2117C118.28 93.0161 118.142 92.8672 117.96 92.7649C117.782 92.6627 117.56 92.6115 117.293 92.6115C117.071 92.6115 116.862 92.656 116.666 92.7449C116.471 92.8294 116.313 92.9627 116.193 93.145C116.073 93.3228 116.008 93.5584 116 93.8518H114.393C114.401 93.2917 114.535 92.8205 114.793 92.4382C115.05 92.0558 115.397 91.7691 115.833 91.578C116.269 91.3868 116.755 91.2912 117.293 91.2912C117.889 91.2912 118.398 91.3935 118.82 91.598C119.243 91.798 119.565 92.0914 119.787 92.4782C120.014 92.8605 120.127 93.3228 120.127 93.8652C120.127 94.2564 120.049 94.612 119.894 94.9321C119.738 95.2477 119.536 95.5433 119.287 95.819C119.038 96.0901 118.769 96.3613 118.48 96.6325C118.231 96.8592 118.062 97.1059 117.973 97.3727C117.884 97.6349 117.838 97.935 117.833 98.2729ZM116.213 100.353C116.213 100.113 116.295 99.911 116.46 99.7466C116.624 99.5776 116.849 99.4932 117.133 99.4932C117.418 99.4932 117.642 99.5776 117.807 99.7466C117.971 99.911 118.053 100.113 118.053 100.353C118.053 100.593 117.971 100.798 117.807 100.967C117.642 101.131 117.418 101.214 117.133 101.214C116.849 101.214 116.624 101.131 116.46 100.967C116.295 100.798 116.213 100.593 116.213 100.353Z" fill="black"/>
<defs>
<filter id="filter0_d_4354_10279" x="0.000614166" y="14.4481" width="208.694" height="150.1" filterUnits="userSpaceOnUse" color-interpolation-filters="sRGB">
<feFlood flood-opacity="0" result="BackgroundImageFix"/>
<feColorMatrix in="SourceAlpha" type="matrix" values="0 0 0 0 0 0 0 0 0 0 0 0 0 0 0 0 0 0 127 0" result="hardAlpha"/>
<feOffset/>
<feGaussianBlur stdDeviation="4.01336"/>
<feComposite in2="hardAlpha" operator="out"/>
<feColorMatrix type="matrix" values="0 0 0 0 0 0 0 0 0 0 0 0 0 0 0 0 0 0 0.4 0"/>
<feBlend mode="normal" in2="BackgroundImageFix" result="effect1_dropShadow_4354_10279"/>
<feBlend mode="normal" in="SourceGraphic" in2="effect1_dropShadow_4354_10279" result="shape"/>
</filter>
</defs>
</svg>
