<svg width="157" height="63" viewBox="0 0 157 63" fill="none" xmlns="http://www.w3.org/2000/svg">
<path d="M17.8088 37.7902C19.4446 38.1595 20.7374 38.9774 21.6872 40.2438C22.6634 41.4838 23.1515 42.9085 23.1515 44.5179C23.1515 46.8924 22.3336 48.7525 20.6978 50.098C19.0621 51.4436 16.7667 52.1164 13.8117 52.1164H0V24.2159H13.3764C16.2258 24.2159 18.4552 24.8491 20.0646 26.1155C21.7004 27.3819 22.5183 29.1628 22.5183 31.4581C22.5183 33.0939 22.083 34.4658 21.2123 35.5739C20.368 36.6557 19.2335 37.3944 17.8088 37.7902ZM7.75674 35.2969H11.6747C13.6271 35.2969 14.6032 34.4922 14.6032 32.8828C14.6032 31.2207 13.6271 30.3896 11.6747 30.3896H7.75674V35.2969ZM12.2683 45.8635C14.2207 45.8635 15.1969 45.0456 15.1969 43.4098C15.1969 42.5656 14.933 41.9192 14.4054 41.4706C13.9041 41.0221 13.1785 40.7979 12.2287 40.7979H7.75674V45.8635H12.2683Z" fill="#00BFA6"/>
<path d="M34.3077 22.8307V52.1164H26.5509V22.8307H34.3077Z" fill="#00BFA6"/>
<path d="M61.4411 29.9147V52.1164H53.6448V48.9504C52.9852 49.9529 52.075 50.7708 50.9141 51.404C49.7532 52.0108 48.4209 52.3142 46.917 52.3142C44.3314 52.3142 42.2867 51.47 40.7829 49.7814C39.3054 48.0665 38.5666 45.7448 38.5666 42.8162V29.9147H46.2838V41.8268C46.2838 43.0932 46.6136 44.0958 47.2732 44.8345C47.9592 45.5469 48.8562 45.9031 49.9643 45.9031C51.0988 45.9031 51.9958 45.5469 52.6554 44.8345C53.315 44.0958 53.6448 43.0932 53.6448 41.8268V29.9147H61.4411Z" fill="#00BFA6"/>
<path d="M115.854 33.0016C116.461 31.9726 117.318 31.1547 118.427 30.5479C119.535 29.9411 120.841 29.6377 122.345 29.6377C124.112 29.6377 125.708 30.0994 127.133 31.0228C128.584 31.9462 129.719 33.2654 130.537 34.9803C131.381 36.6952 131.803 38.7004 131.803 40.9957C131.803 43.2911 131.381 45.3094 130.537 47.0507C129.719 48.7657 128.584 50.0848 127.133 51.0083C125.708 51.9317 124.112 52.3934 122.345 52.3934C120.841 52.3934 119.535 52.09 118.427 51.4832C117.345 50.8763 116.487 50.0585 115.854 49.0295V62.7225H108.097V29.9147H115.854V33.0016ZM123.928 40.9957C123.928 39.5447 123.532 38.4234 122.74 37.6318C121.975 36.814 121.025 36.405 119.891 36.405C118.756 36.405 117.793 36.814 117.002 37.6318C116.237 38.4497 115.854 39.571 115.854 40.9957C115.854 42.4468 116.237 43.5813 117.002 44.3992C117.793 45.2171 118.756 45.626 119.891 45.626C121.025 45.626 121.975 45.2171 122.74 44.3992C123.532 43.5549 123.928 42.4204 123.928 40.9957Z" fill="#00BFA6"/>
<path d="M145.325 52.3934C143.109 52.3934 141.117 51.9317 139.35 51.0083C137.608 50.0848 136.236 48.7657 135.234 47.0507C134.231 45.3358 133.73 43.3175 133.73 40.9957C133.73 38.7004 134.231 36.6952 135.234 34.9803C136.263 33.2654 137.648 31.9462 139.389 31.0228C141.157 30.0994 143.149 29.6377 145.365 29.6377C147.581 29.6377 149.56 30.0994 151.301 31.0228C153.069 31.9462 154.454 33.2654 155.457 34.9803C156.486 36.6952 157 38.7004 157 40.9957C157 43.2911 156.486 45.3094 155.457 47.0507C154.454 48.7657 153.069 50.0848 151.301 51.0083C149.534 51.9317 147.542 52.3934 145.325 52.3934ZM145.325 45.6656C146.407 45.6656 147.304 45.2699 148.016 44.4784C148.755 43.6605 149.125 42.4996 149.125 40.9957C149.125 39.4919 148.755 38.3442 148.016 37.5527C147.304 36.7612 146.42 36.3654 145.365 36.3654C144.31 36.3654 143.426 36.7612 142.713 37.5527C142.001 38.3442 141.645 39.4919 141.645 40.9957C141.645 42.526 141.988 43.6869 142.674 44.4784C143.36 45.2699 144.244 45.6656 145.325 45.6656Z" fill="#00BFA6"/>
<path d="M95.636 29.7755C98.4327 29.7755 100.623 30.6199 102.206 32.3084C103.815 33.997 104.62 36.3055 104.62 39.234V52.1752H96.863V40.263C96.863 39.0758 96.5331 38.1524 95.8735 37.4928C95.214 36.8332 94.3168 36.5033 93.1823 36.5033C92.0479 36.5034 91.1509 36.8332 90.4913 37.4928C89.8318 38.1524 89.5019 39.0757 89.5019 40.263V52.1752H80.894V40.263C80.894 39.0758 80.5643 38.1524 79.9048 37.4928C79.2452 36.8332 78.3481 36.5033 77.2136 36.5033C76.0791 36.5034 75.1822 36.8332 74.5226 37.4928C73.863 38.1524 73.5331 39.0757 73.5331 40.263V52.1752H65.7764V39.234C65.7764 36.3055 66.581 33.997 68.1904 32.3084C69.7734 30.6199 71.9633 29.7756 74.7599 29.7755C76.3165 29.7755 77.7414 30.158 79.0342 30.9231C80.1068 31.5361 81.0066 32.3127 81.7341 33.2526V29.8129C83.0075 29.9213 84.1589 30.2652 85.1883 30.8442C86.481 31.5565 87.4967 32.5591 88.2354 33.8518C89.0269 32.6382 90.0692 31.6619 91.3619 30.9231C92.6547 30.158 94.0794 29.7755 95.636 29.7755Z" fill="#00BFA6"/>
<path d="M71.8975 30.1253C72.3666 30.7759 72.8221 31.352 73.2461 31.8392L71.2686 33.5608L69.291 35.2815C68.7403 34.6488 68.153 33.9055 67.5547 33.0677C67.751 32.8025 67.9616 32.548 68.1904 32.3079C69.1859 31.2461 70.422 30.5194 71.8975 30.1253ZM98.5586 30.1409C100.008 30.5386 101.224 31.2604 102.206 32.3079C102.449 32.5628 102.671 32.8343 102.877 33.1175C102.291 33.9345 101.718 34.6617 101.179 35.2815L99.2002 33.5608L97.2227 31.8392C97.6431 31.356 98.0936 30.7849 98.5586 30.1409ZM78.3555 30.5638C78.5854 30.6726 78.812 30.7917 79.0342 30.9231C79.684 31.2945 80.2699 31.7267 80.793 32.2181L78.7324 32.5853C78.6166 31.9335 78.4891 31.2583 78.3555 30.5638ZM92.1201 30.5257C91.9837 31.2335 91.8552 31.9217 91.7373 32.5853L89.6123 32.2073C90.133 31.7199 90.7166 31.2921 91.3623 30.9231C91.61 30.7765 91.8627 30.6442 92.1201 30.5257ZM81.7344 29.8128C82.3963 29.8691 83.025 29.9906 83.6211 30.1741C83.7173 30.6851 83.8095 31.1834 83.8955 31.6673L81.7344 32.0511V29.8128ZM98.1064 0.84795C99.4607 -0.00597871 101.16 -0.337359 102.883 0.432911C104.399 1.1108 105.534 2.47473 106.429 4.0169C110.035 10.2348 109.771 16.8613 108.149 22.4007C107.17 25.7457 105.672 28.7842 104.123 31.2581C104.006 31.1205 103.884 30.9853 103.758 30.8528C102.636 29.6562 101.297 28.8168 99.7881 28.2972C101.064 26.2277 102.307 23.692 103.116 20.928C104.476 16.2834 104.558 11.2462 101.892 6.64775C101.409 5.81508 101.047 5.4532 100.867 5.30791C100.58 5.5028 100.101 5.97738 99.4932 6.92705C98.883 7.87991 98.2524 9.13515 97.6191 10.6468C95.7081 15.209 94.0278 21.492 92.8066 27.1575C91.1731 26.7897 89.2251 26.3186 87.665 26.1243C88.928 20.2508 90.6978 13.5966 92.7822 8.62041C93.4832 6.94715 94.2475 5.39558 95.0771 4.0999C95.8822 2.8427 96.875 1.62466 98.1064 0.84795ZM67.5869 0.432911C69.3102 -0.337299 71.0091 -0.0061583 72.3633 0.84795C73.5948 1.62469 74.5875 2.84265 75.3926 4.0999C76.2222 5.39561 76.9866 6.94713 77.6875 8.62041C79.8105 13.6886 81.6059 20.4977 82.873 26.4495C81.4278 26.6221 79.5972 26.9086 77.6865 27.2728C76.4634 21.5774 74.7745 15.2399 72.8506 10.6468C72.2174 9.13507 71.5858 7.87995 70.9756 6.92705C70.3667 5.97625 69.888 5.50232 69.6006 5.30791C69.42 5.45373 69.0593 5.81649 68.5771 6.64775C65.9103 11.2462 65.9929 16.2834 67.3525 20.928C68.2341 23.9393 69.6282 26.6807 71.0225 28.8421C68.9724 29.4519 67.3537 30.1105 66.7363 30.7503L66.6387 30.8528C66.5277 30.9696 66.4208 31.0894 66.3164 31.2103C64.7784 28.745 63.2932 25.7243 62.3203 22.4007C60.6988 16.8613 60.4349 10.2349 64.041 4.0169C64.9354 2.47475 66.0706 1.11071 67.5869 0.432911Z" fill="#00BFA6"/>
</svg>
