<svg width="702" height="351" viewBox="0 0 702 351" fill="none" xmlns="http://www.w3.org/2000/svg">
<path d="M156.863 56.1015H46.7773V127.805H156.863V56.1015Z" fill="white" stroke="#3D4043" stroke-linecap="round" stroke-linejoin="round"/>
<path d="M153.023 59.9274H50.6074V123.979H153.023V59.9274Z" fill="#F1F3F4"/>
<path d="M134.972 100.725H69.9375V111.267H134.972V100.725Z" fill="#397D49"/>
<path d="M100.432 71.3232C100.008 71.3244 99.5934 71.4513 99.2411 71.6879C98.8888 71.9245 98.6145 72.2602 98.4529 72.6526C98.2913 73.045 98.2496 73.4765 98.3331 73.8926C98.4166 74.3087 98.6216 74.6907 98.922 74.9903C99.2225 75.29 99.6051 75.4939 100.021 75.5763C100.438 75.6586 100.869 75.6158 101.261 75.4531C101.653 75.2904 101.988 75.0153 102.224 74.6623C102.459 74.3094 102.585 73.8945 102.585 73.4701C102.589 73.1866 102.536 72.9052 102.429 72.6425C102.322 72.3799 102.164 72.1414 101.963 71.9411C101.762 71.7409 101.523 71.583 101.26 71.4769C100.997 71.3707 100.716 71.3185 100.432 71.3232ZM100.432 74.7747C100.171 74.7935 99.9103 74.7332 99.6838 74.6018C99.4573 74.4703 99.2756 74.2738 99.1624 74.0377C99.0492 73.8015 99.0096 73.5368 99.0489 73.2779C99.0881 73.019 99.2044 72.7779 99.3825 72.586C99.5607 72.3941 99.7925 72.2602 100.048 72.2018C100.303 72.1434 100.57 72.1632 100.814 72.2586C101.058 72.354 101.267 72.5205 101.415 72.7366C101.563 72.9527 101.643 73.2083 101.643 73.4701C101.651 73.6357 101.626 73.8012 101.569 73.9569C101.512 74.1126 101.425 74.2553 101.312 74.3768C101.199 74.4983 101.063 74.5961 100.912 74.6644C100.761 74.7327 100.598 74.7702 100.432 74.7747ZM106.206 71.8087H106.171C106.029 71.6514 105.854 71.5265 105.66 71.4427C105.465 71.3589 105.254 71.3181 105.042 71.3232C104.473 71.3232 103.927 71.5494 103.524 71.952C103.121 72.3547 102.895 72.9007 102.895 73.4701C102.895 74.0396 103.121 74.5856 103.524 74.9883C103.927 75.3909 104.473 75.6171 105.042 75.6171C105.254 75.6237 105.465 75.5837 105.661 75.4998C105.856 75.4159 106.03 75.2902 106.171 75.1315H106.206V75.465C106.23 75.6282 106.217 75.7947 106.169 75.9523C106.12 76.1098 106.036 76.2543 105.924 76.3751C105.811 76.4959 105.673 76.5898 105.519 76.65C105.366 76.7102 105.201 76.7351 105.036 76.7227C104.801 76.7188 104.573 76.6441 104.381 76.5085C104.189 76.3728 104.042 76.1825 103.96 75.9623L103.135 76.3015C103.291 76.6773 103.555 76.9984 103.893 77.2243C104.232 77.4503 104.629 77.5709 105.036 77.571C106.148 77.571 107.078 76.9216 107.078 75.3363V71.4812H106.189L106.206 71.8087ZM105.124 74.7747C104.794 74.7526 104.484 74.6058 104.258 74.3641C104.032 74.1225 103.907 73.8039 103.907 73.4731C103.907 73.1422 104.032 72.8237 104.258 72.582C104.484 72.3404 104.794 72.1936 105.124 72.1715C105.288 72.1773 105.449 72.2162 105.598 72.2859C105.746 72.3556 105.879 72.4547 105.988 72.5771C106.098 72.6995 106.181 72.8428 106.234 72.9982C106.286 73.1537 106.307 73.3182 106.294 73.4819C106.307 73.6446 106.286 73.8082 106.233 73.9627C106.181 74.1173 106.097 74.2594 105.988 74.3804C105.878 74.5015 105.745 74.5989 105.596 74.6667C105.448 74.7345 105.287 74.7712 105.124 74.7747ZM95.7289 71.3232C95.3047 71.3255 94.8908 71.4534 94.5393 71.6907C94.1878 71.928 93.9144 72.2641 93.7537 72.6566C93.593 73.0491 93.5521 73.4804 93.6363 73.8961C93.7205 74.3118 93.9258 74.6933 94.2266 74.9924C94.5273 75.2914 94.9098 75.4948 95.326 75.5767C95.7421 75.6586 96.1732 75.6154 96.5648 75.4525C96.9565 75.2897 97.2911 75.0145 97.5265 74.6617C97.7619 74.3089 97.8875 73.8943 97.8875 73.4701C97.8915 73.1861 97.8383 72.9042 97.7311 72.6411C97.6238 72.3781 97.4648 72.1393 97.2634 71.939C97.062 71.7387 96.8223 71.5809 96.5587 71.4751C96.2951 71.3694 96.0129 71.3177 95.7289 71.3232ZM95.7289 74.7747C95.4678 74.7923 95.2075 74.731 94.9818 74.5988C94.756 74.4665 94.5752 74.2695 94.4629 74.0332C94.3506 73.7969 94.3119 73.5323 94.3519 73.2737C94.3919 73.0152 94.5087 72.7746 94.6871 72.5833C94.8656 72.392 95.0974 72.2587 95.3526 72.2009C95.6077 72.143 95.8744 72.1632 96.1179 72.2588C96.3614 72.3544 96.5706 72.5211 96.7182 72.7371C96.8658 72.9531 96.9451 73.2085 96.9457 73.4701C96.9535 73.6362 96.928 73.8022 96.8708 73.9582C96.8135 74.1143 96.7256 74.2573 96.6122 74.3789C96.4988 74.5004 96.3622 74.5981 96.2105 74.6661C96.0588 74.734 95.8951 74.771 95.7289 74.7747ZM90.1421 71.9843V72.8969H92.3183C92.2922 73.3325 92.1166 73.7457 91.8211 74.0668C91.6033 74.289 91.3413 74.4632 91.0522 74.578C90.763 74.6929 90.453 74.7459 90.1421 74.7337C89.5196 74.7032 88.9327 74.4343 88.5029 73.983C88.0732 73.5316 87.8335 72.9322 87.8335 72.3089C87.8335 71.6857 88.0732 71.0863 88.5029 70.6349C88.9327 70.1835 89.5196 69.9147 90.1421 69.8841C90.7519 69.8789 91.3396 70.1118 91.7801 70.5334L92.4236 69.8958C92.1237 69.5985 91.7673 69.3641 91.3755 69.2064C90.9837 69.0486 90.5644 68.9708 90.1421 68.9774C89.6928 68.9585 89.2444 69.0307 88.8238 69.1897C88.4032 69.3486 88.0191 69.591 87.6945 69.9022C87.37 70.2134 87.1117 70.5871 86.9353 71.0007C86.7589 71.4143 86.668 71.8593 86.668 72.3089C86.668 72.7586 86.7589 73.2036 86.9353 73.6172C87.1117 74.0308 87.37 74.4044 87.6945 74.7156C88.0191 75.0269 88.4032 75.2692 88.8238 75.4282C89.2444 75.5871 89.6928 75.6593 90.1421 75.6405C90.5538 75.6674 90.9665 75.607 91.3531 75.4631C91.7398 75.3192 92.0916 75.0951 92.3855 74.8056C92.6795 74.5161 92.9088 74.1677 93.0585 73.7833C93.2083 73.3989 93.275 72.9871 93.2543 72.5751C93.2563 72.3791 93.2406 72.1833 93.2075 71.9901L90.1421 71.9843ZM113.01 72.6921C112.881 72.3033 112.635 71.9635 112.307 71.7187C111.978 71.4739 111.582 71.3358 111.173 71.3232C110.897 71.3252 110.625 71.383 110.372 71.4932C110.119 71.6034 109.891 71.7636 109.702 71.9643C109.513 72.1649 109.366 72.4018 109.271 72.6606C109.176 72.9194 109.135 73.1948 109.149 73.4701C109.142 73.7523 109.193 74.0329 109.298 74.2951C109.402 74.5573 109.559 74.7957 109.757 74.9961C109.956 75.1965 110.193 75.3548 110.454 75.4615C110.716 75.5682 110.996 75.6211 111.278 75.6171C111.632 75.6191 111.98 75.5337 112.292 75.3683C112.605 75.203 112.871 74.9628 113.068 74.6694L112.319 74.178C112.209 74.359 112.053 74.5081 111.867 74.6106C111.682 74.7132 111.473 74.7657 111.261 74.763C111.042 74.7705 110.826 74.7127 110.641 74.5971C110.455 74.4814 110.309 74.3131 110.219 74.1137L113.092 72.9437L113.01 72.6921ZM110.085 73.4058C110.074 73.2497 110.094 73.093 110.145 72.945C110.195 72.7969 110.275 72.6605 110.379 72.5438C110.483 72.427 110.61 72.3324 110.751 72.2654C110.892 72.1985 111.046 72.1605 111.202 72.1539C111.366 72.143 111.529 72.1805 111.671 72.2616C111.814 72.3428 111.929 72.464 112.004 72.6102L110.085 73.4058ZM107.745 75.4884H108.687V69.1821H107.745V75.4884ZM117.421 69.1821H115.168V75.465H116.11V73.125H117.421C117.691 73.1459 117.962 73.1107 118.218 73.0217C118.474 72.9327 118.709 72.7917 118.907 72.6077C119.106 72.4237 119.265 72.2006 119.373 71.9523C119.482 71.7041 119.538 71.4361 119.538 71.1653C119.538 70.8944 119.482 70.6264 119.373 70.3782C119.265 70.1299 119.106 69.9068 118.907 69.7228C118.709 69.5388 118.474 69.3978 118.218 69.3088C117.962 69.2198 117.691 69.1846 117.421 69.2055V69.1821ZM117.45 72.2182H116.11V70.0596H117.45C117.598 70.0487 117.747 70.0685 117.888 70.1177C118.028 70.167 118.157 70.2448 118.266 70.346C118.375 70.4473 118.462 70.57 118.522 70.7065C118.581 70.8429 118.612 70.9901 118.612 71.1389C118.612 71.2877 118.581 71.435 118.522 71.5714C118.462 71.7078 118.375 71.8305 118.266 71.9318C118.157 72.0331 118.028 72.1108 117.888 72.1601C117.747 72.2094 117.598 72.2292 117.45 72.2182ZM120.012 75.4884H120.954V69.1821H120.012V75.4884ZM123.271 71.3174C122.926 71.2946 122.582 71.374 122.283 71.5457C121.983 71.7174 121.741 71.9738 121.586 72.2826L122.422 72.6278C122.534 72.4597 122.692 72.3283 122.878 72.25C123.064 72.1716 123.268 72.1498 123.466 72.1873C123.664 72.2248 123.847 72.3199 123.991 72.4607C124.135 72.6015 124.235 72.7817 124.277 72.9787V73.0431C123.975 72.8806 123.637 72.7962 123.294 72.7974C122.393 72.7974 121.475 73.2947 121.475 74.219C121.483 74.4145 121.53 74.6064 121.614 74.7832C121.698 74.96 121.817 75.1182 121.963 75.2481C122.109 75.3781 122.28 75.4772 122.466 75.5396C122.651 75.602 122.847 75.6263 123.043 75.6112C123.275 75.6199 123.505 75.5671 123.711 75.4582C123.916 75.3494 124.089 75.1883 124.213 74.9912H124.248V75.465H125.189V73.049C125.187 72.8065 125.135 72.5672 125.035 72.3461C124.936 72.125 124.792 71.9268 124.612 71.7641C124.433 71.6014 124.221 71.4777 123.991 71.4008C123.761 71.3239 123.518 71.2955 123.277 71.3174H123.271ZM123.154 74.7747C122.844 74.7747 122.417 74.6168 122.417 74.2365C122.417 73.751 122.949 73.5637 123.417 73.5637C123.717 73.5557 124.014 73.6285 124.277 73.7743C124.237 74.0456 124.104 74.2943 123.9 74.4771C123.695 74.6599 123.433 74.7652 123.16 74.7747H123.154ZM128.495 71.4519L127.418 74.1897H127.383L126.266 71.4519H125.248L126.927 75.2778L125.973 77.4013H126.944L129.53 71.4519H128.495Z" fill="#797B7D"/>
<path d="M73.7395 67.0293C73.5999 67.1915 73.5267 67.4005 73.5347 67.6143V77.22C73.5216 77.4434 73.5949 77.6634 73.7395 77.8343L79.1215 72.4523V72.3235L73.7395 66.9416V67.0293Z" fill="#02D8FF"/>
<path d="M80.9463 74.295L79.1504 72.4991V72.3704L80.9463 70.5803H80.9873L83.1108 71.7912C83.2446 71.8326 83.3615 71.9156 83.4446 72.0283C83.5276 72.1409 83.5725 72.2772 83.5725 72.4172C83.5725 72.5571 83.5276 72.6934 83.4446 72.806C83.3615 72.9187 83.2446 73.0018 83.1108 73.0431L80.9873 74.295H80.9463Z" fill="#FFDC00"/>
<path d="M80.9864 74.295L79.1495 72.4581L73.7383 77.8752C73.8646 77.9809 74.024 78.0388 74.1887 78.0388C74.3534 78.0388 74.5129 77.9809 74.6392 77.8752L80.9864 74.295Z" fill="#F83447"/>
<path d="M80.9864 70.6036L74.6392 67C74.5134 66.8933 74.3537 66.8347 74.1887 66.8347C74.0237 66.8347 73.8641 66.8933 73.7383 67L79.1495 72.4113L80.9864 70.6036Z" fill="#00F076"/>
<path d="M119.979 87.0831V91.3594" stroke="#5E6369" stroke-miterlimit="10"/>
<path d="M119.978 91.3594L119.855 91.4881C119.872 91.505 119.891 91.5183 119.913 91.5274C119.934 91.5366 119.958 91.5413 119.981 91.5413C120.005 91.5413 120.028 91.5366 120.049 91.5274C120.071 91.5183 120.09 91.505 120.107 91.4881L119.978 91.3594ZM122.242 89.347C122.275 89.3137 122.294 89.2684 122.294 89.2213C122.294 89.1741 122.275 89.1289 122.242 89.0955C122.209 89.0621 122.163 89.0434 122.116 89.0434C122.069 89.0434 122.024 89.0621 121.991 89.0955L122.242 89.347ZM117.966 89.0955C117.932 89.0621 117.887 89.0434 117.84 89.0434C117.793 89.0434 117.748 89.0621 117.714 89.0955C117.681 89.1289 117.662 89.1741 117.662 89.2213C117.662 89.2684 117.681 89.3137 117.714 89.347L117.966 89.0955ZM120.107 91.4881L122.242 89.347L121.991 89.0955L119.855 91.26L120.107 91.4881ZM120.107 91.2366L117.966 89.0955L117.714 89.347L119.855 91.4881L120.107 91.2366Z" fill="#5E6369"/>
<path d="M81.0469 88.0132H88.2599" stroke="#5E6369" stroke-miterlimit="10"/>
<path d="M81.0469 91.3595H93.1447" stroke="#5E6369" stroke-miterlimit="10"/>
<path d="M92.1605 88.9961C92.3566 88.9972 92.5485 88.9401 92.712 88.8319C92.8755 88.7237 93.0031 88.5693 93.0787 88.3885C93.1542 88.2076 93.1743 88.0083 93.1363 87.816C93.0984 87.6237 93.0041 87.447 92.8655 87.3083C92.7268 87.1697 92.5502 87.0754 92.3578 87.0375C92.1655 86.9995 91.9662 87.0196 91.7854 87.0951C91.6045 87.1707 91.4501 87.2983 91.3419 87.4618C91.2337 87.6253 91.1766 87.8172 91.1778 88.0133C91.1778 88.2739 91.2813 88.5239 91.4656 88.7082C91.6499 88.8925 91.8999 88.9961 92.1605 88.9961Z" fill="#7F858B"/>
<path d="M104.838 91.1839V87.4575" stroke="#FCFCFC" stroke-width="0.21" stroke-linecap="round" stroke-linejoin="round"/>
<path d="M51.1166 69.3576C53.1128 69.3588 55.0644 68.7679 56.7246 67.6598C58.3849 66.5516 59.6792 64.976 60.4439 63.1322C61.2086 61.2883 61.4093 59.2591 61.0206 57.3012C60.6318 55.3433 59.6712 53.5447 58.2602 52.1328C56.8491 50.721 55.051 49.7593 53.0934 49.3694C51.1357 48.9796 49.1064 49.1791 47.2621 49.9427C45.4178 50.7063 43.8414 51.9997 42.7323 53.6593C41.6232 55.319 41.0313 57.2702 41.0313 59.2663C41.0312 61.9417 42.0936 64.5076 43.9848 66.3999C45.8761 68.2922 48.4413 69.356 51.1166 69.3576Z" fill="#00AB47"/>
<path d="M46.8008 59.085L49.9656 62.2499L55.9911 56.16" stroke="white" stroke-linecap="round" stroke-linejoin="round"/>
<path d="M358.067 46.2442L351.182 254.99H371.031L358.067 46.2442Z" fill="#3D4043" stroke="#3D4043" stroke-linecap="round" stroke-linejoin="round"/>
<path d="M468.532 254.99H363.963C362.331 254.984 360.768 254.331 359.616 253.176C358.464 252.02 357.816 250.456 357.814 248.824V45.3141C357.816 43.6823 358.464 42.1175 359.616 40.962C360.768 39.8065 362.331 39.1544 363.963 39.1482H468.532C470.164 39.1544 471.727 39.8064 472.881 40.9617C474.034 42.117 474.683 43.6818 474.686 45.3141V248.824C474.683 250.456 474.034 252.021 472.881 253.176C471.727 254.332 470.164 254.984 468.532 254.99Z" fill="white" stroke="#3D4043" stroke-linecap="round" stroke-linejoin="round"/>
<path d="M397.801 242.658H434.708" stroke="#3D4043" stroke-linecap="round" stroke-linejoin="round"/>
<path d="M388.205 51.48C388.205 52.1741 388.48 52.8398 388.971 53.3311C389.461 53.8224 390.126 54.0992 390.82 54.1008H440.545C440.892 54.1047 441.236 54.0397 441.557 53.9098C441.878 53.7798 442.171 53.5873 442.417 53.3436C442.664 53.0998 442.859 52.8096 442.993 52.4897C443.126 52.1698 443.195 51.8266 443.195 51.48" stroke="#3C4043" stroke-linecap="round" stroke-linejoin="round"/>
<path fill-rule="evenodd" clip-rule="evenodd" d="M405.593 68.9423H407.219C407.277 68.9423 407.277 68.9423 407.283 69.0066C407.307 69.2439 407.307 69.483 407.283 69.7203C407.268 70.2369 407.14 70.744 406.909 71.2062C406.643 71.7184 406.237 72.1444 405.739 72.4347C405.503 72.5726 405.254 72.6863 404.996 72.774C404.819 72.8342 404.637 72.8773 404.452 72.9027C404.228 72.9386 404 72.9543 403.773 72.9495C402.939 72.9328 402.134 72.6349 401.489 72.1041C400.845 71.5733 400.399 70.8406 400.222 70.0245C400.158 69.7209 400.135 69.4101 400.152 69.1002C400.207 68.2592 400.546 67.4617 401.113 66.8387C401.681 66.2158 402.444 65.8044 403.276 65.6721C403.502 65.6362 403.731 65.6205 403.96 65.6253C404.841 65.6441 405.686 65.9735 406.347 66.5555C406.347 66.5555 406.347 66.5555 406.347 66.5906L405.751 67.275C405.751 67.275 405.751 67.275 405.692 67.275C405.422 67.0352 405.106 66.8538 404.762 66.742C404.419 66.6303 404.057 66.5907 403.697 66.6257C403.3 66.6569 402.915 66.7811 402.574 66.9884C402.259 67.1743 401.986 67.4237 401.772 67.7208C401.559 68.0179 401.41 68.3562 401.334 68.7141C401.285 68.917 401.265 69.1258 401.275 69.3342C401.282 69.7479 401.386 70.1542 401.579 70.5201C401.772 70.886 402.049 71.2012 402.387 71.4402C402.707 71.67 403.075 71.8259 403.463 71.8965C403.717 71.9346 403.976 71.9346 404.23 71.8965C404.681 71.8473 405.113 71.6821 405.481 71.4168C405.696 71.2649 405.877 71.0709 406.014 70.8466C406.151 70.6223 406.24 70.3724 406.277 70.1123V69.9543C406.277 69.9192 406.277 69.9192 406.242 69.9192H403.943C403.896 69.9192 403.896 69.9192 403.896 69.8724V69.03C403.896 68.9657 403.896 68.9715 403.955 68.9715H405.593V68.9423Z" fill="#3183FB"/>
<path fill-rule="evenodd" clip-rule="evenodd" d="M421.481 72.4171L421.417 72.464C421.199 72.6518 420.944 72.7914 420.668 72.8734C420.338 72.9728 419.986 72.9728 419.656 72.8734C419.397 72.7994 419.152 72.6827 418.931 72.5283C418.769 72.4207 418.626 72.2862 418.509 72.1305C418.279 71.8544 418.108 71.5338 418.006 71.1887C417.936 70.9596 417.907 70.7201 417.919 70.4808C417.939 70.1726 418.023 69.8719 418.164 69.5974C418.423 69.0811 418.85 68.6683 419.375 68.4274C419.622 68.3097 419.892 68.2478 420.165 68.2461C420.442 68.2524 420.715 68.3224 420.961 68.4509C421.124 68.5344 421.277 68.6365 421.417 68.755C421.417 68.755 421.417 68.755 421.458 68.755C421.499 68.755 421.458 68.755 421.458 68.7199C421.458 68.6848 421.458 68.5327 421.458 68.445C421.458 68.3572 421.458 68.3982 421.511 68.3982H422.406V68.445C422.406 69.9133 422.406 71.37 422.406 72.8442C422.407 73.3525 422.243 73.8474 421.938 74.254C421.747 74.5202 421.494 74.7352 421.2 74.88C421.111 74.9115 421.019 74.9369 420.926 74.9561C420.652 75.0241 420.37 75.0517 420.089 75.038C419.611 75.031 419.15 74.8595 418.784 74.5524C418.579 74.3775 418.407 74.1675 418.275 73.9323C418.229 73.8554 418.188 73.7753 418.153 73.6924L418.977 73.3356C419.013 73.3356 419.013 73.3356 419.03 73.3356C419.117 73.5221 419.238 73.6907 419.387 73.8328C419.532 73.9767 419.714 74.0779 419.913 74.1253C419.968 74.1311 420.023 74.1311 420.077 74.1253C420.255 74.132 420.432 74.1123 420.604 74.0668C420.783 74.0212 420.948 73.9308 421.084 73.8039C421.219 73.677 421.319 73.5179 421.376 73.3415C421.43 73.183 421.462 73.0175 421.47 72.85C421.478 72.7156 421.478 72.5808 421.47 72.4464C421.474 72.437 421.478 72.4273 421.481 72.4171ZM418.995 70.5919C418.986 70.6873 418.986 70.7833 418.995 70.8786C419.049 71.2262 419.23 71.5413 419.504 71.7619C419.668 71.8989 419.867 71.9882 420.078 72.0202C420.29 72.0521 420.506 72.0255 420.703 71.9433C420.994 71.8257 421.232 71.6049 421.37 71.3232C421.541 71.0003 421.591 70.6267 421.511 70.2702C421.449 69.9353 421.268 69.6339 421.002 69.4219C420.862 69.3044 420.696 69.2222 420.518 69.1825C420.339 69.1428 420.154 69.1467 419.978 69.1938C419.703 69.2565 419.46 69.4165 419.293 69.6443C419.087 69.9161 418.982 70.251 418.995 70.5919Z" fill="#3183FB"/>
<path fill-rule="evenodd" clip-rule="evenodd" d="M410.01 72.9671C409.539 72.9671 409.078 72.8273 408.686 72.5654C408.295 72.3035 407.99 71.9313 407.81 71.4959C407.63 71.0605 407.583 70.5815 407.675 70.1194C407.767 69.6574 407.995 69.2332 408.328 68.9004C408.662 68.5677 409.087 68.3414 409.549 68.2502C410.011 68.159 410.49 68.207 410.925 68.3881C411.36 68.5692 411.731 68.8753 411.992 69.2676C412.253 69.6599 412.392 70.1208 412.391 70.592C412.392 70.9046 412.33 71.2142 412.211 71.5031C412.092 71.792 411.916 72.0544 411.695 72.2752C411.473 72.496 411.211 72.6708 410.921 72.7895C410.632 72.9083 410.322 72.9686 410.01 72.9671ZM409.94 72.0369C410.121 72.0439 410.301 72.0138 410.47 71.9484C410.639 71.883 410.793 71.7837 410.922 71.6567C411.193 71.3853 411.349 71.0206 411.359 70.6375C411.369 70.2545 411.231 69.8823 410.975 69.5975C410.755 69.348 410.447 69.1947 410.115 69.1704C409.938 69.1546 409.76 69.1767 409.593 69.2352C409.425 69.2937 409.272 69.3873 409.144 69.5097C408.885 69.755 408.721 70.0844 408.683 70.4392C408.644 70.7939 408.733 71.1508 408.933 71.4461C409.042 71.6178 409.19 71.7611 409.365 71.8639C409.54 71.9667 409.737 72.0261 409.94 72.0369Z" fill="#FC2C25"/>
<path fill-rule="evenodd" clip-rule="evenodd" d="M415.15 72.9671C414.677 72.967 414.216 72.8262 413.823 72.5628C413.431 72.2993 413.126 71.925 412.947 71.4875C412.768 71.0501 412.723 70.5693 412.818 70.1063C412.914 69.6434 413.144 69.2193 413.482 68.888C413.819 68.5567 414.247 68.3332 414.711 68.246C415.176 68.1588 415.656 68.2119 416.09 68.3984C416.524 68.5849 416.893 68.8964 417.15 69.2933C417.407 69.6902 417.539 70.1545 417.531 70.627C417.522 71.2519 417.267 71.8479 416.821 72.2859C416.375 72.7239 415.775 72.9687 415.15 72.9671ZM416.501 70.5919C416.501 70.5334 416.501 70.4632 416.501 70.393C416.459 70.0701 416.309 69.7711 416.074 69.5448C415.934 69.4006 415.76 69.2925 415.569 69.2293C415.377 69.1662 415.174 69.15 414.975 69.1821C414.665 69.2237 414.382 69.3778 414.179 69.615C414.036 69.771 413.928 69.9567 413.864 70.1589C413.801 70.3611 413.782 70.5749 413.81 70.785C413.827 70.9752 413.882 71.1599 413.973 71.328C414.063 71.496 414.187 71.6437 414.337 71.7619C414.476 71.8801 414.639 71.966 414.815 72.0136C414.991 72.0611 415.175 72.0691 415.355 72.0369C415.621 71.9899 415.867 71.8611 416.057 71.6683C416.203 71.53 416.32 71.3632 416.399 71.178C416.479 70.9929 416.52 70.7934 416.519 70.5919H416.501Z" fill="#FFB900"/>
<path fill-rule="evenodd" clip-rule="evenodd" d="M428.132 71.37L428.904 71.8848C428.907 71.8901 428.909 71.8962 428.909 71.9024C428.909 71.9085 428.907 71.9146 428.904 71.9199C428.696 72.2175 428.42 72.4624 428.101 72.6352C427.781 72.808 427.425 72.9038 427.062 72.9152C426.698 72.9265 426.337 72.8531 426.007 72.7006C425.677 72.5482 425.387 72.3209 425.16 72.0369C424.911 71.7124 424.748 71.33 424.686 70.9254C424.621 70.4731 424.688 70.0115 424.879 69.5964C425.07 69.1812 425.377 68.8301 425.763 68.5854C425.972 68.4461 426.207 68.3487 426.453 68.2988C426.869 68.208 427.302 68.2489 427.693 68.4158C427.993 68.5551 428.255 68.766 428.454 69.03C428.658 69.2951 428.818 69.5914 428.928 69.9075C428.928 69.9368 428.963 69.966 428.928 69.9894C428.893 70.0128 428.875 70.0187 428.852 70.0304L425.88 71.2589C425.798 71.294 425.798 71.2589 425.845 71.3583C425.962 71.618 426.17 71.8261 426.43 71.9433C426.574 72.0062 426.729 72.0381 426.886 72.0369C427.119 72.0408 427.349 71.9908 427.559 71.8907C427.787 71.7855 427.978 71.6117 428.103 71.3934C428.103 71.3934 428.126 71.37 428.132 71.37ZM425.658 70.5335L427.775 69.6443C427.775 69.6092 427.74 69.5858 427.723 69.5565C427.63 69.4281 427.508 69.3242 427.366 69.2538C427.224 69.1835 427.068 69.1488 426.909 69.1529C426.707 69.1613 426.507 69.211 426.324 69.2991C426.179 69.3618 426.052 69.4604 425.956 69.5858C425.831 69.7378 425.747 69.9189 425.71 70.1123C425.674 70.2417 425.656 70.3756 425.658 70.5101V70.5335Z" fill="#FC2C25"/>
<path fill-rule="evenodd" clip-rule="evenodd" d="M424.196 69.3342V72.7389C424.196 72.8091 424.196 72.8033 424.137 72.8033H423.213C423.154 72.8033 423.154 72.8033 423.154 72.7448V65.9178C423.154 65.871 423.154 65.871 423.201 65.871H424.125C424.178 65.871 424.172 65.871 424.172 65.9178V69.3401L424.196 69.3342Z" fill="#00AB47"/>
<path d="M365.467 96.5016H378.934" stroke="#D0E1FA" stroke-miterlimit="10"/>
<path d="M386.756 96.5016H400.223" stroke="#3C4043" stroke-linecap="round" stroke-linejoin="round"/>
<path d="M408.26 96.5016H425.09" stroke="#3C4043" stroke-linecap="round" stroke-linejoin="round"/>
<path d="M432.801 96.5016H446.267" stroke="#3C4043" stroke-linecap="round" stroke-linejoin="round"/>
<path d="M454.48 96.5016H467.947" stroke="#3C4043" stroke-linecap="round" stroke-linejoin="round"/>
<path d="M463.688 80.7943H367.351C364.999 80.7943 363.092 82.7011 363.092 85.0531V85.059C363.092 87.4111 364.999 89.3178 367.351 89.3178H463.688C466.04 89.3178 467.947 87.4111 467.947 85.059V85.0531C467.947 82.7011 466.04 80.7943 463.688 80.7943Z" fill="white" stroke="#3B4043" stroke-linecap="round" stroke-linejoin="round"/>
<path d="M371.031 85.2462H409.77" stroke="#3C4043" stroke-linecap="round" stroke-linejoin="round"/>
<path d="M369.1 190.845H434.046" stroke="#D0E1FA" stroke-width="3" stroke-miterlimit="10"/>
<path d="M368.994 201.883H467.947" stroke="#3C4043" stroke-linecap="round" stroke-linejoin="round"/>
<path d="M369.205 210.67H421.604" stroke="#3C4043" stroke-linecap="round" stroke-linejoin="round"/>
<path d="M369.1 224.88H434.046" stroke="#D0E1FA" stroke-width="3" stroke-miterlimit="10"/>
<path d="M340.471 254.99H484.849" stroke="#3D4043" stroke-linecap="round" stroke-linejoin="round"/>
<path d="M467.947 107.845H362.787V178.829H467.947V107.845Z" fill="#FEEFC3"/>
<path d="M467.947 107.845H362.787V178.829H467.947V107.845Z" stroke="#3B4043" stroke-linecap="round" stroke-linejoin="round" stroke-dasharray="10 5"/>
<path d="M468.336 153.557C473.954 153.35 478.339 148.591 478.13 142.928C477.922 137.265 473.198 132.842 467.58 133.049C461.962 133.256 457.577 138.015 457.786 143.678C457.995 149.341 462.718 153.764 468.336 153.557Z" fill="#3CAF5D"/>
<path d="M462.863 143.372H472.656" stroke="white" stroke-linecap="round" stroke-linejoin="round"/>
<path d="M467.76 138.475V148.268" stroke="white" stroke-linecap="round" stroke-linejoin="round"/>
<path d="M468.336 153.557C473.954 153.35 478.339 148.591 478.13 142.928C477.922 137.265 473.198 132.842 467.58 133.049C461.962 133.256 457.577 138.015 457.786 143.678C457.995 149.341 462.718 153.764 468.336 153.557Z" stroke="#3B4043" stroke-linecap="round" stroke-linejoin="round"/>
<path d="M334.094 121.434C334.094 121.434 338.101 119.779 339.604 119.779C341.108 119.779 339.727 121.44 338.727 121.434C337.727 121.428 334.094 121.434 334.094 121.434Z" fill="#FF9E9E"/>
<path d="M247.367 97.6248L249.707 100.175C249.707 100.175 253.621 108.991 253.463 114.338C253.305 119.685 259.272 119.761 257.681 124.938C256.09 130.116 244.846 124.435 244.846 124.435L241.389 110.565L247.367 97.6248Z" fill="#3C4043" stroke="#3C4043" stroke-linecap="round" stroke-linejoin="round"/>
<path d="M243.946 324.722H230.316C230.316 324.722 228.619 321.732 227.841 320.428C227.063 319.123 221.991 319 221.991 319C221.883 317.553 222.019 316.097 222.395 314.695C222.589 313.904 222.937 313.158 223.419 312.501L225.63 263.361L240.84 257.769L232.96 313.168L236.16 318.632L243.946 324.722Z" fill="#FFD5C0"/>
<path d="M308.295 324.523H290.622L286.463 319.41H280.706C280.706 319.41 278.706 316.251 282.157 312.226L282.298 312.068L263.309 248.438L282.029 251.878L293.729 313.303L297.625 317.795L300.497 321.107L308.295 324.523Z" fill="#FFD5C0"/>
<path d="M272.423 128.764L274.535 126.84L288.4 126.606C288.4 126.606 318.182 109.219 322.107 108.687C326.033 108.155 336.428 107.061 338.195 107.933C339.962 108.804 331.502 109.225 331.502 109.225C331.502 109.225 338.441 108.921 338.581 109.916C338.721 110.91 331.491 110.858 331.491 110.858C331.491 110.858 339.014 110.758 338.71 111.536C338.405 112.314 323.874 113.104 323.079 113.73C322.283 114.356 299.158 131.713 299.158 131.713L291.781 136.744H269.68L272.423 128.764Z" fill="#FFD5C0"/>
<path d="M237.306 167.017C237.306 167.017 230.917 178.021 229.794 194.904C228.671 211.788 224.529 271.44 224.529 271.44L282.684 251.93C282.684 251.93 266.427 172.142 258.799 165.514C251.17 158.886 237.306 167.017 237.306 167.017Z" fill="#D2E3FC"/>
<path d="M247.877 125.5L274.536 126.84L273.372 137.276L246.842 138.007L247.877 125.5Z" fill="white" stroke="#3B4043" stroke-linecap="round" stroke-linejoin="round"/>
<path d="M249.673 99.9589C249.673 99.9589 249.035 93.0676 245.906 88.3701C242.776 83.6725 233.773 82.2393 226.489 88.8732C219.206 95.5071 225.805 107.622 220.054 116.526C215.293 123.897 214.052 130.081 218.662 138.025C222.102 143.951 211.642 156.517 224.694 158.892C237.745 161.267 250.047 133.696 243.823 119.375C237.599 105.054 249.673 99.9589 249.673 99.9589Z" fill="#3C4043" stroke="#3C4043" stroke-linecap="round" stroke-linejoin="round"/>
<path d="M244.45 123.493L246.948 123.716C246.948 123.716 260.818 131.251 261.573 136.001C262.327 140.751 258.823 165.514 258.823 165.514C258.823 165.514 248.293 169.264 237.313 167.017L232.218 137.767C231.85 135.654 231.962 133.486 232.544 131.421C233.126 129.357 234.164 127.449 235.581 125.839L244.45 123.493Z" fill="white" stroke="#3B4043" stroke-linecap="round" stroke-linejoin="round"/>
<path d="M236.166 318.609C228.233 319.001 223.419 312.495 223.419 312.495L222.395 314.689C222.019 316.091 221.883 317.547 221.991 318.995L222.705 324.716H226.279L227.695 320.252C227.752 320.302 227.801 320.359 227.841 320.422C228.619 321.727 230.316 324.716 230.316 324.716H243.946L236.166 318.609Z" fill="#00AB47"/>
<path d="M300.51 321.083L297.637 317.772C294.318 318.53 290.841 318.187 287.733 316.795L286.879 316.356C285.042 315.329 283.435 313.935 282.158 312.261C278.707 316.286 280.708 319.445 280.708 319.445L282.041 324.54H285.13L286.458 319.445L290.617 324.54H308.296L300.51 321.083Z" fill="#00AB47"/>
<path d="M251.317 103.545C251.317 103.545 250.773 94.185 242.589 92.0732C242.589 92.0732 236.815 106.072 233.527 106.634C233.527 106.634 231.451 104.674 230.245 107.219C229.04 109.764 234.247 110.852 234.247 110.852C234.247 110.852 234.305 110.969 234.411 111.156H234.305C234.305 111.156 240.033 122.634 234.709 126.98C234.709 126.98 250.44 131.42 250.446 125.81C250.446 125.81 247.053 121.13 246.742 116.105C251.376 114.274 252.323 108.564 251.317 103.545Z" fill="#FFD5C0"/>
<path d="M251.317 103.545C251.317 103.545 250.773 94.185 242.589 92.0732C242.589 92.0732 236.815 106.072 233.527 106.634C233.527 106.634 231.451 104.674 230.245 107.219C229.04 109.764 234.247 110.852 234.247 110.852C234.247 110.852 234.305 110.969 234.411 111.156H234.305C234.305 111.156 240.033 122.634 234.709 126.98C234.709 126.98 250.44 131.42 250.446 125.81C250.446 125.81 247.053 121.13 246.742 116.105C251.376 114.274 252.323 108.564 251.317 103.545Z" stroke="#3B4043" stroke-linecap="round" stroke-linejoin="round"/>
<path d="M419.914 102.141H285.908V192.711H419.914V102.141Z" fill="white" stroke="#3B4043" stroke-linecap="round" stroke-linejoin="round"/>
<path d="M325.477 146.981H318.281V150.544H325.477V146.981Z" fill="#FFB900" stroke="#FFB900" stroke-linecap="round" stroke-linejoin="round"/>
<path d="M343.537 157.33H351.692" stroke="#3C4043" stroke-linecap="round" stroke-linejoin="round"/>
<path d="M318.281 140.277H371.183" stroke="#3C4043" stroke-linecap="round" stroke-linejoin="round"/>
<path d="M330.543 148.766H358.676" stroke="#00AB47" stroke-linecap="round" stroke-linejoin="round"/>
<path d="M318.281 131.818H343.828" stroke="#3C4043" stroke-width="3" stroke-linecap="round" stroke-linejoin="round"/>
<path d="M319.41 158.441C319.63 158.443 319.846 158.378 320.029 158.257C320.213 158.135 320.356 157.962 320.441 157.759C320.526 157.556 320.549 157.333 320.507 157.117C320.465 156.901 320.359 156.702 320.204 156.546C320.049 156.39 319.851 156.284 319.635 156.24C319.419 156.197 319.196 156.219 318.992 156.302C318.789 156.386 318.615 156.529 318.492 156.712C318.37 156.895 318.305 157.11 318.305 157.33C318.305 157.624 318.421 157.906 318.628 158.114C318.835 158.322 319.117 158.44 319.41 158.441Z" fill="#FFBB00"/>
<path d="M324.412 158.441C324.632 158.441 324.847 158.376 325.03 158.254C325.213 158.132 325.355 157.958 325.439 157.755C325.523 157.552 325.545 157.329 325.502 157.113C325.46 156.897 325.354 156.699 325.198 156.544C325.043 156.389 324.845 156.283 324.629 156.24C324.414 156.197 324.19 156.219 323.987 156.303C323.784 156.387 323.61 156.53 323.488 156.712C323.366 156.895 323.301 157.11 323.301 157.33C323.3 157.476 323.328 157.621 323.384 157.756C323.439 157.891 323.521 158.014 323.625 158.118C323.728 158.221 323.851 158.303 323.986 158.358C324.121 158.414 324.266 158.442 324.412 158.441Z" fill="#FFBB00"/>
<path d="M329.432 158.441C329.652 158.441 329.867 158.376 330.049 158.254C330.232 158.132 330.375 157.958 330.459 157.755C330.543 157.552 330.565 157.329 330.522 157.113C330.479 156.897 330.373 156.699 330.218 156.544C330.062 156.389 329.864 156.283 329.649 156.24C329.433 156.197 329.21 156.219 329.006 156.303C328.803 156.387 328.63 156.53 328.508 156.712C328.386 156.895 328.32 157.11 328.32 157.33C328.32 157.625 328.437 157.907 328.646 158.116C328.854 158.324 329.137 158.441 329.432 158.441Z" fill="#FFBB00"/>
<path d="M334.451 158.441C334.671 158.443 334.887 158.378 335.07 158.257C335.254 158.135 335.397 157.962 335.482 157.759C335.567 157.556 335.59 157.333 335.548 157.117C335.506 156.901 335.4 156.702 335.245 156.546C335.09 156.39 334.892 156.284 334.676 156.24C334.46 156.197 334.237 156.219 334.033 156.302C333.83 156.386 333.656 156.529 333.533 156.712C333.411 156.895 333.346 157.11 333.346 157.33C333.346 157.624 333.462 157.906 333.669 158.114C333.876 158.322 334.158 158.44 334.451 158.441Z" fill="#F1F3F4"/>
<path d="M339.477 158.441C339.697 158.441 339.911 158.376 340.094 158.254C340.277 158.132 340.419 157.958 340.504 157.755C340.588 157.552 340.61 157.329 340.567 157.113C340.524 156.897 340.418 156.699 340.263 156.544C340.107 156.389 339.909 156.283 339.694 156.24C339.478 156.197 339.254 156.219 339.051 156.303C338.848 156.387 338.675 156.53 338.553 156.712C338.43 156.895 338.365 157.11 338.365 157.33C338.365 157.625 338.482 157.907 338.691 158.116C338.899 158.324 339.182 158.441 339.477 158.441Z" fill="#F1F3F4"/>
<path d="M413.32 133.567H380.338V141.511H413.32V133.567Z" fill="#3183FB"/>
<path d="M301.182 147.069C306.448 147.069 310.717 142.8 310.717 137.534C310.717 132.267 306.448 127.998 301.182 127.998C295.916 127.998 291.646 132.267 291.646 137.534C291.646 142.8 295.916 147.069 301.182 147.069Z" fill="#D2E3FC"/>
<path d="M291.646 108.933H304.528" stroke="#3B4043" stroke-linecap="round" stroke-linejoin="round"/>
<path d="M310.109 108.933H318.282" stroke="#3B4043" stroke-linecap="round" stroke-linejoin="round"/>
<path d="M291.646 168.252H396.83" stroke="#3B4043" stroke-linecap="round" stroke-linejoin="round"/>
<path d="M291.646 175.354H396.83" stroke="#3B4043" stroke-linecap="round" stroke-linejoin="round"/>
<path d="M291.646 182.461H358.676" stroke="#3B4043" stroke-linecap="round" stroke-linejoin="round"/>
<path d="M357.997 117.491H291.646V118.872H357.997V117.491Z" fill="#FFB900"/>
<path d="M255.249 153.586L258.7 154.966L268.353 165.192C268.353 165.192 302.218 174.494 305.571 177.12C308.923 179.747 315.141 182.912 315.767 184.468C316.393 186.024 311.356 183.567 311.356 183.567C311.356 183.567 318.166 188.932 318.628 190.675C319.09 192.418 303.944 182.35 303.944 182.35L262.731 173.049L249.627 161.46L255.249 153.586Z" fill="#FFD5C0"/>
<path d="M250.89 141.266C254.663 147.701 258.7 154.966 258.7 154.966L249.626 161.46C247.304 158.964 245.118 156.343 243.08 153.609" fill="white"/>
<path d="M250.89 141.266C254.663 147.701 258.7 154.966 258.7 154.966L249.626 161.46C247.304 158.964 245.118 156.343 243.08 153.609" stroke="#3B4043" stroke-linecap="round" stroke-linejoin="round"/>
<path d="M185.748 192.26H76.3301V309.523H185.748V192.26Z" fill="white" stroke="#3D4043" stroke-linecap="round" stroke-linejoin="round"/>
<path fill-rule="evenodd" clip-rule="evenodd" d="M79.8008 262.665H182.275V196.373H79.8008V262.665Z" fill="#F1F3F4"/>
<path fill-rule="evenodd" clip-rule="evenodd" d="M79.8008 262.665H121.195V261.384H79.8008V262.665Z" fill="#FFB900"/>
<path d="M120.75 240.868L141.33 229.513L120.75 218.158V240.868Z" fill="white"/>
<path d="M182.274 268.234H80.0156V305.411H182.274V268.234Z" fill="white" stroke="#3B4043" stroke-linecap="round" stroke-linejoin="round"/>
<path d="M110.214 289.949H104.721V292.67H110.214V289.949Z" fill="#FFB900" stroke="#FFB900" stroke-linecap="round" stroke-linejoin="round"/>
<path d="M123.99 297.847H130.215" stroke="#3C4043" stroke-linecap="round" stroke-linejoin="round"/>
<path d="M104.721 284.836H145.092" stroke="#3C4043" stroke-linecap="round" stroke-linejoin="round"/>
<path d="M114.074 291.312H135.55" stroke="#00AB47" stroke-linecap="round" stroke-linejoin="round"/>
<path d="M104.721 278.378H124.213" stroke="#3C4043" stroke-width="3" stroke-linecap="round" stroke-linejoin="round"/>
<path d="M105.569 298.695C105.737 298.695 105.901 298.645 106.04 298.552C106.18 298.459 106.288 298.327 106.353 298.172C106.417 298.017 106.434 297.846 106.401 297.681C106.368 297.517 106.287 297.366 106.169 297.247C106.05 297.128 105.899 297.048 105.734 297.015C105.57 296.982 105.399 296.999 105.244 297.063C105.089 297.127 104.957 297.236 104.864 297.376C104.77 297.515 104.721 297.679 104.721 297.847C104.721 298.072 104.81 298.288 104.969 298.447C105.128 298.606 105.344 298.695 105.569 298.695Z" fill="#FFBB00"/>
<path d="M109.395 298.695C109.563 298.695 109.727 298.645 109.866 298.552C110.006 298.459 110.115 298.327 110.179 298.172C110.243 298.017 110.26 297.846 110.227 297.681C110.194 297.517 110.114 297.366 109.995 297.247C109.876 297.128 109.725 297.048 109.561 297.015C109.396 296.982 109.226 296.999 109.071 297.063C108.916 297.127 108.783 297.236 108.69 297.376C108.597 297.515 108.547 297.679 108.547 297.847C108.547 298.072 108.636 298.288 108.795 298.447C108.954 298.606 109.17 298.695 109.395 298.695Z" fill="#FFBB00"/>
<path d="M113.233 298.695C113.401 298.695 113.565 298.645 113.704 298.552C113.844 298.459 113.952 298.327 114.017 298.172C114.081 298.017 114.098 297.846 114.065 297.681C114.032 297.517 113.951 297.366 113.833 297.247C113.714 297.128 113.563 297.048 113.399 297.015C113.234 296.982 113.063 296.999 112.908 297.063C112.753 297.127 112.621 297.236 112.528 297.376C112.435 297.515 112.385 297.679 112.385 297.847C112.385 298.072 112.474 298.288 112.633 298.447C112.792 298.606 113.008 298.695 113.233 298.695Z" fill="#FFBB00"/>
<path d="M117.059 298.695C117.227 298.696 117.392 298.648 117.532 298.555C117.672 298.463 117.782 298.33 117.847 298.176C117.912 298.021 117.93 297.85 117.898 297.685C117.866 297.52 117.785 297.368 117.667 297.249C117.549 297.13 117.397 297.049 117.233 297.015C117.068 296.982 116.897 296.999 116.742 297.063C116.586 297.127 116.454 297.235 116.36 297.375C116.267 297.515 116.217 297.679 116.217 297.847C116.217 298.071 116.305 298.286 116.463 298.445C116.621 298.604 116.835 298.694 117.059 298.695Z" fill="#F1F3F4"/>
<path d="M120.895 298.695C121.063 298.695 121.227 298.645 121.366 298.552C121.506 298.459 121.615 298.327 121.679 298.172C121.743 298.017 121.76 297.846 121.727 297.681C121.694 297.517 121.614 297.366 121.495 297.247C121.376 297.128 121.225 297.048 121.061 297.015C120.896 296.982 120.726 296.999 120.571 297.063C120.416 297.127 120.283 297.236 120.19 297.376C120.097 297.515 120.047 297.679 120.047 297.847C120.046 297.959 120.068 298.069 120.11 298.172C120.152 298.276 120.215 298.37 120.294 298.448C120.373 298.527 120.466 298.59 120.57 298.632C120.673 298.675 120.784 298.696 120.895 298.695Z" fill="#F1F3F4"/>
<path d="M177.243 279.712H152.076V285.773H177.243V279.712Z" fill="#3183FB"/>
<path d="M91.67 290.02C95.6892 290.02 98.9474 286.761 98.9474 282.742C98.9474 278.723 95.6892 275.465 91.67 275.465C87.6508 275.465 84.3926 278.723 84.3926 282.742C84.3926 286.761 87.6508 290.02 91.67 290.02Z" fill="#D2E3FC"/>
<path d="M79.0268 206.271C81.0215 206.271 82.9714 205.68 84.63 204.571C86.2885 203.463 87.5812 201.888 88.3445 200.045C89.1078 198.202 89.3076 196.174 88.9184 194.218C88.5293 192.262 87.5687 190.465 86.1583 189.054C84.7478 187.644 82.9507 186.683 80.9944 186.294C79.038 185.905 77.0102 186.105 75.1673 186.868C73.3244 187.631 71.7493 188.924 70.6411 190.582C69.5329 192.241 68.9414 194.191 68.9414 196.186C68.9414 198.86 70.004 201.426 71.8954 203.317C73.7867 205.208 76.352 206.271 79.0268 206.271Z" fill="#00AB47"/>
<path d="M74.6875 195.975L77.8524 199.14L83.9012 193.085" stroke="white" stroke-linecap="round" stroke-linejoin="round"/>
<path d="M660.967 207.33H567.473V309.717H660.967V207.33Z" fill="white" stroke="#3D4043" stroke-linecap="round" stroke-linejoin="round"/>
<path d="M567.451 220.44C569.447 220.441 571.399 219.85 573.059 218.741C574.72 217.633 576.014 216.057 576.778 214.213C577.543 212.369 577.743 210.339 577.354 208.381C576.965 206.423 576.004 204.625 574.592 203.213C573.18 201.801 571.382 200.84 569.424 200.451C567.466 200.062 565.436 200.262 563.592 201.026C561.748 201.791 560.172 203.085 559.063 204.746C557.955 206.406 557.364 208.358 557.365 210.354C557.365 213.029 558.428 215.594 560.319 217.486C562.211 219.377 564.776 220.44 567.451 220.44Z" fill="#00AB47"/>
<path d="M563.127 210.138L566.298 213.303L572.347 207.248" stroke="white" stroke-linecap="round" stroke-linejoin="round"/>
<path d="M624.2 252.556H604.234C603.511 252.556 602.924 253.143 602.924 253.867C602.924 254.59 603.511 255.177 604.234 255.177H624.2C624.924 255.177 625.511 254.59 625.511 253.867C625.511 253.143 624.924 252.556 624.2 252.556Z" fill="#5E6369"/>
<path d="M626.22 212.484H602.223C600.294 212.484 598.73 214.047 598.73 215.976V239.973C598.73 241.902 600.294 243.465 602.223 243.465H626.22C628.148 243.465 629.712 241.902 629.712 239.973V215.976C629.712 214.047 628.148 212.484 626.22 212.484Z" fill="#3183FB"/>
<path d="M606.645 217.702V237.393L618.304 225.74C615.532 221.724 611.384 218.864 606.645 217.702Z" fill="white"/>
<path d="M616.671 237.393H621.784C621.784 237.258 621.784 237.13 621.784 236.995C621.79 232.973 620.565 229.046 618.274 225.74L606.645 237.393C606.721 237.305 611.828 237.34 616.671 237.393Z" fill="#D2E3FC"/>
<path d="M650.929 292.664H577.506V304.569H650.929V292.664Z" fill="#397D49"/>
<path d="M571.521 261.477H656.92" stroke="#3C4043" stroke-linecap="round" stroke-linejoin="round"/>
<path d="M586.451 266.573H641.985" stroke="#3C4043" stroke-linecap="round" stroke-linejoin="round"/>
<path d="M610.148 286.223H618.292" stroke="#3C4043" stroke-linecap="round" stroke-linejoin="round"/>
<path d="M622.697 287.334C622.917 287.334 623.132 287.269 623.315 287.147C623.498 287.025 623.64 286.851 623.724 286.648C623.808 286.445 623.83 286.222 623.788 286.006C623.745 285.791 623.639 285.592 623.483 285.437C623.328 285.282 623.13 285.176 622.914 285.133C622.699 285.09 622.475 285.112 622.272 285.196C622.069 285.28 621.895 285.423 621.773 285.605C621.651 285.788 621.586 286.003 621.586 286.223C621.586 286.518 621.703 286.8 621.912 287.009C622.12 287.217 622.403 287.334 622.697 287.334Z" fill="#E8EAED"/>
<path d="M612.681 275.336C612.257 275.337 611.842 275.464 611.49 275.701C611.138 275.937 610.864 276.273 610.702 276.665C610.54 277.058 610.499 277.489 610.582 277.905C610.666 278.322 610.871 278.704 611.171 279.003C611.472 279.303 611.854 279.507 612.27 279.589C612.687 279.672 613.118 279.629 613.51 279.466C613.902 279.303 614.237 279.028 614.473 278.675C614.708 278.322 614.834 277.907 614.834 277.483C614.838 277.199 614.785 276.918 614.678 276.655C614.571 276.393 614.413 276.154 614.212 275.954C614.011 275.754 613.772 275.596 613.509 275.49C613.246 275.384 612.965 275.331 612.681 275.336ZM612.681 278.788C612.42 278.806 612.159 278.746 611.933 278.615C611.706 278.483 611.525 278.287 611.411 278.051C611.298 277.814 611.259 277.55 611.298 277.291C611.337 277.032 611.454 276.791 611.632 276.599C611.81 276.407 612.042 276.273 612.297 276.215C612.552 276.156 612.819 276.176 613.063 276.271C613.307 276.367 613.516 276.533 613.664 276.749C613.812 276.966 613.892 277.221 613.892 277.483C613.9 277.649 613.875 277.814 613.818 277.97C613.761 278.125 613.674 278.268 613.561 278.39C613.448 278.511 613.312 278.609 613.161 278.677C613.01 278.746 612.847 278.783 612.681 278.788ZM618.449 275.816C618.306 275.66 618.131 275.537 617.937 275.454C617.742 275.372 617.532 275.331 617.32 275.336C616.751 275.336 616.205 275.562 615.802 275.965C615.4 276.368 615.173 276.914 615.173 277.483C615.173 278.052 615.4 278.599 615.802 279.001C616.205 279.404 616.751 279.63 617.32 279.63C617.532 279.635 617.743 279.594 617.938 279.51C618.133 279.427 618.307 279.302 618.449 279.144V279.454C618.474 279.618 618.461 279.784 618.412 279.942C618.363 280.099 618.279 280.244 618.167 280.365C618.054 280.485 617.916 280.579 617.763 280.639C617.609 280.7 617.444 280.725 617.279 280.712C617.043 280.709 616.813 280.634 616.619 280.497C616.426 280.36 616.279 280.168 616.197 279.946L615.378 280.291C615.532 280.668 615.796 280.991 616.134 281.217C616.473 281.443 616.872 281.563 617.279 281.56C618.385 281.56 619.321 280.911 619.321 279.32V275.471H618.426L618.449 275.816ZM617.367 278.788C617.037 278.765 616.728 278.619 616.502 278.377C616.276 278.135 616.15 277.817 616.15 277.486C616.15 277.155 616.276 276.837 616.502 276.595C616.728 276.353 617.037 276.206 617.367 276.184C617.686 276.221 617.981 276.375 618.194 276.615C618.408 276.855 618.526 277.165 618.526 277.486C618.526 277.807 618.408 278.117 618.194 278.357C617.981 278.597 617.686 278.75 617.367 278.788ZM608.007 275.336C607.583 275.338 607.169 275.466 606.818 275.704C606.466 275.941 606.193 276.277 606.032 276.67C605.871 277.062 605.83 277.493 605.915 277.909C605.999 278.325 606.204 278.706 606.505 279.005C606.806 279.304 607.188 279.508 607.604 279.59C608.02 279.671 608.452 279.628 608.843 279.465C609.235 279.303 609.569 279.027 609.805 278.675C610.04 278.322 610.166 277.907 610.166 277.483C610.17 277.196 610.116 276.912 610.007 276.647C609.898 276.382 609.736 276.142 609.532 275.941C609.327 275.74 609.084 275.583 608.817 275.479C608.55 275.375 608.264 275.327 607.978 275.336H608.007ZM608.007 278.788C607.746 278.806 607.485 278.746 607.259 278.615C607.032 278.483 606.851 278.287 606.737 278.051C606.624 277.814 606.585 277.55 606.624 277.291C606.663 277.032 606.779 276.791 606.958 276.599C607.136 276.407 607.367 276.273 607.623 276.215C607.878 276.156 608.145 276.176 608.389 276.271C608.633 276.367 608.842 276.533 608.99 276.749C609.138 276.966 609.217 277.221 609.218 277.483C609.226 277.651 609.2 277.819 609.141 277.976C609.082 278.134 608.992 278.278 608.877 278.4C608.761 278.522 608.621 278.619 608.467 278.686C608.312 278.752 608.146 278.787 607.978 278.788H608.007ZM602.415 275.997V276.91H604.597C604.571 277.345 604.395 277.759 604.099 278.08C603.881 278.302 603.618 278.477 603.328 278.592C603.037 278.706 602.726 278.759 602.415 278.747C601.792 278.716 601.205 278.447 600.775 277.996C600.346 277.544 600.106 276.945 600.106 276.322C600.106 275.699 600.346 275.099 600.775 274.648C601.205 274.196 601.792 273.928 602.415 273.897C603.026 273.89 603.616 274.123 604.058 274.546L604.702 273.903C604.401 273.605 604.044 273.37 603.651 273.213C603.258 273.055 602.838 272.977 602.415 272.984C601.53 272.984 600.682 273.336 600.057 273.961C599.431 274.586 599.08 275.435 599.08 276.319C599.08 277.203 599.431 278.051 600.057 278.677C600.682 279.302 601.53 279.653 602.415 279.653C602.849 279.674 603.283 279.601 603.686 279.44C604.09 279.278 604.454 279.032 604.755 278.717C605.287 278.139 605.571 277.374 605.544 276.588C605.548 276.392 605.53 276.196 605.492 276.003L602.415 275.997ZM625.288 276.705C625.159 276.316 624.914 275.976 624.585 275.732C624.256 275.487 623.861 275.349 623.451 275.336C623.175 275.338 622.903 275.396 622.65 275.506C622.397 275.616 622.17 275.777 621.98 275.977C621.791 276.178 621.645 276.415 621.55 276.673C621.455 276.932 621.413 277.208 621.427 277.483C621.421 277.765 621.471 278.046 621.576 278.308C621.68 278.57 621.837 278.809 622.036 279.009C622.234 279.209 622.471 279.368 622.733 279.474C622.994 279.581 623.274 279.634 623.557 279.63C623.91 279.631 624.258 279.545 624.57 279.38C624.882 279.215 625.149 278.975 625.347 278.682L624.609 278.191C624.5 278.371 624.345 278.52 624.16 278.623C623.976 278.725 623.768 278.778 623.557 278.776C623.337 278.784 623.12 278.727 622.934 278.61C622.749 278.493 622.602 278.322 622.515 278.121L625.388 276.951L625.288 276.705ZM622.363 277.419C622.352 277.262 622.372 277.105 622.423 276.957C622.474 276.808 622.555 276.671 622.659 276.555C622.764 276.438 622.891 276.343 623.033 276.277C623.175 276.21 623.33 276.173 623.486 276.167C623.649 276.156 623.811 276.194 623.953 276.275C624.094 276.356 624.209 276.477 624.282 276.623L622.363 277.419ZM620.023 279.501H620.971V273.195H620.023V279.501ZM629.676 273.195H627.418V279.507H628.359V277.114H629.676C629.946 277.135 630.217 277.1 630.473 277.011C630.729 276.922 630.964 276.781 631.162 276.597C631.361 276.413 631.52 276.19 631.628 275.942C631.737 275.694 631.793 275.426 631.793 275.155C631.793 274.884 631.737 274.616 631.628 274.368C631.52 274.119 631.361 273.896 631.162 273.712C630.964 273.528 630.729 273.387 630.473 273.298C630.217 273.209 629.946 273.174 629.676 273.195ZM629.676 276.237H628.336V274.072H629.676C629.963 274.072 630.238 274.186 630.441 274.389C630.644 274.592 630.758 274.868 630.758 275.155C630.758 275.442 630.644 275.717 630.441 275.92C630.238 276.123 629.963 276.237 629.676 276.237ZM632.244 279.507H633.186V273.195H632.244V279.507ZM635.496 275.33C635.153 275.309 634.81 275.389 634.512 275.56C634.213 275.732 633.972 275.988 633.817 276.295L634.654 276.646C634.737 276.494 634.862 276.369 635.015 276.287C635.168 276.205 635.341 276.169 635.514 276.184C635.753 276.161 635.991 276.234 636.176 276.387C636.362 276.539 636.479 276.759 636.503 276.997V277.062C636.203 276.899 635.867 276.815 635.526 276.816C634.619 276.816 633.706 277.313 633.706 278.238C633.714 278.436 633.762 278.632 633.848 278.811C633.934 278.99 634.056 279.15 634.207 279.281C634.357 279.411 634.532 279.509 634.722 279.569C634.911 279.629 635.111 279.65 635.309 279.63C635.541 279.639 635.771 279.586 635.976 279.479C636.181 279.371 636.355 279.211 636.479 279.016V279.501H637.392V277.085C637.393 276.844 637.345 276.605 637.25 276.384C637.155 276.162 637.015 275.962 636.839 275.797C636.664 275.632 636.456 275.505 636.229 275.423C636.002 275.342 635.76 275.308 635.52 275.324L635.496 275.33ZM635.385 278.788C635.075 278.788 634.648 278.635 634.648 278.255C634.648 277.77 635.18 277.582 635.643 277.582C635.943 277.574 636.24 277.646 636.503 277.793C636.468 278.061 636.339 278.308 636.138 278.489C635.937 278.67 635.679 278.774 635.409 278.782L635.385 278.788ZM640.726 275.471L639.65 278.208H639.615L638.492 275.471H637.479L639.158 279.297L638.199 281.42H639.182L641.773 275.471H640.726Z" fill="#797B7D"/>
<path d="M585.983 271.036C585.843 271.209 585.773 271.428 585.784 271.651V281.256C585.773 281.479 585.843 281.697 585.983 281.871L586.018 281.9L591.4 276.518V276.389L586.018 271.007L585.983 271.036Z" fill="#02D8FF"/>
<path d="M593.19 278.314L591.395 276.518V276.389L593.19 274.593H593.231L595.355 275.804C595.489 275.845 595.606 275.929 595.689 276.041C595.772 276.154 595.817 276.29 595.817 276.43C595.817 276.57 595.772 276.706 595.689 276.819C595.606 276.932 595.489 277.015 595.355 277.056L593.231 278.267L593.19 278.314Z" fill="#FFDC00"/>
<path d="M593.236 278.29L591.4 276.453L585.982 281.871C586.11 281.976 586.27 282.033 586.436 282.033C586.601 282.033 586.761 281.976 586.889 281.871L593.236 278.267" fill="#F83447"/>
<path d="M593.236 274.617L586.889 271.013C586.761 270.908 586.601 270.85 586.436 270.85C586.27 270.85 586.11 270.908 585.982 271.013L591.4 276.43L593.236 274.617Z" fill="#00F076"/>
<path d="M630.904 69.4102H528.518V155.522H630.904V69.4102Z" fill="white" stroke="#3D4043" stroke-linecap="round" stroke-linejoin="round"/>
<path d="M548.197 124.915H611.459" stroke="#3C4043" stroke-linecap="round" stroke-linejoin="round"/>
<path d="M539.037 129.847H602.299" stroke="#3C4043" stroke-linecap="round" stroke-linejoin="round"/>
<path d="M539.037 134.866H578.881" stroke="#D9DBDF" stroke-miterlimit="10" stroke-linecap="round"/>
<path d="M545.396 123.143H539.037V126.43H545.396V123.143Z" fill="#D2E3FC"/>
<path d="M537.697 74.4647H620.738C621.235 74.4647 621.727 74.5626 622.186 74.7528C622.645 74.943 623.063 75.2218 623.414 75.5732C623.766 75.9247 624.044 76.342 624.235 76.8012C624.425 77.2604 624.523 77.7526 624.523 78.2496V118.135H533.906V78.2496C533.908 77.2452 534.308 76.2825 535.019 75.5729C535.729 74.8632 536.693 74.4647 537.697 74.4647Z" fill="#F1F3F4"/>
<path d="M528.519 82.5143C530.514 82.5143 532.464 81.9227 534.122 80.8146C535.781 79.7064 537.073 78.1312 537.837 76.2884C538.6 74.4455 538.8 72.4177 538.411 70.4613C538.021 68.5049 537.061 66.7079 535.65 65.2974C534.24 63.8869 532.443 62.9264 530.487 62.5372C528.53 62.1481 526.502 62.3478 524.659 63.1112C522.817 63.8745 521.241 65.1672 520.133 66.8257C519.025 68.4842 518.434 70.4341 518.434 72.4288C518.434 75.1037 519.496 77.6689 521.388 79.5603C523.279 81.4517 525.844 82.5143 528.519 82.5143Z" fill="#00AB47"/>
<path d="M524.16 72.2124L527.325 75.3831L533.374 69.3284" stroke="white" stroke-linecap="round" stroke-linejoin="round"/>
<path d="M565.8 142.857C565.376 142.859 564.962 142.987 564.611 143.224C564.259 143.462 563.986 143.798 563.825 144.19C563.665 144.583 563.624 145.014 563.708 145.43C563.792 145.846 563.997 146.227 564.298 146.526C564.599 146.825 564.981 147.029 565.398 147.11C565.814 147.192 566.245 147.149 566.636 146.986C567.028 146.823 567.363 146.548 567.598 146.196C567.833 145.843 567.959 145.428 567.959 145.004C567.964 144.72 567.911 144.437 567.804 144.174C567.697 143.911 567.538 143.671 567.337 143.471C567.135 143.27 566.895 143.113 566.631 143.007C566.367 142.902 566.085 142.851 565.8 142.857ZM565.8 146.303C565.539 146.321 565.278 146.261 565.051 146.129C564.825 145.998 564.643 145.801 564.53 145.564C564.417 145.328 564.378 145.063 564.417 144.804C564.457 144.545 564.574 144.304 564.753 144.112C564.931 143.92 565.164 143.787 565.419 143.729C565.675 143.671 565.942 143.692 566.186 143.788C566.43 143.884 566.639 144.052 566.786 144.269C566.933 144.486 567.012 144.742 567.011 145.004C567.019 145.169 566.994 145.334 566.937 145.49C566.88 145.645 566.792 145.788 566.68 145.909C566.567 146.03 566.431 146.127 566.28 146.194C566.129 146.262 565.966 146.299 565.8 146.303ZM571.574 143.337H571.545C571.402 143.181 571.227 143.058 571.032 142.975C570.838 142.893 570.628 142.852 570.416 142.857C569.847 142.857 569.301 143.083 568.898 143.486C568.495 143.888 568.269 144.435 568.269 145.004C568.269 145.573 568.495 146.119 568.898 146.522C569.301 146.925 569.847 147.151 570.416 147.151C570.629 147.156 570.84 147.115 571.035 147.03C571.23 146.945 571.404 146.819 571.545 146.66H571.58V146.97C571.58 147.794 571.141 148.233 570.41 148.233C570.173 148.23 569.943 148.155 569.75 148.018C569.557 147.881 569.41 147.689 569.328 147.467L568.503 147.806C568.659 148.183 568.924 148.505 569.263 148.732C569.603 148.958 570.002 149.077 570.41 149.076C571.516 149.076 572.452 148.426 572.452 146.841V142.986H571.557L571.574 143.337ZM570.492 146.303C570.162 146.281 569.853 146.134 569.627 145.892C569.401 145.65 569.275 145.332 569.275 145.001C569.275 144.67 569.401 144.352 569.627 144.11C569.853 143.868 570.162 143.722 570.492 143.699C570.656 143.704 570.818 143.743 570.967 143.812C571.116 143.882 571.249 143.981 571.359 144.103C571.468 144.226 571.551 144.369 571.604 144.525C571.656 144.681 571.676 144.846 571.662 145.01C571.679 145.173 571.662 145.339 571.611 145.495C571.56 145.652 571.477 145.796 571.366 145.918C571.256 146.04 571.121 146.137 570.97 146.203C570.82 146.27 570.657 146.304 570.492 146.303ZM561.103 142.857C560.679 142.858 560.264 142.985 559.912 143.222C559.559 143.458 559.285 143.794 559.124 144.186C558.962 144.579 558.92 145.01 559.004 145.426C559.087 145.842 559.292 146.224 559.593 146.524C559.893 146.824 560.276 147.028 560.692 147.11C561.108 147.192 561.54 147.15 561.932 146.987C562.324 146.824 562.659 146.549 562.894 146.196C563.13 145.843 563.256 145.428 563.256 145.004C563.26 144.72 563.207 144.439 563.1 144.176C562.993 143.914 562.834 143.675 562.634 143.475C562.433 143.275 562.194 143.117 561.931 143.011C561.668 142.905 561.386 142.852 561.103 142.857ZM561.103 146.303C560.841 146.321 560.58 146.261 560.354 146.129C560.127 145.998 559.945 145.801 559.832 145.564C559.719 145.328 559.68 145.063 559.72 144.804C559.76 144.545 559.876 144.304 560.055 144.112C560.234 143.92 560.466 143.787 560.722 143.729C560.978 143.671 561.245 143.692 561.489 143.788C561.732 143.884 561.941 144.052 562.089 144.269C562.236 144.486 562.314 144.742 562.314 145.004C562.322 145.169 562.296 145.334 562.239 145.49C562.182 145.645 562.095 145.788 561.982 145.909C561.869 146.03 561.733 146.127 561.582 146.194C561.431 146.262 561.268 146.299 561.103 146.303ZM555.51 143.512V144.425H557.686C557.663 144.861 557.487 145.275 557.189 145.595C556.971 145.817 556.71 145.991 556.42 146.106C556.131 146.221 555.821 146.274 555.51 146.262C554.868 146.262 554.252 146.007 553.798 145.552C553.344 145.098 553.088 144.482 553.088 143.84C553.088 143.197 553.344 142.581 553.798 142.127C554.252 141.673 554.868 141.418 555.51 141.418C556.122 141.411 556.712 141.644 557.154 142.067L557.792 141.424C557.492 141.126 557.135 140.892 556.744 140.734C556.352 140.577 555.933 140.499 555.51 140.505C554.626 140.505 553.778 140.857 553.152 141.482C552.527 142.107 552.176 142.955 552.176 143.84C552.176 144.724 552.527 145.572 553.152 146.198C553.778 146.823 554.626 147.174 555.51 147.174C555.944 147.194 556.378 147.12 556.781 146.959C557.185 146.798 557.549 146.552 557.85 146.238C558.381 145.659 558.665 144.895 558.64 144.109C558.642 143.913 558.626 143.717 558.593 143.524L555.51 143.512ZM578.378 144.22C578.25 143.831 578.005 143.491 577.676 143.247C577.347 143.003 576.95 142.867 576.541 142.857C576.265 142.859 575.993 142.917 575.74 143.027C575.487 143.137 575.259 143.297 575.07 143.498C574.881 143.699 574.735 143.936 574.64 144.194C574.544 144.453 574.503 144.729 574.517 145.004C574.511 145.286 574.561 145.567 574.666 145.829C574.77 146.091 574.927 146.329 575.125 146.53C575.324 146.73 575.561 146.889 575.823 146.995C576.084 147.102 576.364 147.155 576.646 147.151C577 147.153 577.349 147.067 577.662 146.9C577.974 146.734 578.241 146.492 578.436 146.197L577.705 145.712C577.594 145.892 577.438 146.041 577.253 146.144C577.067 146.246 576.858 146.299 576.646 146.297C576.428 146.305 576.212 146.248 576.026 146.132C575.84 146.016 575.694 145.847 575.605 145.647L578.477 144.477L578.378 144.22ZM575.453 144.94C575.442 144.783 575.462 144.626 575.513 144.477C575.564 144.329 575.644 144.192 575.749 144.076C575.854 143.959 575.981 143.864 576.123 143.798C576.265 143.731 576.419 143.694 576.576 143.688C576.738 143.677 576.9 143.714 577.041 143.794C577.183 143.874 577.298 143.993 577.372 144.138L575.453 144.94ZM573.113 147.022H574.055V140.71H573.113V147.022ZM582.795 140.71H580.537V147.022H581.49V144.63H582.806C583.326 144.63 583.825 144.423 584.192 144.056C584.56 143.688 584.766 143.19 584.766 142.67C584.766 142.15 584.56 141.652 584.192 141.284C583.825 140.917 583.326 140.71 582.806 140.71H582.795ZM582.795 143.752H581.49V141.57H582.83C583.117 141.57 583.392 141.684 583.595 141.887C583.798 142.09 583.912 142.365 583.912 142.652C583.912 142.939 583.798 143.215 583.595 143.418C583.392 143.62 583.117 143.735 582.83 143.735L582.795 143.752ZM585.357 147.022H586.299V140.71H585.357V147.022ZM588.615 142.845C588.272 142.824 587.929 142.904 587.631 143.075C587.332 143.247 587.091 143.503 586.936 143.811L587.767 144.162C587.851 144.009 587.977 143.883 588.131 143.801C588.285 143.719 588.459 143.684 588.633 143.699C588.754 143.68 588.879 143.685 588.998 143.714C589.117 143.744 589.229 143.798 589.327 143.872C589.425 143.947 589.507 144.04 589.568 144.147C589.628 144.254 589.667 144.373 589.68 144.495V144.559C589.376 144.402 589.039 144.32 588.697 144.32C587.796 144.32 586.878 144.811 586.878 145.741C586.887 145.936 586.935 146.127 587.019 146.304C587.103 146.48 587.222 146.637 587.368 146.766C587.514 146.896 587.685 146.994 587.87 147.056C588.055 147.118 588.251 147.143 588.446 147.128C588.678 147.136 588.909 147.083 589.114 146.974C589.319 146.866 589.492 146.705 589.616 146.507H589.651V146.999H590.558V144.577C590.555 144.334 590.503 144.095 590.404 143.874C590.304 143.653 590.16 143.455 589.98 143.292C589.801 143.129 589.589 143.006 589.359 142.929C589.129 142.852 588.886 142.823 588.645 142.845H588.615ZM588.498 146.303C588.194 146.303 587.761 146.151 587.761 145.764C587.761 145.279 588.3 145.092 588.762 145.092C589.062 145.086 589.358 145.158 589.622 145.302C589.582 145.573 589.45 145.821 589.247 146.003C589.044 146.186 588.783 146.292 588.51 146.303H588.498ZM593.839 142.98L592.763 145.718H592.728L591.611 142.98H590.593L592.278 146.806L591.318 148.935H592.301L594.892 142.98H593.839Z" fill="#797B7D"/>
<path d="M539.108 138.557C538.969 138.72 538.895 138.928 538.903 139.142V148.754C538.895 148.968 538.969 149.176 539.108 149.339L539.137 149.374L544.519 143.986V143.91L539.137 138.522L539.108 138.557Z" fill="#02D8FF"/>
<path d="M546.314 145.829L544.518 144.033V143.91L546.314 142.114H546.354L548.478 143.319C548.611 143.362 548.727 143.446 548.809 143.559C548.891 143.672 548.935 143.808 548.935 143.948C548.935 144.088 548.891 144.224 548.809 144.337C548.727 144.45 548.611 144.534 548.478 144.577L546.354 145.782L546.314 145.829Z" fill="#FFDC00"/>
<path d="M546.356 145.805L544.519 143.974L539.107 149.386C539.234 149.49 539.393 149.547 539.558 149.547C539.722 149.547 539.882 149.49 540.008 149.386L546.356 145.776" fill="#F83447"/>
<path d="M546.356 142.155L540.008 138.546C539.882 138.441 539.722 138.384 539.558 138.384C539.393 138.384 539.234 138.441 539.107 138.546L544.519 143.963L546.356 142.155Z" fill="#00F076"/>
<path d="M485.282 255.733H340.547" stroke="white" stroke-linecap="round" stroke-linejoin="round"/>
<path d="M254.031 113.929C253.785 119.159 259.881 119.697 258.278 124.868" stroke="white" stroke-linecap="round" stroke-linejoin="round"/>
<path d="M246.198 87.6798C242.998 82.8828 233.808 81.4144 226.372 88.1887C218.937 94.963 225.676 107.336 219.797 116.427C214.93 123.95 213.672 130.262 218.375 138.376C221.885 144.431 210.806 156.973 224.155 159.401C224.155 159.401 229.139 159.886 231.175 158.418" stroke="white" stroke-linecap="round" stroke-linejoin="round"/>
<path d="M528.738 82.6962C534.356 82.4892 538.741 77.7306 538.533 72.0675C538.324 66.4044 533.601 61.9814 527.983 62.1883C522.365 62.3953 517.98 67.154 518.188 72.8171C518.397 78.4801 523.12 82.9032 528.738 82.6962Z" stroke="#3B4043" stroke-linecap="round" stroke-linejoin="round"/>
<path d="M567.521 220.493C573.139 220.286 577.524 215.527 577.316 209.864C577.107 204.201 572.384 199.778 566.766 199.985C561.148 200.192 556.763 204.951 556.972 210.614C557.18 216.277 561.904 220.7 567.521 220.493Z" stroke="#3B4043" stroke-linecap="round" stroke-linejoin="round"/>
<path d="M79.2265 206.405C84.8444 206.198 89.2295 201.439 89.0208 195.776C88.8122 190.113 84.0888 185.69 78.4709 185.897C72.853 186.104 68.468 190.863 68.6766 196.526C68.8853 202.189 73.6086 206.612 79.2265 206.405Z" stroke="#3B4043" stroke-linecap="round" stroke-linejoin="round"/>
<path d="M51.4296 69.2973C57.0475 69.0903 61.4326 64.3317 61.2239 58.6686C61.0153 53.0055 56.2919 48.5824 50.6741 48.7894C45.0562 48.9964 40.6711 53.755 40.8797 59.4181C41.0884 65.0812 45.8117 69.5043 51.4296 69.2973Z" stroke="#3B4043" stroke-linecap="round" stroke-linejoin="round"/>
</svg>
