<svg width="15" height="15" viewBox="0 0 15 15" fill="none" xmlns="http://www.w3.org/2000/svg">
<path d="M6.84693 13.5263C7.03618 13.6356 7.25086 13.6931 7.46939 13.6931C7.68793 13.6931 7.90261 13.6356 8.09186 13.5263L12.4491 11.0365C12.6382 10.9273 12.7952 10.7704 12.9045 10.5813C13.0137 10.3923 13.0714 10.1779 13.0716 9.95961V4.97987C13.0714 4.76155 13.0137 4.54713 12.9045 4.35812C12.7952 4.16911 12.6382 4.01215 12.4491 3.903L8.09186 1.41313C7.90261 1.30386 7.68793 1.24634 7.46939 1.24634C7.25086 1.24634 7.03618 1.30386 6.84693 1.41313L2.48965 3.903C2.30059 4.01215 2.14355 4.16911 2.0343 4.35812C1.92504 4.54713 1.86741 4.76155 1.86719 4.97987V9.95961C1.86741 10.1779 1.92504 10.3923 2.0343 10.5813C2.14355 10.7704 2.30059 10.9273 2.48965 11.0365L6.84693 13.5263Z" stroke="white" stroke-width="1.24493" stroke-linecap="round" stroke-linejoin="round"/>
<path d="M7.46875 13.6944V7.46973" stroke="white" stroke-width="1.24493" stroke-linecap="round" stroke-linejoin="round"/>
<path d="M2.04883 4.35718L7.47052 7.46951L12.8922 4.35718" stroke="white" stroke-width="1.24493" stroke-linecap="round" stroke-linejoin="round"/>
<path d="M4.66797 2.65796L10.2702 5.86367" stroke="white" stroke-width="1.24493" stroke-linecap="round" stroke-linejoin="round"/>
</svg>
