<svg width="15" height="15" viewBox="0 0 15 15" fill="none" xmlns="http://www.w3.org/2000/svg">
<path d="M7.46875 1.69434C10.6566 1.69434 13.2441 4.28186 13.2441 7.46973C13.2441 10.6576 10.6566 13.2451 7.46875 13.2451C4.28089 13.2451 1.69336 10.6576 1.69336 7.46973C1.69339 4.28189 4.28091 1.69437 7.46875 1.69434ZM6.79102 2.08789C4.11664 2.42049 2.04007 4.70653 2.04004 7.46973C2.04004 10.2329 4.11662 12.519 6.79102 12.8516L7.2959 12.915V2.02539L6.79102 2.08789ZM7.6416 12.915L8.14648 12.8516C10.5977 12.546 12.545 10.5986 12.8506 8.14746L12.9141 7.64258H7.6416V12.915ZM7.6416 7.29688H12.9141L12.8506 6.79199C12.545 4.34082 10.5977 2.39344 8.14648 2.08789L7.6416 2.02441V7.29688Z" fill="#B0B7C2" stroke="#B0B7C2" stroke-width="0.898551"/>
</svg>
