<svg width="36" height="36" viewBox="0 0 36 36" fill="none" xmlns="http://www.w3.org/2000/svg">
<path d="M1.80273 1.80273C3.08591 0.519557 5.16018 0.519557 6.44336 1.80273L17.8271 13.1855L29.2109 1.82617C30.4942 0.543748 32.5686 0.544222 33.8516 1.82715C35.1098 3.0858 35.1099 5.18477 33.8516 6.44336L22.4678 17.8262L33.8516 29.21C35.1346 30.4931 35.1347 32.5684 33.8516 33.8516C32.5684 35.1347 30.4931 35.1346 29.21 33.8516L17.8262 22.4678L6.44336 33.8516C5.1603 35.1344 3.08587 35.1343 1.80273 33.8516C0.519557 32.5684 0.519557 30.4931 1.80273 29.21L13.1855 17.8262L1.80273 6.44336C0.519557 5.16018 0.519557 3.08591 1.80273 1.80273Z" fill="#D42626" stroke="#D42626" stroke-width="1.67953"/>
</svg>
