<svg width="14" height="22" viewBox="0 0 14 22" fill="none" xmlns="http://www.w3.org/2000/svg">
<path d="M0 22V21C0 18.6722 0.52225 16.7903 1.56675 15.3543C2.61108 13.9181 3.99442 12.4667 5.71675 11C3.99442 9.53333 2.61108 8.08192 1.56675 6.64575C0.52225 5.20975 0 3.32783 0 1V0H1.66675V1C1.66675 1.18333 1.67092 1.35417 1.67925 1.5125C1.68758 1.67083 1.70008 1.83333 1.71675 2H12.2833C12.2999 1.83333 12.3124 1.67083 12.3208 1.5125C12.3291 1.35417 12.3333 1.18333 12.3333 1V0H14V1C14 3.32783 13.4778 5.20975 12.4333 6.64575C11.3889 8.08192 10.0056 9.53333 8.28325 11C10.0056 12.4667 11.3889 13.9181 12.4333 15.3543C13.4778 16.7903 14 18.6722 14 21V22H12.3333V21C12.3333 20.8167 12.3291 20.6458 12.3208 20.4875C12.3124 20.3292 12.2999 20.1667 12.2833 20H1.71675C1.70008 20.1667 1.68758 20.3292 1.67925 20.4875C1.67092 20.6458 1.66675 20.8167 1.66675 21V22H0ZM3.15 6H10.85C11.1 5.63883 11.3153 5.26942 11.4958 4.89175C11.6764 4.51392 11.8334 4.10558 11.9667 3.66675H2.03325C2.16658 4.10008 2.32358 4.507 2.50425 4.8875C2.68475 5.268 2.9 5.63883 3.15 6ZM7 9.91675C7.4555 9.53342 7.89158 9.15842 8.30825 8.79175C8.72492 8.42508 9.11383 8.05008 9.475 7.66675H4.525C4.88617 8.05008 5.27225 8.42508 5.68325 8.79175C6.09442 9.15842 6.53333 9.53342 7 9.91675ZM4.525 14.3332H9.475C9.11383 13.9499 8.72492 13.5749 8.30825 13.2082C7.89158 12.8416 7.4555 12.4666 7 12.0832C6.5445 12.4666 6.10842 12.8416 5.69175 13.2082C5.27508 13.5749 4.88617 13.9499 4.525 14.3332ZM2.03325 18.3333H11.9667C11.8334 17.8999 11.6764 17.493 11.4958 17.1125C11.3153 16.732 11.1 16.3612 10.85 16H3.15C2.9 16.3612 2.68475 16.7306 2.50425 17.1083C2.32358 17.4861 2.16658 17.8944 2.03325 18.3333Z" fill="url(#paint0_linear_812_810)"/>
<defs>
<linearGradient id="paint0_linear_812_810" x1="0.792087" y1="1.56098e-06" x2="14.9998" y2="0.921625" gradientUnits="userSpaceOnUse">
<stop stop-color="#00BFA6"/>
<stop offset="0.5" stop-color="#58C7FF"/>
<stop offset="1" stop-color="#0D3B66"/>
</linearGradient>
</defs>
</svg>
