<svg width="22" height="22" viewBox="0 0 22 22" fill="none" xmlns="http://www.w3.org/2000/svg">
<path d="M19.8 4.63158H17.402C17.523 4.27263 17.6 3.87895 17.6 3.47368C17.6 1.55158 16.126 0 14.3 0C13.145 0 12.144 0.625263 11.55 1.56316L11 2.33895L10.45 1.55158C9.856 0.625263 8.855 0 7.7 0C5.874 0 4.4 1.55158 4.4 3.47368C4.4 3.87895 4.477 4.27263 4.598 4.63158H2.2C0.979 4.63158 0.011 5.66211 0.011 6.94737L0 19.6842C0 20.9695 0.979 22 2.2 22H19.8C21.021 22 22 20.9695 22 19.6842V6.94737C22 5.66211 21.021 4.63158 19.8 4.63158ZM14.3 2.31579C14.905 2.31579 15.4 2.83684 15.4 3.47368C15.4 4.11053 14.905 4.63158 14.3 4.63158C13.695 4.63158 13.2 4.11053 13.2 3.47368C13.2 2.83684 13.695 2.31579 14.3 2.31579ZM7.7 2.31579C8.305 2.31579 8.8 2.83684 8.8 3.47368C8.8 4.11053 8.305 4.63158 7.7 4.63158C7.095 4.63158 6.6 4.11053 6.6 3.47368C6.6 2.83684 7.095 2.31579 7.7 2.31579ZM19.8 19.6842H2.2V17.3684H19.8V19.6842ZM19.8 13.8947H2.2V6.94737H7.788L5.5 10.2242L7.282 11.5789L11 6.25263L14.718 11.5789L16.5 10.2242L14.212 6.94737H19.8V13.8947Z" fill="url(#paint0_linear_812_695)"/>
<defs>
<linearGradient id="paint0_linear_812_695" x1="1.24471" y1="1.56098e-06" x2="23.4344" y2="2.26192" gradientUnits="userSpaceOnUse">
<stop stop-color="#00BFA6"/>
<stop offset="0.5" stop-color="#58C7FF"/>
<stop offset="1" stop-color="#0D3B66"/>
</linearGradient>
</defs>
</svg>
