<svg width="21" height="20" viewBox="0 0 21 20" fill="none" xmlns="http://www.w3.org/2000/svg">
<path fill-rule="evenodd" clip-rule="evenodd" d="M19.7715 10.2272C19.7715 9.51816 19.7073 8.83634 19.5881 8.18179H10.0874V12.05H15.5164C15.2825 13.3 14.5718 14.3591 13.5034 15.0682V17.5773H16.7636C18.6711 15.8363 19.7715 13.2727 19.7715 10.2272Z" fill="#4285F4"/>
<path fill-rule="evenodd" clip-rule="evenodd" d="M10.0879 20C12.8116 20 15.0951 19.1045 16.7641 17.5772L13.504 15.0681C12.6007 15.6681 11.4452 16.0227 10.0879 16.0227C7.46056 16.0227 5.23669 14.2636 4.44343 11.9H1.07324V14.4909C2.73312 17.7591 6.14458 20 10.0879 20Z" fill="#34A853"/>
<path fill-rule="evenodd" clip-rule="evenodd" d="M4.44315 11.8999C4.2414 11.2999 4.12676 10.659 4.12676 9.99994C4.12676 9.34085 4.2414 8.69994 4.44315 8.09994V5.50903H1.07296C0.38975 6.85903 0 8.38631 0 9.99994C0 11.6136 0.38975 13.1409 1.07296 14.4909L4.44315 11.8999Z" fill="#FBBC05"/>
<path fill-rule="evenodd" clip-rule="evenodd" d="M10.0879 3.97727C11.569 3.97727 12.8987 4.48182 13.9442 5.47273L16.8375 2.60455C15.0905 0.990909 12.807 0 10.0879 0C6.14458 0 2.73312 2.24091 1.07324 5.50909L4.44343 8.1C5.23669 5.73637 7.46056 3.97727 10.0879 3.97727Z" fill="#EA4335"/>
</svg>
