<svg width="29" height="29" viewBox="0 0 29 29" fill="none" xmlns="http://www.w3.org/2000/svg">
<g clip-path="url(#clip0_4050_8422)">
<path fill-rule="evenodd" clip-rule="evenodd" d="M16.3628 21.6616C15.5529 21.8701 14.7038 21.9809 13.8287 21.9809C11.0297 21.9809 8.4956 20.8464 6.66127 19.0121L8.45314 17.2202C9.8289 18.596 11.7295 19.4469 13.8287 19.4469C14.7173 19.4469 15.5702 19.2944 16.3628 19.0143V21.6616ZM3.69242 11.8447C3.6925 12.1039 3.70212 12.3607 3.72129 12.6151L1.79187 10.6863L0 12.4781L4.9595 17.4376L9.91894 12.4781L8.12707 10.6863L6.25912 12.5536C6.23756 12.3202 6.22652 12.0837 6.22652 11.8447C6.22652 7.64604 9.63018 4.24244 13.8287 4.24244C18.0273 4.24244 21.431 7.64604 21.431 11.8447C21.431 13.7917 20.699 15.5678 19.4952 16.9128H22.609C23.4715 15.4219 23.9651 13.6909 23.9651 11.8447C23.9651 6.24651 19.4269 1.70834 13.8287 1.70834C8.23059 1.70834 3.69242 6.24651 3.69242 11.8447ZM12.5617 12.5289V5.50946H15.0958V11.1605L18.3267 13.3271L16.933 15.4304L12.5617 12.5289ZM27.7662 18.1798V20.7139H21.431V18.1798H27.7662ZM20.1639 18.1798V20.7139H17.6299V18.1798H20.1639ZM27.7662 24.515V21.9809H21.431V24.515H27.7662ZM20.1639 21.9809V24.515H17.6299V21.9809H20.1639ZM27.7662 28.3161V25.782H21.431V28.3161H27.7662ZM20.1639 25.782V28.3161H17.6299V25.782H20.1639Z" fill="url(#paint0_linear_4050_8422)"/>
</g>
<defs>
<linearGradient id="paint0_linear_4050_8422" x1="1.57094" y1="1.70835" x2="29.551" y2="4.68467" gradientUnits="userSpaceOnUse">
<stop stop-color="#00BFA6"/>
<stop offset="0.5" stop-color="#58C7FF"/>
<stop offset="1" stop-color="#0D3B66"/>
</linearGradient>
<clipPath id="clip0_4050_8422">
<rect width="29" height="29" fill="white"/>
</clipPath>
</defs>
</svg>
