<svg width="32" height="35" viewBox="0 0 32 35" fill="none" xmlns="http://www.w3.org/2000/svg">
<path fill-rule="evenodd" clip-rule="evenodd" d="M26.0516 0.0103416C26.3254 0.0405053 26.589 0.13199 26.8226 0.277998C27.0562 0.424005 27.2539 0.620781 27.401 0.853703C33.2679 10.1435 32.3823 20.0053 27.4817 26.2169C25.0341 29.3171 21.5965 31.4805 17.5868 32.1204C14.0887 32.6759 10.2661 32.0544 6.41414 30.0377C6.06029 31.1542 5.80911 32.2377 5.66428 33.2589C5.59382 33.7387 5.3362 34.1709 4.9478 34.4612C4.5594 34.7514 4.07185 34.876 3.59183 34.8076C3.11182 34.7392 2.67842 34.4835 2.3865 34.0964C2.09457 33.7092 1.96788 33.2222 2.03416 32.7419C2.28884 31.0407 2.72018 29.3706 3.3212 27.7588C0.503274 24.6603 -0.266752 20.7405 0.0760927 17.2387C0.453772 13.3758 2.21566 9.67049 4.50924 7.75826C7.57467 5.20435 10.7941 4.15564 13.5882 3.64229C14.8093 3.43097 16.0388 3.27132 17.2733 3.16378C18.1515 3.07578 19.0481 3.01711 19.9061 2.80443C21.1761 2.49733 22.39 1.99249 23.5032 1.30838C24.3136 0.802368 25.0047 -0.106996 26.0516 0.0103416ZM7.79101 26.6165C9.82975 22.4602 13.1629 18.4763 17.5025 16.3055C17.7198 16.1991 17.9138 16.0506 18.0735 15.8688C18.2331 15.687 18.3552 15.4754 18.4327 15.2461C18.5101 15.0169 18.5414 14.7746 18.5248 14.5332C18.5082 14.2918 18.4439 14.0561 18.3358 13.8396C18.2276 13.6232 18.0777 13.4303 17.8946 13.2721C17.7115 13.1139 17.499 12.9934 17.2691 12.9178C17.0393 12.8421 16.7968 12.8127 16.5555 12.8312C16.3143 12.8497 16.079 12.9158 15.8634 13.0256C11.082 15.4163 7.41883 19.5507 5.03726 23.96C5.51063 24.7313 6.09783 25.4267 6.77898 26.0225C7.11877 26.234 7.45489 26.432 7.79101 26.6165Z" fill="#F9FAFB"/>
</svg>
