<svg width="20" height="20" viewBox="0 0 20 20" fill="none" xmlns="http://www.w3.org/2000/svg">
<g clip-path="url(#clip0_2221_826)">
<path d="M14.4011 3.70312C12.7964 3.70312 11.0683 4.03229 9.87508 4.9375C8.68185 4.03229 6.95373 3.70312 5.34904 3.70312C4.15581 3.70312 2.88852 3.88417 1.82696 4.35323C1.22623 4.62479 0.822998 5.20906 0.822998 5.87562V15.1581C0.822998 16.2279 1.82696 17.0179 2.86383 16.7546C3.67029 16.5489 4.52612 16.4583 5.34904 16.4583C6.63279 16.4583 7.99883 16.6723 9.10154 17.2154C9.59529 17.4623 10.1549 17.4623 10.6404 17.2154C11.7431 16.6641 13.1091 16.4583 14.3929 16.4583C15.2158 16.4583 16.0716 16.5489 16.8781 16.7546C17.915 17.0261 18.9189 16.2361 18.9189 15.1581V5.87562C18.9189 5.20906 18.5157 4.62479 17.915 4.35323C16.8616 3.88417 15.5944 3.70312 14.4011 3.70312ZM17.2813 14.1789C17.2813 14.6973 16.804 15.0758 16.2938 14.9853C15.6766 14.8701 15.0348 14.8207 14.4011 14.8207C13.0022 14.8207 10.986 15.3556 9.87508 16.0551V6.58333C10.986 5.88385 13.0022 5.34896 14.4011 5.34896C15.1582 5.34896 15.9071 5.42302 16.623 5.57938C17.0015 5.66167 17.2813 5.99906 17.2813 6.38583V14.1789Z" fill="#323232"/>
<path d="M11.5045 9.06046C11.2412 9.06046 11.0025 8.89587 10.9202 8.63254C10.8133 8.3116 10.9943 7.95775 11.3152 7.859C12.5825 7.44754 14.2201 7.31587 15.7261 7.48869C16.0635 7.52983 16.3103 7.83431 16.2692 8.17171C16.228 8.5091 15.9236 8.75598 15.5862 8.71483C14.253 8.55848 12.7965 8.68192 11.6938 9.03577C11.6279 9.044 11.5621 9.06046 11.5045 9.06046Z" fill="#323232"/>
<path d="M11.5045 11.2494C11.2412 11.2494 11.0025 11.0848 10.9202 10.8215C10.8133 10.5006 10.9943 10.1467 11.3152 10.048C12.5743 9.63651 14.2201 9.50484 15.7261 9.67765C16.0635 9.7188 16.3103 10.0233 16.2692 10.3607C16.228 10.6981 15.9236 10.9449 15.5862 10.9038C14.253 10.7474 12.7965 10.8709 11.6938 11.2247C11.6279 11.2412 11.5621 11.2494 11.5045 11.2494Z" fill="#323232"/>
<path d="M11.5045 13.4384C11.2412 13.4384 11.0025 13.2738 10.9202 13.0105C10.8133 12.6895 10.9943 12.3357 11.3152 12.2369C12.5743 11.8255 14.2201 11.6938 15.7261 11.8666C16.0635 11.9078 16.3103 12.2122 16.2692 12.5496C16.228 12.887 15.9236 13.1257 15.5862 13.0928C14.253 12.9364 12.7965 13.0598 11.6938 13.4137C11.6279 13.4302 11.5621 13.4384 11.5045 13.4384Z" fill="#323232"/>
</g>
<defs>
<clipPath id="clip0_2221_826">
<rect width="19.75" height="19.75" fill="white"/>
</clipPath>
</defs>
</svg>
