<svg width="15" height="15" viewBox="0 0 15 15" fill="none" xmlns="http://www.w3.org/2000/svg">
<path opacity="0.3" d="M3.70703 2.47119H9.88454V3.70669H3.70703V2.47119Z" fill="white"/>
<path d="M10.5015 1.23535H3.08845C2.74869 1.23535 2.4707 1.51334 2.4707 1.8531V4.32411C2.4707 4.66387 2.74869 4.94186 3.08845 4.94186H10.5015C10.8412 4.94186 11.1192 4.66387 11.1192 4.32411V3.70636H11.737V6.17736H5.55946V12.9726C5.55946 13.3124 5.83745 13.5904 6.17721 13.5904H7.41271C7.75247 13.5904 8.03046 13.3124 8.03046 12.9726V7.41286H12.9725V2.47085H11.1192V1.8531C11.1192 1.51334 10.8412 1.23535 10.5015 1.23535ZM9.88371 3.70636H3.7062V2.47085H9.88371V3.70636Z" fill="white"/>
</svg>
