<svg width="24" height="24" viewBox="0 0 24 24" fill="none" xmlns="http://www.w3.org/2000/svg">
<path d="M3.59922 7.2C3.59922 4.87875 5.47797 3 7.79922 3C10.1205 3 11.9992 4.87875 11.9992 7.2C11.9992 9.52125 10.1205 11.4 7.79922 11.4C5.47797 11.4 3.59922 9.52125 3.59922 7.2ZM1.19922 19.8C1.19922 16.155 4.15422 13.2 7.79922 13.2C11.4442 13.2 14.3992 16.155 14.3992 19.8V20.025C14.3992 20.895 13.6942 21.6 12.8242 21.6H2.77422C1.90422 21.6 1.19922 20.895 1.19922 20.025V19.8ZM17.3992 4.8C19.3867 4.8 20.9992 6.4125 20.9992 8.4C20.9992 10.3875 19.3867 12 17.3992 12C15.4117 12 13.7992 10.3875 13.7992 8.4C13.7992 6.4125 15.4117 4.8 17.3992 4.8ZM17.3992 13.8C20.3805 13.8 22.7992 16.2188 22.7992 19.2V20.04C22.7992 20.9025 22.1017 21.6 21.2392 21.6H15.8092C16.0567 21.1313 16.1992 20.595 16.1992 20.025V19.8C16.1992 17.8688 15.5467 16.0913 14.4555 14.6737C15.303 14.1225 16.3155 13.8 17.3992 13.8Z" fill="#F9FAFB"/>
</svg>
