<svg width="19" height="19" viewBox="0 0 19 19" fill="none" xmlns="http://www.w3.org/2000/svg">
<g clip-path="url(#clip0_2221_1773)">
<path d="M7.91667 9.49984C9.66557 9.49984 11.0833 8.08207 11.0833 6.33317C11.0833 4.58427 9.66557 3.1665 7.91667 3.1665C6.16776 3.1665 4.75 4.58427 4.75 6.33317C4.75 8.08207 6.16776 9.49984 7.91667 9.49984Z" fill="#323232"/>
<path d="M8.19379 11.091C6.03254 11.0118 1.58337 12.0885 1.58337 14.2497V15.8331H9.13587C7.18046 13.6481 8.16212 11.1702 8.19379 11.091Z" fill="#323232"/>
<path d="M15.3821 14.2658C15.6671 13.7988 15.8333 13.2525 15.8333 12.6667C15.8333 10.9171 14.4163 9.5 12.6667 9.5C10.9171 9.5 9.5 10.9171 9.5 12.6667C9.5 14.4163 10.9171 15.8333 12.6667 15.8333C13.2525 15.8333 13.7988 15.6592 14.2658 15.3821L16.3004 17.4167L17.4167 16.3004L15.3821 14.2658ZM12.6667 14.25C11.7958 14.25 11.0833 13.5375 11.0833 12.6667C11.0833 11.7958 11.7958 11.0833 12.6667 11.0833C13.5375 11.0833 14.25 11.7958 14.25 12.6667C14.25 13.5375 13.5375 14.25 12.6667 14.25Z" fill="#323232"/>
</g>
<defs>
<clipPath id="clip0_2221_1773">
<rect width="19" height="19" fill="white"/>
</clipPath>
</defs>
</svg>
