<svg width="22" height="22" viewBox="0 0 22 22" fill="none" xmlns="http://www.w3.org/2000/svg">
  <g clip-path="url(#clip0_812_882)">
    <path
      d="M3.94987 8.75151L6.08938 9.65668C6.34539 9.14466 6.61055 8.65093 6.88484 8.17548C7.15914 7.70004 7.46087 7.22459 7.79002 6.74914L6.25396 6.44741L3.94987 8.75151ZM7.84488 11.0282L10.9719 14.1277C11.7399 13.8351 12.5628 13.3871 13.4405 12.7837C14.3183 12.1802 15.1412 11.4945 15.9092 10.7264C17.1893 9.44639 18.1904 8.02462 18.9127 6.46113C19.6351 4.89764 19.9505 3.45758 19.8591 2.14096C18.5424 2.04953 17.0978 2.36497 15.5252 3.08728C13.9526 3.8096 12.5262 4.81078 11.2462 6.09083C10.4781 6.85886 9.79239 7.68175 9.18894 8.5595C8.58548 9.43725 8.13746 10.2601 7.84488 11.0282ZM12.7274 9.24524C12.3068 8.82465 12.0965 8.30806 12.0965 7.69546C12.0965 7.08287 12.3068 6.56628 12.7274 6.14569C13.1479 5.7251 13.6691 5.51481 14.2909 5.51481C14.9126 5.51481 15.4338 5.7251 15.8543 6.14569C16.2749 6.56628 16.4852 7.08287 16.4852 7.69546C16.4852 8.30806 16.2749 8.82465 15.8543 9.24524C15.4338 9.66583 14.9126 9.87612 14.2909 9.87612C13.6691 9.87612 13.1479 9.66583 12.7274 9.24524ZM13.2485 18.0502L15.5526 15.7461L15.2509 14.21C14.7754 14.5392 14.3 14.8363 13.8245 15.1015C13.3491 15.3666 12.8554 15.6272 12.3433 15.8832L13.2485 18.0502ZM21.834 0.138593C22.1814 2.35125 21.9666 4.50448 21.1894 6.59828C20.4122 8.69208 19.0728 10.6899 17.171 12.5917L17.7196 15.3072C17.7927 15.6729 17.7744 16.0295 17.6647 16.377C17.555 16.7244 17.3721 17.0261 17.1161 17.2821L12.5079 21.8903L10.2038 16.4867L5.51336 11.7962L0.109719 9.49211L4.69047 4.88392C4.94648 4.62791 5.25278 4.44505 5.60936 4.33533C5.96595 4.22561 6.32711 4.20733 6.69284 4.28047L9.40837 4.82907C11.3102 2.92728 13.3034 1.58322 15.388 0.796905C17.4727 0.0105882 19.6213 -0.208849 21.834 0.138593ZM2.05722 15.2798C2.69725 14.6397 3.47899 14.3152 4.40246 14.306C5.32593 14.2969 6.10767 14.6123 6.7477 15.2523C7.38772 15.8924 7.70316 16.6741 7.69402 17.5976C7.68488 18.521 7.36029 19.3028 6.72027 19.9428C6.26311 20.4 5.49965 20.7931 4.42989 21.1223C3.36013 21.4514 1.8835 21.744 0 22C0.25601 20.1165 0.548593 18.6399 0.877749 17.5701C1.2069 16.5004 1.60006 15.7369 2.05722 15.2798ZM3.62071 16.8158C3.43785 16.9987 3.25499 17.3324 3.07212 17.817C2.88926 18.3016 2.76125 18.7908 2.68811 19.2845C3.18184 19.2113 3.671 19.0879 4.15559 18.9142C4.64018 18.7405 4.97391 18.5622 5.15678 18.3793C5.37621 18.1599 5.49507 17.8947 5.51336 17.5839C5.53165 17.273 5.43107 17.0078 5.21163 16.7884C4.9922 16.569 4.72704 16.4638 4.41617 16.473C4.10531 16.4821 3.84015 16.5964 3.62071 16.8158Z"
      fill="#040404"
    />
  </g>
  <defs>
    <clipPath id="clip0_812_882">
      <rect width="22" height="22" fill="white" />
    </clipPath>
  </defs>
</svg>
