<svg width="29" height="35" viewBox="0 0 29 35" fill="none" xmlns="http://www.w3.org/2000/svg">
<path d="M23.5824 12.2083H20.3472V2.03472C20.3472 0.915624 19.4316 0 18.3125 0H10.1736C9.0545 0 8.13888 0.915624 8.13888 2.03472V12.2083H4.90367C3.09277 12.2083 2.17715 14.4058 3.45902 15.6877L12.7984 25.027C13.5919 25.8206 14.8738 25.8206 15.6673 25.027L25.0067 15.6877C26.2886 14.4058 25.3933 12.2083 23.5824 12.2083ZM0 32.5555C0 33.6746 0.915624 34.5902 2.03472 34.5902H26.4513C27.5704 34.5902 28.4861 33.6746 28.4861 32.5555C28.4861 31.4364 27.5704 30.5208 26.4513 30.5208H2.03472C0.915624 30.5208 0 31.4364 0 32.5555Z" fill="#323232"/>
</svg>
