<svg width="15" height="15" viewBox="0 0 15 15" fill="none" xmlns="http://www.w3.org/2000/svg">
<g clip-path="url(#clip0_1661_2929)">
<path d="M10.1768 9.80029L13.5176 13.1499L13.1504 13.5171L9.80078 10.1753V9.80029H10.1768ZM5.71289 1.18799C8.21145 1.18825 10.2363 3.21378 10.2363 5.7124C10.2362 6.83236 9.82615 7.86173 9.14355 8.65576L8.91797 8.91748L8.65625 9.14307C7.86222 9.82566 6.83285 10.2357 5.71289 10.2358C3.21427 10.2358 1.18874 8.21096 1.18848 5.7124C1.18848 3.21362 3.21411 1.18799 5.71289 1.18799ZM5.71289 1.62354C3.45116 1.62354 1.62402 3.45068 1.62402 5.7124C1.62429 7.9739 3.45133 9.80029 5.71289 9.80029C7.97423 9.80003 9.80052 7.97374 9.80078 5.7124C9.80078 3.45084 7.97439 1.6238 5.71289 1.62354Z" fill="#B0B7C2" stroke="#B0B7C2" stroke-width="1.13025"/>
</g>
<defs>
<clipPath id="clip0_1661_2929">
<rect width="14.9392" height="14.9392" fill="white"/>
</clipPath>
</defs>
</svg>
