<svg width="22" height="22" viewBox="0 0 22 22" fill="none" xmlns="http://www.w3.org/2000/svg">
<path d="M7.99005 22L7.55224 18.48C7.31509 18.3883 7.09163 18.2783 6.88184 18.15C6.67206 18.0217 6.46683 17.8842 6.26617 17.7375L3.00995 19.1125L0 13.8875L2.81841 11.7425C2.80017 11.6142 2.79104 11.4904 2.79104 11.3712V10.6287C2.79104 10.5096 2.80017 10.3858 2.81841 10.2575L0 8.1125L3.00995 2.8875L6.26617 4.2625C6.46683 4.11583 6.67662 3.97833 6.89552 3.85C7.11443 3.72167 7.33333 3.61167 7.55224 3.52L7.99005 0H14.01L14.4478 3.52C14.6849 3.61167 14.9084 3.72167 15.1182 3.85C15.3279 3.97833 15.5332 4.11583 15.7338 4.2625L18.9901 2.8875L22 8.1125L19.1816 10.2575C19.1998 10.3858 19.209 10.5096 19.209 10.6287V11.3712C19.209 11.4904 19.1907 11.6142 19.1542 11.7425L21.9726 13.8875L18.9627 19.1125L15.7338 17.7375C15.5332 17.8842 15.3234 18.0217 15.1045 18.15C14.8856 18.2783 14.6667 18.3883 14.4478 18.48L14.01 22H7.99005ZM9.90547 19.8H12.0672L12.4502 16.885C13.0158 16.7383 13.5402 16.5229 14.0236 16.2387C14.507 15.9546 14.9494 15.6108 15.3507 15.2075L18.0597 16.335L19.1269 14.465L16.7736 12.6775C16.8648 12.4208 16.9287 12.1504 16.9652 11.8662C17.0017 11.5821 17.0199 11.2933 17.0199 11C17.0199 10.7067 17.0017 10.4179 16.9652 10.1337C16.9287 9.84958 16.8648 9.57917 16.7736 9.3225L19.1269 7.535L18.0597 5.665L15.3507 6.82C14.9494 6.39833 14.507 6.04542 14.0236 5.76125C13.5402 5.47708 13.0158 5.26167 12.4502 5.115L12.0945 2.2H9.93284L9.54975 5.115C8.98425 5.26167 8.45978 5.47708 7.97637 5.76125C7.49295 6.04542 7.05058 6.38917 6.64925 6.7925L3.9403 5.665L2.87313 7.535L5.22637 9.295C5.13516 9.57 5.07131 9.845 5.03483 10.12C4.99834 10.395 4.9801 10.6883 4.9801 11C4.9801 11.2933 4.99834 11.5775 5.03483 11.8525C5.07131 12.1275 5.13516 12.4025 5.22637 12.6775L2.87313 14.465L3.9403 16.335L6.64925 15.18C7.05058 15.6017 7.49295 15.9546 7.97637 16.2387C8.45978 16.5229 8.98425 16.7383 9.54975 16.885L9.90547 19.8ZM11.0547 14.85C12.1128 14.85 13.0158 14.4742 13.7637 13.7225C14.5116 12.9708 14.8856 12.0633 14.8856 11C14.8856 9.93667 14.5116 9.02917 13.7637 8.2775C13.0158 7.52583 12.1128 7.15 11.0547 7.15C9.97844 7.15 9.0709 7.52583 8.33209 8.2775C7.59328 9.02917 7.22388 9.93667 7.22388 11C7.22388 12.0633 7.59328 12.9708 8.33209 13.7225C9.0709 14.4742 9.97844 14.85 11.0547 14.85Z" fill="url(#paint0_linear_357_993)"/>
<defs>
<linearGradient id="paint0_linear_357_993" x1="1.24471" y1="1.56098e-06" x2="23.4344" y2="2.26192" gradientUnits="userSpaceOnUse">
<stop stop-color="#00BFA6"/>
<stop offset="0.5" stop-color="#58C7FF"/>
<stop offset="1" stop-color="#0D3B66"/>
</linearGradient>
</defs>
</svg>
