<svg width="18" height="20" viewBox="0 0 18 20" fill="none" xmlns="http://www.w3.org/2000/svg">
<path d="M3 5V17C3 17.5304 3.21071 18.0391 3.58579 18.4142C3.96086 18.7893 4.46957 19 5 19H13C13.5304 19 14.0391 18.7893 14.4142 18.4142C14.7893 18.0391 15 17.5304 15 17V5M1 5H17M4 5L6 1H12L14 5" stroke="black" stroke-width="2" stroke-linecap="round" stroke-linejoin="round"/>
<path d="M8.16752 14.0789V11.1776L7.41359 11.9836C7.24661 12.153 7.04779 12.2338 6.81715 12.2258C6.5865 12.2178 6.39439 12.1294 6.24081 11.9605C6.07383 11.7769 5.99369 11.5583 6.00039 11.3047C6.00709 11.0511 6.08723 10.8399 6.24081 10.6711L8.41883 8.27632C8.58637 8.09211 8.78183 8 9.00522 8C9.22861 8 9.42407 8.09211 9.59161 8.27632L11.7696 10.6711C11.9232 10.8399 12 11.0548 12 11.3158C12 11.5768 11.9232 11.7917 11.7696 11.9605C11.6027 12.1447 11.4038 12.2368 11.1732 12.2368C10.9425 12.2368 10.7504 12.1524 10.5969 11.9836L9.84292 11.1776V14.0789C9.84404 14.3399 9.7639 14.5585 9.6025 14.7347C9.4411 14.911 9.24201 14.9994 9.00522 15C8.76843 15.0006 8.56962 14.9125 8.40878 14.7357C8.24794 14.5588 8.16752 14.3399 8.16752 14.0789Z" fill="black"/>
</svg>
