<svg width="22" height="22" viewBox="0 0 22 22" fill="none" xmlns="http://www.w3.org/2000/svg">
<path d="M9.625 4.12508L10.3125 2.75005L11.6875 2.06254L10.3125 1.37503L9.625 0L8.9375 1.37503L7.5625 2.06254L8.9375 2.75005L9.625 4.12508ZM3.4375 6.87513L4.58305 4.58357L6.875 3.43757L4.58305 2.29157L3.4375 0L2.29195 2.29157L0 3.43757L2.29195 4.58357L3.4375 6.87513ZM18.5625 12.3752L17.417 14.6668L15.125 15.8128L17.417 16.9588L18.5625 19.2504L19.708 16.9588L22 15.8128L19.708 14.6668L18.5625 12.3752ZM21.597 4.04902L17.9511 0.403055C17.6829 0.134065 17.331 0 16.9791 0C16.6272 0 16.2753 0.134065 16.0067 0.403055L0.403047 16.007C-0.134062 16.5442 -0.134062 17.4147 0.403047 17.9514L4.04895 21.5974C4.3175 21.8659 4.66941 22 5.0209 22C5.37281 22 5.72473 21.8659 5.99328 21.5974L21.597 5.99297C22.1341 5.45671 22.1341 4.58571 21.597 4.04902ZM15.4451 8.74259L13.2576 6.55501L16.9787 2.83384L19.1662 5.02143L15.4451 8.74259Z" fill="#F9FAFB"/>
</svg>
