<svg width="15" height="15" viewBox="0 0 15 15" fill="none" xmlns="http://www.w3.org/2000/svg">
<path d="M7.46875 1.69421C10.6566 1.69421 13.2441 4.28174 13.2441 7.4696C13.2441 10.6575 10.6566 13.245 7.46875 13.245C4.28089 13.245 1.69336 10.6575 1.69336 7.4696C1.69339 4.28176 4.28091 1.69425 7.46875 1.69421ZM6.79102 2.08777C4.11664 2.42037 2.04007 4.70641 2.04004 7.4696C2.04004 10.2328 4.11662 12.5188 6.79102 12.8514L7.2959 12.9149V2.02527L6.79102 2.08777ZM7.6416 12.9149L8.14648 12.8514C10.5977 12.5459 12.545 10.5985 12.8506 8.14734L12.9141 7.64246H7.6416V12.9149ZM7.6416 7.29675H12.9141L12.8506 6.79187C12.545 4.34069 10.5977 2.39332 8.14648 2.08777L7.6416 2.02429V7.29675Z" fill="currentColor" stroke="currentColor" stroke-width="0.898551"/>
</svg>
