<svg width="32" height="31" viewBox="0 0 32 31" fill="none" xmlns="http://www.w3.org/2000/svg">
<path d="M28.8 6.44394H25.312C25.488 5.94453 25.6 5.3968 25.6 4.83295C25.6 2.15872 23.456 0 20.8 0C19.12 0 17.664 0.869931 16.8 2.17483L16 3.25419L15.2 2.15872C14.336 0.869931 12.88 0 11.2 0C8.544 0 6.4 2.15872 6.4 4.83295C6.4 5.3968 6.512 5.94453 6.688 6.44394H3.2C1.424 6.44394 0.016 7.87771 0.016 9.6659L0 27.3867C0 29.1749 1.424 30.6087 3.2 30.6087H28.8C30.576 30.6087 32 29.1749 32 27.3867V9.6659C32 7.87771 30.576 6.44394 28.8 6.44394ZM20.8 3.22197C21.68 3.22197 22.4 3.94691 22.4 4.83295C22.4 5.71899 21.68 6.44394 20.8 6.44394C19.92 6.44394 19.2 5.71899 19.2 4.83295C19.2 3.94691 19.92 3.22197 20.8 3.22197ZM11.2 3.22197C12.08 3.22197 12.8 3.94691 12.8 4.83295C12.8 5.71899 12.08 6.44394 11.2 6.44394C10.32 6.44394 9.6 5.71899 9.6 4.83295C9.6 3.94691 10.32 3.22197 11.2 3.22197ZM28.8 27.3867H3.2V24.1648H28.8V27.3867ZM28.8 19.3318H3.2V9.6659H11.328L8 14.225L10.592 16.1098L16 8.69931L21.408 16.1098L24 14.225L20.672 9.6659H28.8V19.3318Z" fill="#0A0A0A"/>
</svg>
