<svg width="15" height="15" viewBox="0 0 15 15" fill="none" xmlns="http://www.w3.org/2000/svg">
<path d="M3.1123 1.69421H10.582C10.6761 1.69421 10.7556 1.77301 10.7559 1.86707V2.93933H12.623V7.02039H7.64355V13.0721C7.64341 13.1663 7.56387 13.245 7.46973 13.245H6.22461C6.13066 13.2448 6.05191 13.1661 6.05176 13.0721V6.67371H12.2764V3.28601H10.7559V4.3573C10.7559 4.45153 10.6763 4.53015 10.582 4.53015H3.1123C3.01825 4.52993 2.93945 4.4514 2.93945 4.3573V1.86707C2.93967 1.77314 3.01838 1.69443 3.1123 1.69421ZM3.28613 4.18445H10.4092V2.04089H3.28613V4.18445Z" fill="currentColor" stroke="currentColor" stroke-width="0.898551"/>
</svg>
