<svg width="33" height="33" viewBox="0 0 33 33" fill="none" xmlns="http://www.w3.org/2000/svg">
<path d="M6.58125 22.3219C6.05417 21.4115 5.65885 20.4771 5.39531 19.5188C5.13177 18.5604 5 17.5781 5 16.5719C5 13.3615 6.11406 10.6302 8.34219 8.37812C10.5703 6.12604 13.2896 5 16.5 5H16.7516L14.4516 2.7L16.4641 0.6875L22.2141 6.4375L16.4641 12.1875L14.4516 10.175L16.7516 7.875H16.5C14.1042 7.875 12.0677 8.71977 10.3906 10.4093C8.71354 12.0989 7.875 14.153 7.875 16.5719C7.875 17.1948 7.94688 17.8057 8.09063 18.4047C8.23438 19.0036 8.45 19.5906 8.7375 20.1656L6.58125 22.3219ZM16.5359 32.3125L10.7859 26.5625L16.5359 20.8125L18.5484 22.825L16.2484 25.125H16.5C18.8958 25.125 20.9323 24.2802 22.6094 22.5907C24.2865 20.9011 25.125 18.847 25.125 16.4281C25.125 15.8052 25.0531 15.1943 24.9094 14.5953C24.7656 13.9964 24.55 13.4094 24.2625 12.8344L26.4187 10.6781C26.9458 11.5885 27.3411 12.5229 27.6047 13.4812C27.8682 14.4396 28 15.4219 28 16.4281C28 19.6385 26.8859 22.3698 24.6578 24.6219C22.4297 26.874 19.7104 28 16.5 28H16.2484L18.5484 30.3L16.5359 32.3125Z" fill="black"/>
</svg>
