<svg width="15" height="15" viewBox="0 0 15 15" fill="none" xmlns="http://www.w3.org/2000/svg">
<g clip-path="url(#clip0_3669_5553)">
<path d="M10.1768 9.80017L13.5176 13.1498L13.1504 13.517L9.80078 10.1752V9.80017H10.1768ZM5.71289 1.18787C8.21145 1.18813 10.2363 3.21366 10.2363 5.71228C10.2362 6.83224 9.82615 7.86161 9.14355 8.65564L8.91797 8.91736L8.65625 9.14294C7.86222 9.82553 6.83285 10.2356 5.71289 10.2357C3.21427 10.2357 1.18874 8.21084 1.18848 5.71228C1.18848 3.2135 3.21411 1.18787 5.71289 1.18787ZM5.71289 1.62341C3.45116 1.62341 1.62402 3.45055 1.62402 5.71228C1.62429 7.97378 3.45133 9.80017 5.71289 9.80017C7.97423 9.79991 9.80052 7.97362 9.80078 5.71228C9.80078 3.45072 7.97439 1.62368 5.71289 1.62341Z" fill="currentColor" stroke="currentColor" stroke-width="1.13025"/>
</g>
<defs>
<clipPath id="clip0_3669_5553">
<rect width="14.9392" height="14.9392" fill="white"/>
</clipPath>
</defs>
</svg>
