<svg width="15" height="15" viewBox="0 0 15 15" fill="none" xmlns="http://www.w3.org/2000/svg">
<path d="M7.46289 1.69421C10.6571 1.69438 13.2441 4.28213 13.2441 7.4696C13.2441 10.6571 10.6572 13.2448 7.46289 13.245C4.27558 13.245 1.69336 10.6581 1.69336 7.4696C1.69339 4.28116 4.27561 1.69421 7.46289 1.69421ZM5.84961 10.0887C6.13116 11.0251 6.55697 11.896 7.09961 12.6805L7.46875 13.2147L7.83789 12.6805C8.38053 11.896 8.80634 11.0251 9.08789 10.0887L9.26172 9.51062H5.67578L5.84961 10.0887ZM2.77246 10.1844C3.42393 11.3109 4.46234 12.1729 5.71094 12.6005L6.79785 12.9725L6.25195 11.9618C5.89719 11.3055 5.62333 10.5934 5.43262 9.84851L5.34668 9.51062H2.38281L2.77246 10.1844ZM9.50488 9.84851C9.31416 10.5934 9.04032 11.3055 8.68555 11.9618L8.13965 12.9725L9.22656 12.6005C10.4762 12.1726 11.5143 11.304 12.165 10.1854L12.5576 9.51062H9.59082L9.50488 9.84851ZM2.21484 6.11609C2.10816 6.54291 2.04005 6.99689 2.04004 7.4696C2.04004 7.9423 2.10817 8.39631 2.21484 8.82312L2.2998 9.16394H5.26172L5.20117 8.66101C5.15235 8.25827 5.11719 7.86705 5.11719 7.4696C5.11719 7.07229 5.15238 6.68177 5.20117 6.27917L5.26172 5.77527H2.2998L2.21484 6.11609ZM5.56738 6.16296C5.51012 6.57651 5.4629 7.01673 5.46289 7.4696C5.46289 7.92277 5.51032 8.35682 5.56738 8.77527L5.62012 9.16394H9.31738L9.37012 8.77527C9.42718 8.35682 9.47461 7.92277 9.47461 7.4696C9.4746 7.01673 9.42738 6.57651 9.37012 6.16296L9.31641 5.77527H5.62109L5.56738 6.16296ZM9.73633 6.27917C9.78512 6.68178 9.82031 7.07229 9.82031 7.4696C9.82031 7.86705 9.78514 8.25827 9.73633 8.66101L9.67578 9.16394H12.6377L12.7227 8.82312C12.8293 8.3963 12.8975 7.94231 12.8975 7.4696C12.8975 6.99687 12.8293 6.54292 12.7227 6.11609L12.6377 5.77527H9.67578L9.73633 6.27917ZM5.71094 2.33875C4.46236 2.76628 3.42394 3.6283 2.77246 4.75476L2.38281 5.42859H5.34668L5.43262 5.09167C5.62334 4.34666 5.89713 3.63384 6.25195 2.97742L6.79785 1.96667L5.71094 2.33875ZM7.09961 2.25964C6.55701 3.04415 6.13115 3.91419 5.84961 4.85046L5.67578 5.42859H9.26172L9.08789 4.85046C8.80635 3.91416 8.38051 3.04416 7.83789 2.25964L7.46875 1.72546L7.09961 2.25964ZM8.68555 2.97742C9.04037 3.63384 9.31416 4.34666 9.50488 5.09167L9.59082 5.42859H12.5576L12.165 4.75378C11.5143 3.63524 10.4762 2.76663 9.22656 2.33875L8.13965 1.96667L8.68555 2.97742Z" fill="currentColor" stroke="currentColor" stroke-width="0.898551"/>
</svg>
